G04 (created by PCBNEW (2013-07-07 BZR 4022)-stable) date 3/29/2015 8:23:08 PM*
%MOIN*%
G04 Gerber Fmt 3.4, Leading zero omitted, Abs format*
%FSLAX34Y34*%
G01*
G70*
G90*
G04 APERTURE LIST*
%ADD10C,0.00590551*%
%ADD11C,0.011811*%
%ADD12C,0.00393701*%
%ADD13C,0.0669291*%
%ADD14R,0.09X0.062*%
%ADD15O,0.09X0.062*%
%ADD16C,0.056*%
%ADD17C,0.0787402*%
%ADD18C,0.05*%
%ADD19C,0.05*%
%ADD20C,0.045*%
G04 APERTURE END LIST*
G54D10*
G54D11*
X58407Y-25778D02*
X58335Y-25802D01*
X58216Y-25802D01*
X58169Y-25778D01*
X58145Y-25754D01*
X58121Y-25707D01*
X58121Y-25659D01*
X58145Y-25611D01*
X58169Y-25588D01*
X58216Y-25564D01*
X58311Y-25540D01*
X58359Y-25516D01*
X58383Y-25492D01*
X58407Y-25445D01*
X58407Y-25397D01*
X58383Y-25350D01*
X58359Y-25326D01*
X58311Y-25302D01*
X58192Y-25302D01*
X58121Y-25326D01*
X57811Y-25302D02*
X57716Y-25302D01*
X57669Y-25326D01*
X57621Y-25373D01*
X57597Y-25469D01*
X57597Y-25635D01*
X57621Y-25730D01*
X57669Y-25778D01*
X57716Y-25802D01*
X57811Y-25802D01*
X57859Y-25778D01*
X57907Y-25730D01*
X57930Y-25635D01*
X57930Y-25469D01*
X57907Y-25373D01*
X57859Y-25326D01*
X57811Y-25302D01*
X57145Y-25802D02*
X57383Y-25802D01*
X57383Y-25302D01*
X56978Y-25802D02*
X56978Y-25302D01*
X56859Y-25302D01*
X56788Y-25326D01*
X56740Y-25373D01*
X56716Y-25421D01*
X56692Y-25516D01*
X56692Y-25588D01*
X56716Y-25683D01*
X56740Y-25730D01*
X56788Y-25778D01*
X56859Y-25802D01*
X56978Y-25802D01*
G54D12*
X75601Y-24995D02*
X75601Y-27495D01*
X75601Y-24995D02*
X78101Y-24995D01*
X91601Y-24995D02*
X91601Y-27495D01*
X91601Y-24995D02*
X89101Y-24995D01*
X75601Y-54495D02*
X78101Y-54495D01*
X75601Y-54495D02*
X75601Y-51995D01*
X91601Y-54495D02*
X89101Y-54495D01*
X91601Y-54495D02*
X91601Y-51995D01*
X91947Y-24989D02*
X91947Y-27489D01*
X91947Y-24989D02*
X94447Y-24989D01*
X107947Y-24989D02*
X107947Y-27489D01*
X107947Y-24989D02*
X105447Y-24989D01*
X91947Y-54489D02*
X94447Y-54489D01*
X91947Y-54489D02*
X91947Y-51989D01*
X107947Y-54489D02*
X105447Y-54489D01*
X107947Y-54489D02*
X107947Y-51989D01*
X91985Y-55141D02*
X91985Y-57641D01*
X91985Y-55141D02*
X94485Y-55141D01*
X107985Y-55141D02*
X107985Y-57641D01*
X107985Y-55141D02*
X105485Y-55141D01*
X91985Y-84641D02*
X94485Y-84641D01*
X91985Y-84641D02*
X91985Y-82141D01*
X107985Y-84641D02*
X105485Y-84641D01*
X107985Y-84641D02*
X107985Y-82141D01*
X75632Y-55035D02*
X75632Y-57535D01*
X75632Y-55035D02*
X78132Y-55035D01*
X91632Y-55035D02*
X91632Y-57535D01*
X91632Y-55035D02*
X89132Y-55035D01*
X75632Y-84535D02*
X78132Y-84535D01*
X75632Y-84535D02*
X75632Y-82035D01*
X91632Y-84535D02*
X89132Y-84535D01*
X91632Y-84535D02*
X91632Y-82035D01*
X42622Y-54822D02*
X42622Y-57322D01*
X42622Y-54822D02*
X45122Y-54822D01*
X58622Y-54822D02*
X58622Y-57322D01*
X58622Y-54822D02*
X56122Y-54822D01*
X42622Y-84322D02*
X45122Y-84322D01*
X42622Y-84322D02*
X42622Y-81822D01*
X58622Y-84322D02*
X56122Y-84322D01*
X58622Y-84322D02*
X58622Y-81822D01*
X59055Y-54895D02*
X59055Y-57395D01*
X59055Y-54895D02*
X61555Y-54895D01*
X75055Y-54895D02*
X75055Y-57395D01*
X75055Y-54895D02*
X72555Y-54895D01*
X59055Y-84395D02*
X61555Y-84395D01*
X59055Y-84395D02*
X59055Y-81895D01*
X75055Y-84395D02*
X72555Y-84395D01*
X75055Y-84395D02*
X75055Y-81895D01*
X42679Y-24995D02*
X42679Y-27495D01*
X42679Y-24995D02*
X45179Y-24995D01*
X58679Y-24995D02*
X58679Y-27495D01*
X58679Y-24995D02*
X56179Y-24995D01*
X42679Y-54495D02*
X45179Y-54495D01*
X42679Y-54495D02*
X42679Y-51995D01*
X58679Y-54495D02*
X56179Y-54495D01*
X58679Y-54495D02*
X58679Y-51995D01*
X59050Y-25100D02*
X59050Y-27600D01*
X59050Y-25100D02*
X61550Y-25100D01*
X75050Y-25100D02*
X75050Y-27600D01*
X75050Y-25100D02*
X72550Y-25100D01*
X59050Y-54600D02*
X61550Y-54600D01*
X59050Y-54600D02*
X59050Y-52100D01*
X75050Y-54600D02*
X72550Y-54600D01*
X75050Y-54600D02*
X75050Y-52100D01*
X108350Y-55100D02*
X108350Y-57600D01*
X108350Y-55100D02*
X110850Y-55100D01*
X124350Y-55100D02*
X124350Y-57600D01*
X124350Y-55100D02*
X121850Y-55100D01*
X108350Y-84600D02*
X110850Y-84600D01*
X108350Y-84600D02*
X108350Y-82100D01*
X124350Y-84600D02*
X121850Y-84600D01*
X124350Y-84600D02*
X124350Y-82100D01*
X108400Y-25000D02*
X108400Y-27500D01*
X108400Y-25000D02*
X110900Y-25000D01*
X124400Y-25000D02*
X124400Y-27500D01*
X124400Y-25000D02*
X121900Y-25000D01*
X108400Y-54500D02*
X110900Y-54500D01*
X108400Y-54500D02*
X108400Y-52000D01*
X124400Y-54500D02*
X121900Y-54500D01*
X124400Y-54500D02*
X124400Y-52000D01*
G54D13*
X82201Y-28495D03*
X82201Y-27495D03*
X83201Y-28495D03*
X83201Y-27495D03*
X84201Y-28495D03*
X84201Y-27495D03*
X85201Y-28495D03*
X85201Y-27495D03*
X86201Y-28495D03*
X86201Y-27495D03*
G54D14*
X76601Y-31495D03*
G54D15*
X76601Y-32495D03*
X76601Y-33495D03*
X76601Y-34495D03*
X76601Y-35495D03*
X76601Y-36495D03*
X76601Y-37495D03*
X76601Y-38495D03*
X76601Y-39495D03*
X76601Y-40495D03*
G54D14*
X90601Y-31495D03*
G54D15*
X90601Y-32495D03*
X90601Y-33495D03*
X90601Y-34495D03*
X90601Y-35495D03*
X90601Y-36495D03*
X90601Y-37495D03*
X90601Y-38495D03*
X90601Y-39495D03*
X90601Y-40495D03*
G54D16*
X83501Y-47095D03*
X83501Y-45095D03*
G54D14*
X80601Y-31495D03*
G54D15*
X80601Y-32495D03*
X80601Y-33495D03*
X80601Y-34495D03*
X80601Y-35495D03*
X80601Y-36495D03*
X80601Y-37495D03*
X80601Y-38495D03*
X80601Y-39495D03*
X80601Y-40495D03*
X80601Y-41495D03*
X80601Y-42495D03*
X80601Y-43495D03*
X80601Y-44495D03*
X80601Y-45495D03*
X80601Y-46495D03*
X80601Y-47495D03*
X80601Y-48495D03*
X80601Y-49495D03*
X80601Y-50495D03*
X86601Y-50495D03*
X86601Y-49495D03*
X86601Y-48495D03*
X86601Y-47495D03*
X86601Y-46495D03*
X86601Y-45495D03*
X86601Y-44495D03*
X86601Y-43495D03*
X86601Y-42495D03*
X86601Y-41495D03*
X86601Y-40495D03*
X86601Y-39495D03*
X86601Y-38495D03*
X86601Y-37495D03*
X86601Y-36495D03*
X86601Y-35495D03*
X86601Y-34495D03*
X86601Y-33495D03*
X86601Y-32495D03*
X86601Y-31495D03*
G54D17*
X77997Y-29495D03*
X78001Y-26499D03*
G54D14*
X76601Y-41495D03*
G54D15*
X76601Y-42495D03*
X76601Y-43495D03*
X76601Y-44495D03*
X76601Y-45495D03*
X76601Y-46495D03*
X76601Y-47495D03*
X76601Y-48495D03*
X76601Y-49495D03*
X76601Y-50495D03*
G54D14*
X90601Y-50495D03*
G54D15*
X90601Y-49495D03*
X90601Y-48495D03*
X90601Y-47495D03*
X90601Y-46495D03*
X90601Y-45495D03*
X90601Y-44495D03*
X90601Y-43495D03*
X90601Y-42495D03*
X90601Y-41495D03*
G54D13*
X98547Y-28489D03*
X98547Y-27489D03*
X99547Y-28489D03*
X99547Y-27489D03*
X100547Y-28489D03*
X100547Y-27489D03*
X101547Y-28489D03*
X101547Y-27489D03*
X102547Y-28489D03*
X102547Y-27489D03*
G54D14*
X92947Y-31489D03*
G54D15*
X92947Y-32489D03*
X92947Y-33489D03*
X92947Y-34489D03*
X92947Y-35489D03*
X92947Y-36489D03*
X92947Y-37489D03*
X92947Y-38489D03*
X92947Y-39489D03*
X92947Y-40489D03*
G54D14*
X106947Y-31489D03*
G54D15*
X106947Y-32489D03*
X106947Y-33489D03*
X106947Y-34489D03*
X106947Y-35489D03*
X106947Y-36489D03*
X106947Y-37489D03*
X106947Y-38489D03*
X106947Y-39489D03*
X106947Y-40489D03*
G54D16*
X99847Y-47089D03*
X99847Y-45089D03*
G54D14*
X96947Y-31489D03*
G54D15*
X96947Y-32489D03*
X96947Y-33489D03*
X96947Y-34489D03*
X96947Y-35489D03*
X96947Y-36489D03*
X96947Y-37489D03*
X96947Y-38489D03*
X96947Y-39489D03*
X96947Y-40489D03*
X96947Y-41489D03*
X96947Y-42489D03*
X96947Y-43489D03*
X96947Y-44489D03*
X96947Y-45489D03*
X96947Y-46489D03*
X96947Y-47489D03*
X96947Y-48489D03*
X96947Y-49489D03*
X96947Y-50489D03*
X102947Y-50489D03*
X102947Y-49489D03*
X102947Y-48489D03*
X102947Y-47489D03*
X102947Y-46489D03*
X102947Y-45489D03*
X102947Y-44489D03*
X102947Y-43489D03*
X102947Y-42489D03*
X102947Y-41489D03*
X102947Y-40489D03*
X102947Y-39489D03*
X102947Y-38489D03*
X102947Y-37489D03*
X102947Y-36489D03*
X102947Y-35489D03*
X102947Y-34489D03*
X102947Y-33489D03*
X102947Y-32489D03*
X102947Y-31489D03*
G54D17*
X94343Y-29489D03*
X94347Y-26493D03*
G54D14*
X92947Y-41489D03*
G54D15*
X92947Y-42489D03*
X92947Y-43489D03*
X92947Y-44489D03*
X92947Y-45489D03*
X92947Y-46489D03*
X92947Y-47489D03*
X92947Y-48489D03*
X92947Y-49489D03*
X92947Y-50489D03*
G54D14*
X106947Y-50489D03*
G54D15*
X106947Y-49489D03*
X106947Y-48489D03*
X106947Y-47489D03*
X106947Y-46489D03*
X106947Y-45489D03*
X106947Y-44489D03*
X106947Y-43489D03*
X106947Y-42489D03*
X106947Y-41489D03*
G54D13*
X98585Y-58641D03*
X98585Y-57641D03*
X99585Y-58641D03*
X99585Y-57641D03*
X100585Y-58641D03*
X100585Y-57641D03*
X101585Y-58641D03*
X101585Y-57641D03*
X102585Y-58641D03*
X102585Y-57641D03*
G54D14*
X92985Y-61641D03*
G54D15*
X92985Y-62641D03*
X92985Y-63641D03*
X92985Y-64641D03*
X92985Y-65641D03*
X92985Y-66641D03*
X92985Y-67641D03*
X92985Y-68641D03*
X92985Y-69641D03*
X92985Y-70641D03*
G54D14*
X106985Y-61641D03*
G54D15*
X106985Y-62641D03*
X106985Y-63641D03*
X106985Y-64641D03*
X106985Y-65641D03*
X106985Y-66641D03*
X106985Y-67641D03*
X106985Y-68641D03*
X106985Y-69641D03*
X106985Y-70641D03*
G54D16*
X99885Y-77241D03*
X99885Y-75241D03*
G54D14*
X96985Y-61641D03*
G54D15*
X96985Y-62641D03*
X96985Y-63641D03*
X96985Y-64641D03*
X96985Y-65641D03*
X96985Y-66641D03*
X96985Y-67641D03*
X96985Y-68641D03*
X96985Y-69641D03*
X96985Y-70641D03*
X96985Y-71641D03*
X96985Y-72641D03*
X96985Y-73641D03*
X96985Y-74641D03*
X96985Y-75641D03*
X96985Y-76641D03*
X96985Y-77641D03*
X96985Y-78641D03*
X96985Y-79641D03*
X96985Y-80641D03*
X102985Y-80641D03*
X102985Y-79641D03*
X102985Y-78641D03*
X102985Y-77641D03*
X102985Y-76641D03*
X102985Y-75641D03*
X102985Y-74641D03*
X102985Y-73641D03*
X102985Y-72641D03*
X102985Y-71641D03*
X102985Y-70641D03*
X102985Y-69641D03*
X102985Y-68641D03*
X102985Y-67641D03*
X102985Y-66641D03*
X102985Y-65641D03*
X102985Y-64641D03*
X102985Y-63641D03*
X102985Y-62641D03*
X102985Y-61641D03*
G54D17*
X94381Y-59641D03*
X94385Y-56645D03*
G54D14*
X92985Y-71641D03*
G54D15*
X92985Y-72641D03*
X92985Y-73641D03*
X92985Y-74641D03*
X92985Y-75641D03*
X92985Y-76641D03*
X92985Y-77641D03*
X92985Y-78641D03*
X92985Y-79641D03*
X92985Y-80641D03*
G54D14*
X106985Y-80641D03*
G54D15*
X106985Y-79641D03*
X106985Y-78641D03*
X106985Y-77641D03*
X106985Y-76641D03*
X106985Y-75641D03*
X106985Y-74641D03*
X106985Y-73641D03*
X106985Y-72641D03*
X106985Y-71641D03*
G54D13*
X82232Y-58535D03*
X82232Y-57535D03*
X83232Y-58535D03*
X83232Y-57535D03*
X84232Y-58535D03*
X84232Y-57535D03*
X85232Y-58535D03*
X85232Y-57535D03*
X86232Y-58535D03*
X86232Y-57535D03*
G54D14*
X76632Y-61535D03*
G54D15*
X76632Y-62535D03*
X76632Y-63535D03*
X76632Y-64535D03*
X76632Y-65535D03*
X76632Y-66535D03*
X76632Y-67535D03*
X76632Y-68535D03*
X76632Y-69535D03*
X76632Y-70535D03*
G54D14*
X90632Y-61535D03*
G54D15*
X90632Y-62535D03*
X90632Y-63535D03*
X90632Y-64535D03*
X90632Y-65535D03*
X90632Y-66535D03*
X90632Y-67535D03*
X90632Y-68535D03*
X90632Y-69535D03*
X90632Y-70535D03*
G54D16*
X83532Y-77135D03*
X83532Y-75135D03*
G54D14*
X80632Y-61535D03*
G54D15*
X80632Y-62535D03*
X80632Y-63535D03*
X80632Y-64535D03*
X80632Y-65535D03*
X80632Y-66535D03*
X80632Y-67535D03*
X80632Y-68535D03*
X80632Y-69535D03*
X80632Y-70535D03*
X80632Y-71535D03*
X80632Y-72535D03*
X80632Y-73535D03*
X80632Y-74535D03*
X80632Y-75535D03*
X80632Y-76535D03*
X80632Y-77535D03*
X80632Y-78535D03*
X80632Y-79535D03*
X80632Y-80535D03*
X86632Y-80535D03*
X86632Y-79535D03*
X86632Y-78535D03*
X86632Y-77535D03*
X86632Y-76535D03*
X86632Y-75535D03*
X86632Y-74535D03*
X86632Y-73535D03*
X86632Y-72535D03*
X86632Y-71535D03*
X86632Y-70535D03*
X86632Y-69535D03*
X86632Y-68535D03*
X86632Y-67535D03*
X86632Y-66535D03*
X86632Y-65535D03*
X86632Y-64535D03*
X86632Y-63535D03*
X86632Y-62535D03*
X86632Y-61535D03*
G54D17*
X78028Y-59535D03*
X78032Y-56539D03*
G54D14*
X76632Y-71535D03*
G54D15*
X76632Y-72535D03*
X76632Y-73535D03*
X76632Y-74535D03*
X76632Y-75535D03*
X76632Y-76535D03*
X76632Y-77535D03*
X76632Y-78535D03*
X76632Y-79535D03*
X76632Y-80535D03*
G54D14*
X90632Y-80535D03*
G54D15*
X90632Y-79535D03*
X90632Y-78535D03*
X90632Y-77535D03*
X90632Y-76535D03*
X90632Y-75535D03*
X90632Y-74535D03*
X90632Y-73535D03*
X90632Y-72535D03*
X90632Y-71535D03*
G54D13*
X49222Y-58322D03*
X49222Y-57322D03*
X50222Y-58322D03*
X50222Y-57322D03*
X51222Y-58322D03*
X51222Y-57322D03*
X52222Y-58322D03*
X52222Y-57322D03*
X53222Y-58322D03*
X53222Y-57322D03*
G54D14*
X43622Y-61322D03*
G54D15*
X43622Y-62322D03*
X43622Y-63322D03*
X43622Y-64322D03*
X43622Y-65322D03*
X43622Y-66322D03*
X43622Y-67322D03*
X43622Y-68322D03*
X43622Y-69322D03*
X43622Y-70322D03*
G54D14*
X57622Y-61322D03*
G54D15*
X57622Y-62322D03*
X57622Y-63322D03*
X57622Y-64322D03*
X57622Y-65322D03*
X57622Y-66322D03*
X57622Y-67322D03*
X57622Y-68322D03*
X57622Y-69322D03*
X57622Y-70322D03*
G54D16*
X50522Y-76922D03*
X50522Y-74922D03*
G54D14*
X47622Y-61322D03*
G54D15*
X47622Y-62322D03*
X47622Y-63322D03*
X47622Y-64322D03*
X47622Y-65322D03*
X47622Y-66322D03*
X47622Y-67322D03*
X47622Y-68322D03*
X47622Y-69322D03*
X47622Y-70322D03*
X47622Y-71322D03*
X47622Y-72322D03*
X47622Y-73322D03*
X47622Y-74322D03*
X47622Y-75322D03*
X47622Y-76322D03*
X47622Y-77322D03*
X47622Y-78322D03*
X47622Y-79322D03*
X47622Y-80322D03*
X53622Y-80322D03*
X53622Y-79322D03*
X53622Y-78322D03*
X53622Y-77322D03*
X53622Y-76322D03*
X53622Y-75322D03*
X53622Y-74322D03*
X53622Y-73322D03*
X53622Y-72322D03*
X53622Y-71322D03*
X53622Y-70322D03*
X53622Y-69322D03*
X53622Y-68322D03*
X53622Y-67322D03*
X53622Y-66322D03*
X53622Y-65322D03*
X53622Y-64322D03*
X53622Y-63322D03*
X53622Y-62322D03*
X53622Y-61322D03*
G54D17*
X45018Y-59322D03*
X45022Y-56326D03*
G54D14*
X43622Y-71322D03*
G54D15*
X43622Y-72322D03*
X43622Y-73322D03*
X43622Y-74322D03*
X43622Y-75322D03*
X43622Y-76322D03*
X43622Y-77322D03*
X43622Y-78322D03*
X43622Y-79322D03*
X43622Y-80322D03*
G54D14*
X57622Y-80322D03*
G54D15*
X57622Y-79322D03*
X57622Y-78322D03*
X57622Y-77322D03*
X57622Y-76322D03*
X57622Y-75322D03*
X57622Y-74322D03*
X57622Y-73322D03*
X57622Y-72322D03*
X57622Y-71322D03*
G54D13*
X65655Y-58395D03*
X65655Y-57395D03*
X66655Y-58395D03*
X66655Y-57395D03*
X67655Y-58395D03*
X67655Y-57395D03*
X68655Y-58395D03*
X68655Y-57395D03*
X69655Y-58395D03*
X69655Y-57395D03*
G54D14*
X60055Y-61395D03*
G54D15*
X60055Y-62395D03*
X60055Y-63395D03*
X60055Y-64395D03*
X60055Y-65395D03*
X60055Y-66395D03*
X60055Y-67395D03*
X60055Y-68395D03*
X60055Y-69395D03*
X60055Y-70395D03*
G54D14*
X74055Y-61395D03*
G54D15*
X74055Y-62395D03*
X74055Y-63395D03*
X74055Y-64395D03*
X74055Y-65395D03*
X74055Y-66395D03*
X74055Y-67395D03*
X74055Y-68395D03*
X74055Y-69395D03*
X74055Y-70395D03*
G54D16*
X66955Y-76995D03*
X66955Y-74995D03*
G54D14*
X64055Y-61395D03*
G54D15*
X64055Y-62395D03*
X64055Y-63395D03*
X64055Y-64395D03*
X64055Y-65395D03*
X64055Y-66395D03*
X64055Y-67395D03*
X64055Y-68395D03*
X64055Y-69395D03*
X64055Y-70395D03*
X64055Y-71395D03*
X64055Y-72395D03*
X64055Y-73395D03*
X64055Y-74395D03*
X64055Y-75395D03*
X64055Y-76395D03*
X64055Y-77395D03*
X64055Y-78395D03*
X64055Y-79395D03*
X64055Y-80395D03*
X70055Y-80395D03*
X70055Y-79395D03*
X70055Y-78395D03*
X70055Y-77395D03*
X70055Y-76395D03*
X70055Y-75395D03*
X70055Y-74395D03*
X70055Y-73395D03*
X70055Y-72395D03*
X70055Y-71395D03*
X70055Y-70395D03*
X70055Y-69395D03*
X70055Y-68395D03*
X70055Y-67395D03*
X70055Y-66395D03*
X70055Y-65395D03*
X70055Y-64395D03*
X70055Y-63395D03*
X70055Y-62395D03*
X70055Y-61395D03*
G54D17*
X61451Y-59395D03*
X61455Y-56399D03*
G54D14*
X60055Y-71395D03*
G54D15*
X60055Y-72395D03*
X60055Y-73395D03*
X60055Y-74395D03*
X60055Y-75395D03*
X60055Y-76395D03*
X60055Y-77395D03*
X60055Y-78395D03*
X60055Y-79395D03*
X60055Y-80395D03*
G54D14*
X74055Y-80395D03*
G54D15*
X74055Y-79395D03*
X74055Y-78395D03*
X74055Y-77395D03*
X74055Y-76395D03*
X74055Y-75395D03*
X74055Y-74395D03*
X74055Y-73395D03*
X74055Y-72395D03*
X74055Y-71395D03*
G54D13*
X49279Y-28495D03*
X49279Y-27495D03*
X50279Y-28495D03*
X50279Y-27495D03*
X51279Y-28495D03*
X51279Y-27495D03*
X52279Y-28495D03*
X52279Y-27495D03*
X53279Y-28495D03*
X53279Y-27495D03*
G54D14*
X43679Y-31495D03*
G54D15*
X43679Y-32495D03*
X43679Y-33495D03*
X43679Y-34495D03*
X43679Y-35495D03*
X43679Y-36495D03*
X43679Y-37495D03*
X43679Y-38495D03*
X43679Y-39495D03*
X43679Y-40495D03*
G54D14*
X57679Y-31495D03*
G54D15*
X57679Y-32495D03*
X57679Y-33495D03*
X57679Y-34495D03*
X57679Y-35495D03*
X57679Y-36495D03*
X57679Y-37495D03*
X57679Y-38495D03*
X57679Y-39495D03*
X57679Y-40495D03*
G54D16*
X50579Y-47095D03*
X50579Y-45095D03*
G54D14*
X47679Y-31495D03*
G54D15*
X47679Y-32495D03*
X47679Y-33495D03*
X47679Y-34495D03*
X47679Y-35495D03*
X47679Y-36495D03*
X47679Y-37495D03*
X47679Y-38495D03*
X47679Y-39495D03*
X47679Y-40495D03*
X47679Y-41495D03*
X47679Y-42495D03*
X47679Y-43495D03*
X47679Y-44495D03*
X47679Y-45495D03*
X47679Y-46495D03*
X47679Y-47495D03*
X47679Y-48495D03*
X47679Y-49495D03*
X47679Y-50495D03*
X53679Y-50495D03*
X53679Y-49495D03*
X53679Y-48495D03*
X53679Y-47495D03*
X53679Y-46495D03*
X53679Y-45495D03*
X53679Y-44495D03*
X53679Y-43495D03*
X53679Y-42495D03*
X53679Y-41495D03*
X53679Y-40495D03*
X53679Y-39495D03*
X53679Y-38495D03*
X53679Y-37495D03*
X53679Y-36495D03*
X53679Y-35495D03*
X53679Y-34495D03*
X53679Y-33495D03*
X53679Y-32495D03*
X53679Y-31495D03*
G54D17*
X45075Y-29495D03*
X45079Y-26499D03*
G54D14*
X43679Y-41495D03*
G54D15*
X43679Y-42495D03*
X43679Y-43495D03*
X43679Y-44495D03*
X43679Y-45495D03*
X43679Y-46495D03*
X43679Y-47495D03*
X43679Y-48495D03*
X43679Y-49495D03*
X43679Y-50495D03*
G54D14*
X57679Y-50495D03*
G54D15*
X57679Y-49495D03*
X57679Y-48495D03*
X57679Y-47495D03*
X57679Y-46495D03*
X57679Y-45495D03*
X57679Y-44495D03*
X57679Y-43495D03*
X57679Y-42495D03*
X57679Y-41495D03*
G54D13*
X65650Y-28600D03*
X65650Y-27600D03*
X66650Y-28600D03*
X66650Y-27600D03*
X67650Y-28600D03*
X67650Y-27600D03*
X68650Y-28600D03*
X68650Y-27600D03*
X69650Y-28600D03*
X69650Y-27600D03*
G54D14*
X60050Y-31600D03*
G54D15*
X60050Y-32600D03*
X60050Y-33600D03*
X60050Y-34600D03*
X60050Y-35600D03*
X60050Y-36600D03*
X60050Y-37600D03*
X60050Y-38600D03*
X60050Y-39600D03*
X60050Y-40600D03*
G54D14*
X74050Y-31600D03*
G54D15*
X74050Y-32600D03*
X74050Y-33600D03*
X74050Y-34600D03*
X74050Y-35600D03*
X74050Y-36600D03*
X74050Y-37600D03*
X74050Y-38600D03*
X74050Y-39600D03*
X74050Y-40600D03*
G54D16*
X66950Y-47200D03*
X66950Y-45200D03*
G54D14*
X64050Y-31600D03*
G54D15*
X64050Y-32600D03*
X64050Y-33600D03*
X64050Y-34600D03*
X64050Y-35600D03*
X64050Y-36600D03*
X64050Y-37600D03*
X64050Y-38600D03*
X64050Y-39600D03*
X64050Y-40600D03*
X64050Y-41600D03*
X64050Y-42600D03*
X64050Y-43600D03*
X64050Y-44600D03*
X64050Y-45600D03*
X64050Y-46600D03*
X64050Y-47600D03*
X64050Y-48600D03*
X64050Y-49600D03*
X64050Y-50600D03*
X70050Y-50600D03*
X70050Y-49600D03*
X70050Y-48600D03*
X70050Y-47600D03*
X70050Y-46600D03*
X70050Y-45600D03*
X70050Y-44600D03*
X70050Y-43600D03*
X70050Y-42600D03*
X70050Y-41600D03*
X70050Y-40600D03*
X70050Y-39600D03*
X70050Y-38600D03*
X70050Y-37600D03*
X70050Y-36600D03*
X70050Y-35600D03*
X70050Y-34600D03*
X70050Y-33600D03*
X70050Y-32600D03*
X70050Y-31600D03*
G54D17*
X61446Y-29600D03*
X61450Y-26604D03*
G54D14*
X60050Y-41600D03*
G54D15*
X60050Y-42600D03*
X60050Y-43600D03*
X60050Y-44600D03*
X60050Y-45600D03*
X60050Y-46600D03*
X60050Y-47600D03*
X60050Y-48600D03*
X60050Y-49600D03*
X60050Y-50600D03*
G54D14*
X74050Y-50600D03*
G54D15*
X74050Y-49600D03*
X74050Y-48600D03*
X74050Y-47600D03*
X74050Y-46600D03*
X74050Y-45600D03*
X74050Y-44600D03*
X74050Y-43600D03*
X74050Y-42600D03*
X74050Y-41600D03*
G54D13*
X114950Y-58600D03*
X114950Y-57600D03*
X115950Y-58600D03*
X115950Y-57600D03*
X116950Y-58600D03*
X116950Y-57600D03*
X117950Y-58600D03*
X117950Y-57600D03*
X118950Y-58600D03*
X118950Y-57600D03*
G54D14*
X109350Y-61600D03*
G54D15*
X109350Y-62600D03*
X109350Y-63600D03*
X109350Y-64600D03*
X109350Y-65600D03*
X109350Y-66600D03*
X109350Y-67600D03*
X109350Y-68600D03*
X109350Y-69600D03*
X109350Y-70600D03*
G54D14*
X123350Y-61600D03*
G54D15*
X123350Y-62600D03*
X123350Y-63600D03*
X123350Y-64600D03*
X123350Y-65600D03*
X123350Y-66600D03*
X123350Y-67600D03*
X123350Y-68600D03*
X123350Y-69600D03*
X123350Y-70600D03*
G54D16*
X116250Y-77200D03*
X116250Y-75200D03*
G54D14*
X113350Y-61600D03*
G54D15*
X113350Y-62600D03*
X113350Y-63600D03*
X113350Y-64600D03*
X113350Y-65600D03*
X113350Y-66600D03*
X113350Y-67600D03*
X113350Y-68600D03*
X113350Y-69600D03*
X113350Y-70600D03*
X113350Y-71600D03*
X113350Y-72600D03*
X113350Y-73600D03*
X113350Y-74600D03*
X113350Y-75600D03*
X113350Y-76600D03*
X113350Y-77600D03*
X113350Y-78600D03*
X113350Y-79600D03*
X113350Y-80600D03*
X119350Y-80600D03*
X119350Y-79600D03*
X119350Y-78600D03*
X119350Y-77600D03*
X119350Y-76600D03*
X119350Y-75600D03*
X119350Y-74600D03*
X119350Y-73600D03*
X119350Y-72600D03*
X119350Y-71600D03*
X119350Y-70600D03*
X119350Y-69600D03*
X119350Y-68600D03*
X119350Y-67600D03*
X119350Y-66600D03*
X119350Y-65600D03*
X119350Y-64600D03*
X119350Y-63600D03*
X119350Y-62600D03*
X119350Y-61600D03*
G54D17*
X110746Y-59600D03*
X110750Y-56604D03*
G54D14*
X109350Y-71600D03*
G54D15*
X109350Y-72600D03*
X109350Y-73600D03*
X109350Y-74600D03*
X109350Y-75600D03*
X109350Y-76600D03*
X109350Y-77600D03*
X109350Y-78600D03*
X109350Y-79600D03*
X109350Y-80600D03*
G54D14*
X123350Y-80600D03*
G54D15*
X123350Y-79600D03*
X123350Y-78600D03*
X123350Y-77600D03*
X123350Y-76600D03*
X123350Y-75600D03*
X123350Y-74600D03*
X123350Y-73600D03*
X123350Y-72600D03*
X123350Y-71600D03*
G54D13*
X115000Y-28500D03*
X115000Y-27500D03*
X116000Y-28500D03*
X116000Y-27500D03*
X117000Y-28500D03*
X117000Y-27500D03*
X118000Y-28500D03*
X118000Y-27500D03*
X119000Y-28500D03*
X119000Y-27500D03*
G54D14*
X109400Y-31500D03*
G54D15*
X109400Y-32500D03*
X109400Y-33500D03*
X109400Y-34500D03*
X109400Y-35500D03*
X109400Y-36500D03*
X109400Y-37500D03*
X109400Y-38500D03*
X109400Y-39500D03*
X109400Y-40500D03*
G54D14*
X123400Y-31500D03*
G54D15*
X123400Y-32500D03*
X123400Y-33500D03*
X123400Y-34500D03*
X123400Y-35500D03*
X123400Y-36500D03*
X123400Y-37500D03*
X123400Y-38500D03*
X123400Y-39500D03*
X123400Y-40500D03*
G54D16*
X116300Y-47100D03*
X116300Y-45100D03*
G54D14*
X113400Y-31500D03*
G54D15*
X113400Y-32500D03*
X113400Y-33500D03*
X113400Y-34500D03*
X113400Y-35500D03*
X113400Y-36500D03*
X113400Y-37500D03*
X113400Y-38500D03*
X113400Y-39500D03*
X113400Y-40500D03*
X113400Y-41500D03*
X113400Y-42500D03*
X113400Y-43500D03*
X113400Y-44500D03*
X113400Y-45500D03*
X113400Y-46500D03*
X113400Y-47500D03*
X113400Y-48500D03*
X113400Y-49500D03*
X113400Y-50500D03*
X119400Y-50500D03*
X119400Y-49500D03*
X119400Y-48500D03*
X119400Y-47500D03*
X119400Y-46500D03*
X119400Y-45500D03*
X119400Y-44500D03*
X119400Y-43500D03*
X119400Y-42500D03*
X119400Y-41500D03*
X119400Y-40500D03*
X119400Y-39500D03*
X119400Y-38500D03*
X119400Y-37500D03*
X119400Y-36500D03*
X119400Y-35500D03*
X119400Y-34500D03*
X119400Y-33500D03*
X119400Y-32500D03*
X119400Y-31500D03*
G54D17*
X110796Y-29500D03*
X110800Y-26504D03*
G54D14*
X109400Y-41500D03*
G54D15*
X109400Y-42500D03*
X109400Y-43500D03*
X109400Y-44500D03*
X109400Y-45500D03*
X109400Y-46500D03*
X109400Y-47500D03*
X109400Y-48500D03*
X109400Y-49500D03*
X109400Y-50500D03*
G54D14*
X123400Y-50500D03*
G54D15*
X123400Y-49500D03*
X123400Y-48500D03*
X123400Y-47500D03*
X123400Y-46500D03*
X123400Y-45500D03*
X123400Y-44500D03*
X123400Y-43500D03*
X123400Y-42500D03*
X123400Y-41500D03*
G54D18*
X82001Y-36595D03*
X98347Y-36589D03*
X98385Y-66741D03*
X82032Y-66635D03*
X49022Y-66422D03*
X65455Y-66495D03*
X49079Y-36595D03*
X65450Y-36700D03*
X114750Y-66700D03*
X114800Y-36600D03*
X88801Y-26195D03*
X105147Y-26189D03*
X105185Y-56341D03*
X88832Y-56235D03*
X55822Y-56022D03*
X72255Y-56095D03*
X55879Y-26195D03*
X72250Y-26300D03*
X121550Y-56300D03*
X121600Y-26200D03*
G54D19*
X86601Y-39495D02*
X84901Y-39495D01*
X84901Y-39495D02*
X83901Y-40495D01*
X83901Y-40495D02*
X80601Y-40495D01*
G54D20*
X83901Y-40495D02*
X80601Y-40495D01*
X84901Y-39495D02*
X83901Y-40495D01*
G54D19*
X102947Y-39489D02*
X101247Y-39489D01*
X101247Y-39489D02*
X100247Y-40489D01*
X100247Y-40489D02*
X96947Y-40489D01*
G54D20*
X100247Y-40489D02*
X96947Y-40489D01*
X101247Y-39489D02*
X100247Y-40489D01*
G54D19*
X102985Y-69641D02*
X101285Y-69641D01*
X101285Y-69641D02*
X100285Y-70641D01*
X100285Y-70641D02*
X96985Y-70641D01*
G54D20*
X100285Y-70641D02*
X96985Y-70641D01*
X101285Y-69641D02*
X100285Y-70641D01*
G54D19*
X86632Y-69535D02*
X84932Y-69535D01*
X84932Y-69535D02*
X83932Y-70535D01*
X83932Y-70535D02*
X80632Y-70535D01*
G54D20*
X83932Y-70535D02*
X80632Y-70535D01*
X84932Y-69535D02*
X83932Y-70535D01*
G54D19*
X53622Y-69322D02*
X51922Y-69322D01*
X51922Y-69322D02*
X50922Y-70322D01*
X50922Y-70322D02*
X47622Y-70322D01*
G54D20*
X50922Y-70322D02*
X47622Y-70322D01*
X51922Y-69322D02*
X50922Y-70322D01*
G54D19*
X70055Y-69395D02*
X68355Y-69395D01*
X68355Y-69395D02*
X67355Y-70395D01*
X67355Y-70395D02*
X64055Y-70395D01*
G54D20*
X67355Y-70395D02*
X64055Y-70395D01*
X68355Y-69395D02*
X67355Y-70395D01*
G54D19*
X53679Y-39495D02*
X51979Y-39495D01*
X51979Y-39495D02*
X50979Y-40495D01*
X50979Y-40495D02*
X47679Y-40495D01*
G54D20*
X50979Y-40495D02*
X47679Y-40495D01*
X51979Y-39495D02*
X50979Y-40495D01*
G54D19*
X70050Y-39600D02*
X68350Y-39600D01*
X68350Y-39600D02*
X67350Y-40600D01*
X67350Y-40600D02*
X64050Y-40600D01*
G54D20*
X67350Y-40600D02*
X64050Y-40600D01*
X68350Y-39600D02*
X67350Y-40600D01*
G54D19*
X119350Y-69600D02*
X117650Y-69600D01*
X117650Y-69600D02*
X116650Y-70600D01*
X116650Y-70600D02*
X113350Y-70600D01*
G54D20*
X116650Y-70600D02*
X113350Y-70600D01*
X117650Y-69600D02*
X116650Y-70600D01*
G54D19*
X119400Y-39500D02*
X117700Y-39500D01*
X117700Y-39500D02*
X116700Y-40500D01*
X116700Y-40500D02*
X113400Y-40500D01*
G54D20*
X116700Y-40500D02*
X113400Y-40500D01*
X117700Y-39500D02*
X116700Y-40500D01*
X80601Y-37495D02*
X83101Y-37495D01*
X84801Y-31395D02*
X86001Y-30195D01*
X84801Y-35795D02*
X84801Y-31395D01*
X83101Y-37495D02*
X84801Y-35795D01*
X86201Y-29995D02*
X86201Y-28495D01*
X86001Y-30195D02*
X86201Y-29995D01*
G54D19*
X80601Y-37495D02*
X80201Y-37495D01*
X80201Y-37495D02*
X78201Y-39495D01*
X78201Y-39495D02*
X76601Y-39495D01*
G54D20*
X96947Y-37489D02*
X99447Y-37489D01*
X101147Y-31389D02*
X102347Y-30189D01*
X101147Y-35789D02*
X101147Y-31389D01*
X99447Y-37489D02*
X101147Y-35789D01*
X102547Y-29989D02*
X102547Y-28489D01*
X102347Y-30189D02*
X102547Y-29989D01*
G54D19*
X96947Y-37489D02*
X96547Y-37489D01*
X96547Y-37489D02*
X94547Y-39489D01*
X94547Y-39489D02*
X92947Y-39489D01*
G54D20*
X96985Y-67641D02*
X99485Y-67641D01*
X101185Y-61541D02*
X102385Y-60341D01*
X101185Y-65941D02*
X101185Y-61541D01*
X99485Y-67641D02*
X101185Y-65941D01*
X102585Y-60141D02*
X102585Y-58641D01*
X102385Y-60341D02*
X102585Y-60141D01*
G54D19*
X96985Y-67641D02*
X96585Y-67641D01*
X96585Y-67641D02*
X94585Y-69641D01*
X94585Y-69641D02*
X92985Y-69641D01*
G54D20*
X80632Y-67535D02*
X83132Y-67535D01*
X84832Y-61435D02*
X86032Y-60235D01*
X84832Y-65835D02*
X84832Y-61435D01*
X83132Y-67535D02*
X84832Y-65835D01*
X86232Y-60035D02*
X86232Y-58535D01*
X86032Y-60235D02*
X86232Y-60035D01*
G54D19*
X80632Y-67535D02*
X80232Y-67535D01*
X80232Y-67535D02*
X78232Y-69535D01*
X78232Y-69535D02*
X76632Y-69535D01*
G54D20*
X47622Y-67322D02*
X50122Y-67322D01*
X51822Y-61222D02*
X53022Y-60022D01*
X51822Y-65622D02*
X51822Y-61222D01*
X50122Y-67322D02*
X51822Y-65622D01*
X53222Y-59822D02*
X53222Y-58322D01*
X53022Y-60022D02*
X53222Y-59822D01*
G54D19*
X47622Y-67322D02*
X47222Y-67322D01*
X47222Y-67322D02*
X45222Y-69322D01*
X45222Y-69322D02*
X43622Y-69322D01*
G54D20*
X64055Y-67395D02*
X66555Y-67395D01*
X68255Y-61295D02*
X69455Y-60095D01*
X68255Y-65695D02*
X68255Y-61295D01*
X66555Y-67395D02*
X68255Y-65695D01*
X69655Y-59895D02*
X69655Y-58395D01*
X69455Y-60095D02*
X69655Y-59895D01*
G54D19*
X64055Y-67395D02*
X63655Y-67395D01*
X63655Y-67395D02*
X61655Y-69395D01*
X61655Y-69395D02*
X60055Y-69395D01*
G54D20*
X47679Y-37495D02*
X50179Y-37495D01*
X51879Y-31395D02*
X53079Y-30195D01*
X51879Y-35795D02*
X51879Y-31395D01*
X50179Y-37495D02*
X51879Y-35795D01*
X53279Y-29995D02*
X53279Y-28495D01*
X53079Y-30195D02*
X53279Y-29995D01*
G54D19*
X47679Y-37495D02*
X47279Y-37495D01*
X47279Y-37495D02*
X45279Y-39495D01*
X45279Y-39495D02*
X43679Y-39495D01*
G54D20*
X64050Y-37600D02*
X66550Y-37600D01*
X68250Y-31500D02*
X69450Y-30300D01*
X68250Y-35900D02*
X68250Y-31500D01*
X66550Y-37600D02*
X68250Y-35900D01*
X69650Y-30100D02*
X69650Y-28600D01*
X69450Y-30300D02*
X69650Y-30100D01*
G54D19*
X64050Y-37600D02*
X63650Y-37600D01*
X63650Y-37600D02*
X61650Y-39600D01*
X61650Y-39600D02*
X60050Y-39600D01*
G54D20*
X113350Y-67600D02*
X115850Y-67600D01*
X117550Y-61500D02*
X118750Y-60300D01*
X117550Y-65900D02*
X117550Y-61500D01*
X115850Y-67600D02*
X117550Y-65900D01*
X118950Y-60100D02*
X118950Y-58600D01*
X118750Y-60300D02*
X118950Y-60100D01*
G54D19*
X113350Y-67600D02*
X112950Y-67600D01*
X112950Y-67600D02*
X110950Y-69600D01*
X110950Y-69600D02*
X109350Y-69600D01*
G54D20*
X113400Y-37500D02*
X115900Y-37500D01*
X117600Y-31400D02*
X118800Y-30200D01*
X117600Y-35800D02*
X117600Y-31400D01*
X115900Y-37500D02*
X117600Y-35800D01*
X119000Y-30000D02*
X119000Y-28500D01*
X118800Y-30200D02*
X119000Y-30000D01*
G54D19*
X113400Y-37500D02*
X113000Y-37500D01*
X113000Y-37500D02*
X111000Y-39500D01*
X111000Y-39500D02*
X109400Y-39500D01*
G54D20*
X82001Y-29995D02*
X82001Y-28695D01*
X82001Y-28695D02*
X82201Y-28495D01*
X82001Y-29995D02*
X82001Y-29295D01*
G54D19*
X80601Y-36495D02*
X80001Y-36495D01*
X80001Y-36495D02*
X78001Y-38495D01*
X80601Y-36495D02*
X80901Y-36495D01*
X82001Y-35395D02*
X82001Y-29995D01*
X82001Y-29995D02*
X82001Y-29595D01*
X80901Y-36495D02*
X82001Y-35395D01*
X78001Y-38495D02*
X76601Y-38495D01*
G54D20*
X98347Y-29989D02*
X98347Y-28689D01*
X98347Y-28689D02*
X98547Y-28489D01*
X98347Y-29989D02*
X98347Y-29289D01*
G54D19*
X96947Y-36489D02*
X96347Y-36489D01*
X96347Y-36489D02*
X94347Y-38489D01*
X96947Y-36489D02*
X97247Y-36489D01*
X98347Y-35389D02*
X98347Y-29989D01*
X98347Y-29989D02*
X98347Y-29589D01*
X97247Y-36489D02*
X98347Y-35389D01*
X94347Y-38489D02*
X92947Y-38489D01*
G54D20*
X98385Y-60141D02*
X98385Y-58841D01*
X98385Y-58841D02*
X98585Y-58641D01*
X98385Y-60141D02*
X98385Y-59441D01*
G54D19*
X96985Y-66641D02*
X96385Y-66641D01*
X96385Y-66641D02*
X94385Y-68641D01*
X96985Y-66641D02*
X97285Y-66641D01*
X98385Y-65541D02*
X98385Y-60141D01*
X98385Y-60141D02*
X98385Y-59741D01*
X97285Y-66641D02*
X98385Y-65541D01*
X94385Y-68641D02*
X92985Y-68641D01*
G54D20*
X82032Y-60035D02*
X82032Y-58735D01*
X82032Y-58735D02*
X82232Y-58535D01*
X82032Y-60035D02*
X82032Y-59335D01*
G54D19*
X80632Y-66535D02*
X80032Y-66535D01*
X80032Y-66535D02*
X78032Y-68535D01*
X80632Y-66535D02*
X80932Y-66535D01*
X82032Y-65435D02*
X82032Y-60035D01*
X82032Y-60035D02*
X82032Y-59635D01*
X80932Y-66535D02*
X82032Y-65435D01*
X78032Y-68535D02*
X76632Y-68535D01*
G54D20*
X49022Y-59822D02*
X49022Y-58522D01*
X49022Y-58522D02*
X49222Y-58322D01*
X49022Y-59822D02*
X49022Y-59122D01*
G54D19*
X47622Y-66322D02*
X47022Y-66322D01*
X47022Y-66322D02*
X45022Y-68322D01*
X47622Y-66322D02*
X47922Y-66322D01*
X49022Y-65222D02*
X49022Y-59822D01*
X49022Y-59822D02*
X49022Y-59422D01*
X47922Y-66322D02*
X49022Y-65222D01*
X45022Y-68322D02*
X43622Y-68322D01*
G54D20*
X65455Y-59895D02*
X65455Y-58595D01*
X65455Y-58595D02*
X65655Y-58395D01*
X65455Y-59895D02*
X65455Y-59195D01*
G54D19*
X64055Y-66395D02*
X63455Y-66395D01*
X63455Y-66395D02*
X61455Y-68395D01*
X64055Y-66395D02*
X64355Y-66395D01*
X65455Y-65295D02*
X65455Y-59895D01*
X65455Y-59895D02*
X65455Y-59495D01*
X64355Y-66395D02*
X65455Y-65295D01*
X61455Y-68395D02*
X60055Y-68395D01*
G54D20*
X49079Y-29995D02*
X49079Y-28695D01*
X49079Y-28695D02*
X49279Y-28495D01*
X49079Y-29995D02*
X49079Y-29295D01*
G54D19*
X47679Y-36495D02*
X47079Y-36495D01*
X47079Y-36495D02*
X45079Y-38495D01*
X47679Y-36495D02*
X47979Y-36495D01*
X49079Y-35395D02*
X49079Y-29995D01*
X49079Y-29995D02*
X49079Y-29595D01*
X47979Y-36495D02*
X49079Y-35395D01*
X45079Y-38495D02*
X43679Y-38495D01*
G54D20*
X65450Y-30100D02*
X65450Y-28800D01*
X65450Y-28800D02*
X65650Y-28600D01*
X65450Y-30100D02*
X65450Y-29400D01*
G54D19*
X64050Y-36600D02*
X63450Y-36600D01*
X63450Y-36600D02*
X61450Y-38600D01*
X64050Y-36600D02*
X64350Y-36600D01*
X65450Y-35500D02*
X65450Y-30100D01*
X65450Y-30100D02*
X65450Y-29700D01*
X64350Y-36600D02*
X65450Y-35500D01*
X61450Y-38600D02*
X60050Y-38600D01*
G54D20*
X114750Y-60100D02*
X114750Y-58800D01*
X114750Y-58800D02*
X114950Y-58600D01*
X114750Y-60100D02*
X114750Y-59400D01*
G54D19*
X113350Y-66600D02*
X112750Y-66600D01*
X112750Y-66600D02*
X110750Y-68600D01*
X113350Y-66600D02*
X113650Y-66600D01*
X114750Y-65500D02*
X114750Y-60100D01*
X114750Y-60100D02*
X114750Y-59700D01*
X113650Y-66600D02*
X114750Y-65500D01*
X110750Y-68600D02*
X109350Y-68600D01*
G54D20*
X114800Y-30000D02*
X114800Y-28700D01*
X114800Y-28700D02*
X115000Y-28500D01*
X114800Y-30000D02*
X114800Y-29300D01*
G54D19*
X113400Y-36500D02*
X112800Y-36500D01*
X112800Y-36500D02*
X110800Y-38500D01*
X113400Y-36500D02*
X113700Y-36500D01*
X114800Y-35400D02*
X114800Y-30000D01*
X114800Y-30000D02*
X114800Y-29600D01*
X113700Y-36500D02*
X114800Y-35400D01*
X110800Y-38500D02*
X109400Y-38500D01*
X79801Y-44495D02*
X80601Y-44495D01*
X76601Y-43495D02*
X78801Y-43495D01*
X78801Y-43495D02*
X79801Y-44495D01*
X96147Y-44489D02*
X96947Y-44489D01*
X92947Y-43489D02*
X95147Y-43489D01*
X95147Y-43489D02*
X96147Y-44489D01*
X96185Y-74641D02*
X96985Y-74641D01*
X92985Y-73641D02*
X95185Y-73641D01*
X95185Y-73641D02*
X96185Y-74641D01*
X79832Y-74535D02*
X80632Y-74535D01*
X76632Y-73535D02*
X78832Y-73535D01*
X78832Y-73535D02*
X79832Y-74535D01*
X46822Y-74322D02*
X47622Y-74322D01*
X43622Y-73322D02*
X45822Y-73322D01*
X45822Y-73322D02*
X46822Y-74322D01*
X63255Y-74395D02*
X64055Y-74395D01*
X60055Y-73395D02*
X62255Y-73395D01*
X62255Y-73395D02*
X63255Y-74395D01*
X46879Y-44495D02*
X47679Y-44495D01*
X43679Y-43495D02*
X45879Y-43495D01*
X45879Y-43495D02*
X46879Y-44495D01*
X63250Y-44600D02*
X64050Y-44600D01*
X60050Y-43600D02*
X62250Y-43600D01*
X62250Y-43600D02*
X63250Y-44600D01*
X112550Y-74600D02*
X113350Y-74600D01*
X109350Y-73600D02*
X111550Y-73600D01*
X111550Y-73600D02*
X112550Y-74600D01*
X112600Y-44500D02*
X113400Y-44500D01*
X109400Y-43500D02*
X111600Y-43500D01*
X111600Y-43500D02*
X112600Y-44500D01*
G54D20*
X83401Y-35195D02*
X83401Y-30995D01*
X83401Y-30995D02*
X84601Y-29795D01*
X84201Y-30195D02*
X84601Y-29795D01*
X85201Y-29195D02*
X85201Y-28495D01*
X84601Y-29795D02*
X85201Y-29195D01*
G54D19*
X78201Y-40495D02*
X76601Y-40495D01*
X80601Y-38495D02*
X80201Y-38495D01*
X80201Y-38495D02*
X78201Y-40495D01*
X83401Y-35195D02*
X82001Y-36595D01*
G54D20*
X99747Y-35189D02*
X99747Y-30989D01*
X99747Y-30989D02*
X100947Y-29789D01*
X100547Y-30189D02*
X100947Y-29789D01*
X101547Y-29189D02*
X101547Y-28489D01*
X100947Y-29789D02*
X101547Y-29189D01*
G54D19*
X94547Y-40489D02*
X92947Y-40489D01*
X96947Y-38489D02*
X96547Y-38489D01*
X96547Y-38489D02*
X94547Y-40489D01*
X99747Y-35189D02*
X98347Y-36589D01*
G54D20*
X99785Y-65341D02*
X99785Y-61141D01*
X99785Y-61141D02*
X100985Y-59941D01*
X100585Y-60341D02*
X100985Y-59941D01*
X101585Y-59341D02*
X101585Y-58641D01*
X100985Y-59941D02*
X101585Y-59341D01*
G54D19*
X94585Y-70641D02*
X92985Y-70641D01*
X96985Y-68641D02*
X96585Y-68641D01*
X96585Y-68641D02*
X94585Y-70641D01*
X99785Y-65341D02*
X98385Y-66741D01*
G54D20*
X83432Y-65235D02*
X83432Y-61035D01*
X83432Y-61035D02*
X84632Y-59835D01*
X84232Y-60235D02*
X84632Y-59835D01*
X85232Y-59235D02*
X85232Y-58535D01*
X84632Y-59835D02*
X85232Y-59235D01*
G54D19*
X78232Y-70535D02*
X76632Y-70535D01*
X80632Y-68535D02*
X80232Y-68535D01*
X80232Y-68535D02*
X78232Y-70535D01*
X83432Y-65235D02*
X82032Y-66635D01*
G54D20*
X50422Y-65022D02*
X50422Y-60822D01*
X50422Y-60822D02*
X51622Y-59622D01*
X51222Y-60022D02*
X51622Y-59622D01*
X52222Y-59022D02*
X52222Y-58322D01*
X51622Y-59622D02*
X52222Y-59022D01*
G54D19*
X45222Y-70322D02*
X43622Y-70322D01*
X47622Y-68322D02*
X47222Y-68322D01*
X47222Y-68322D02*
X45222Y-70322D01*
X50422Y-65022D02*
X49022Y-66422D01*
G54D20*
X66855Y-65095D02*
X66855Y-60895D01*
X66855Y-60895D02*
X68055Y-59695D01*
X67655Y-60095D02*
X68055Y-59695D01*
X68655Y-59095D02*
X68655Y-58395D01*
X68055Y-59695D02*
X68655Y-59095D01*
G54D19*
X61655Y-70395D02*
X60055Y-70395D01*
X64055Y-68395D02*
X63655Y-68395D01*
X63655Y-68395D02*
X61655Y-70395D01*
X66855Y-65095D02*
X65455Y-66495D01*
G54D20*
X50479Y-35195D02*
X50479Y-30995D01*
X50479Y-30995D02*
X51679Y-29795D01*
X51279Y-30195D02*
X51679Y-29795D01*
X52279Y-29195D02*
X52279Y-28495D01*
X51679Y-29795D02*
X52279Y-29195D01*
G54D19*
X45279Y-40495D02*
X43679Y-40495D01*
X47679Y-38495D02*
X47279Y-38495D01*
X47279Y-38495D02*
X45279Y-40495D01*
X50479Y-35195D02*
X49079Y-36595D01*
G54D20*
X66850Y-35300D02*
X66850Y-31100D01*
X66850Y-31100D02*
X68050Y-29900D01*
X67650Y-30300D02*
X68050Y-29900D01*
X68650Y-29300D02*
X68650Y-28600D01*
X68050Y-29900D02*
X68650Y-29300D01*
G54D19*
X61650Y-40600D02*
X60050Y-40600D01*
X64050Y-38600D02*
X63650Y-38600D01*
X63650Y-38600D02*
X61650Y-40600D01*
X66850Y-35300D02*
X65450Y-36700D01*
G54D20*
X116150Y-65300D02*
X116150Y-61100D01*
X116150Y-61100D02*
X117350Y-59900D01*
X116950Y-60300D02*
X117350Y-59900D01*
X117950Y-59300D02*
X117950Y-58600D01*
X117350Y-59900D02*
X117950Y-59300D01*
G54D19*
X110950Y-70600D02*
X109350Y-70600D01*
X113350Y-68600D02*
X112950Y-68600D01*
X112950Y-68600D02*
X110950Y-70600D01*
X116150Y-65300D02*
X114750Y-66700D01*
G54D20*
X116200Y-35200D02*
X116200Y-31000D01*
X116200Y-31000D02*
X117400Y-29800D01*
X117000Y-30200D02*
X117400Y-29800D01*
X118000Y-29200D02*
X118000Y-28500D01*
X117400Y-29800D02*
X118000Y-29200D01*
G54D19*
X111000Y-40500D02*
X109400Y-40500D01*
X113400Y-38500D02*
X113000Y-38500D01*
X113000Y-38500D02*
X111000Y-40500D01*
X116200Y-35200D02*
X114800Y-36600D01*
X76601Y-44495D02*
X78701Y-44495D01*
X78701Y-44495D02*
X79701Y-45495D01*
X79701Y-45495D02*
X80601Y-45495D01*
X92947Y-44489D02*
X95047Y-44489D01*
X95047Y-44489D02*
X96047Y-45489D01*
X96047Y-45489D02*
X96947Y-45489D01*
X92985Y-74641D02*
X95085Y-74641D01*
X95085Y-74641D02*
X96085Y-75641D01*
X96085Y-75641D02*
X96985Y-75641D01*
X76632Y-74535D02*
X78732Y-74535D01*
X78732Y-74535D02*
X79732Y-75535D01*
X79732Y-75535D02*
X80632Y-75535D01*
X43622Y-74322D02*
X45722Y-74322D01*
X45722Y-74322D02*
X46722Y-75322D01*
X46722Y-75322D02*
X47622Y-75322D01*
X60055Y-74395D02*
X62155Y-74395D01*
X62155Y-74395D02*
X63155Y-75395D01*
X63155Y-75395D02*
X64055Y-75395D01*
X43679Y-44495D02*
X45779Y-44495D01*
X45779Y-44495D02*
X46779Y-45495D01*
X46779Y-45495D02*
X47679Y-45495D01*
X60050Y-44600D02*
X62150Y-44600D01*
X62150Y-44600D02*
X63150Y-45600D01*
X63150Y-45600D02*
X64050Y-45600D01*
X109350Y-74600D02*
X111450Y-74600D01*
X111450Y-74600D02*
X112450Y-75600D01*
X112450Y-75600D02*
X113350Y-75600D01*
X109400Y-44500D02*
X111500Y-44500D01*
X111500Y-44500D02*
X112500Y-45500D01*
X112500Y-45500D02*
X113400Y-45500D01*
X80601Y-39495D02*
X80201Y-39495D01*
X80201Y-39495D02*
X77201Y-42495D01*
X77201Y-42495D02*
X76601Y-42495D01*
X96947Y-39489D02*
X96547Y-39489D01*
X96547Y-39489D02*
X93547Y-42489D01*
X93547Y-42489D02*
X92947Y-42489D01*
X96985Y-69641D02*
X96585Y-69641D01*
X96585Y-69641D02*
X93585Y-72641D01*
X93585Y-72641D02*
X92985Y-72641D01*
X80632Y-69535D02*
X80232Y-69535D01*
X80232Y-69535D02*
X77232Y-72535D01*
X77232Y-72535D02*
X76632Y-72535D01*
X47622Y-69322D02*
X47222Y-69322D01*
X47222Y-69322D02*
X44222Y-72322D01*
X44222Y-72322D02*
X43622Y-72322D01*
X64055Y-69395D02*
X63655Y-69395D01*
X63655Y-69395D02*
X60655Y-72395D01*
X60655Y-72395D02*
X60055Y-72395D01*
X47679Y-39495D02*
X47279Y-39495D01*
X47279Y-39495D02*
X44279Y-42495D01*
X44279Y-42495D02*
X43679Y-42495D01*
X64050Y-39600D02*
X63650Y-39600D01*
X63650Y-39600D02*
X60650Y-42600D01*
X60650Y-42600D02*
X60050Y-42600D01*
X113350Y-69600D02*
X112950Y-69600D01*
X112950Y-69600D02*
X109950Y-72600D01*
X109950Y-72600D02*
X109350Y-72600D01*
X113400Y-39500D02*
X113000Y-39500D01*
X113000Y-39500D02*
X110000Y-42500D01*
X110000Y-42500D02*
X109400Y-42500D01*
G54D20*
X87501Y-27495D02*
X88801Y-26195D01*
X83201Y-27495D02*
X83201Y-26395D01*
X78505Y-25995D02*
X78001Y-26499D01*
X82801Y-25995D02*
X78505Y-25995D01*
X83201Y-26395D02*
X82801Y-25995D01*
X86201Y-27495D02*
X87501Y-27495D01*
X85201Y-27495D02*
X86201Y-27495D01*
X84201Y-27495D02*
X85201Y-27495D01*
X83201Y-27495D02*
X84201Y-27495D01*
X90601Y-32495D02*
X90101Y-32495D01*
X90101Y-32495D02*
X87801Y-30195D01*
X87801Y-30195D02*
X87801Y-27795D01*
X87801Y-27795D02*
X87501Y-27495D01*
X89401Y-31795D02*
X90101Y-32495D01*
X103847Y-27489D02*
X105147Y-26189D01*
X99547Y-27489D02*
X99547Y-26389D01*
X94851Y-25989D02*
X94347Y-26493D01*
X99147Y-25989D02*
X94851Y-25989D01*
X99547Y-26389D02*
X99147Y-25989D01*
X102547Y-27489D02*
X103847Y-27489D01*
X101547Y-27489D02*
X102547Y-27489D01*
X100547Y-27489D02*
X101547Y-27489D01*
X99547Y-27489D02*
X100547Y-27489D01*
X106947Y-32489D02*
X106447Y-32489D01*
X106447Y-32489D02*
X104147Y-30189D01*
X104147Y-30189D02*
X104147Y-27789D01*
X104147Y-27789D02*
X103847Y-27489D01*
X105747Y-31789D02*
X106447Y-32489D01*
X103885Y-57641D02*
X105185Y-56341D01*
X99585Y-57641D02*
X99585Y-56541D01*
X94889Y-56141D02*
X94385Y-56645D01*
X99185Y-56141D02*
X94889Y-56141D01*
X99585Y-56541D02*
X99185Y-56141D01*
X102585Y-57641D02*
X103885Y-57641D01*
X101585Y-57641D02*
X102585Y-57641D01*
X100585Y-57641D02*
X101585Y-57641D01*
X99585Y-57641D02*
X100585Y-57641D01*
X106985Y-62641D02*
X106485Y-62641D01*
X106485Y-62641D02*
X104185Y-60341D01*
X104185Y-60341D02*
X104185Y-57941D01*
X104185Y-57941D02*
X103885Y-57641D01*
X105785Y-61941D02*
X106485Y-62641D01*
X87532Y-57535D02*
X88832Y-56235D01*
X83232Y-57535D02*
X83232Y-56435D01*
X78536Y-56035D02*
X78032Y-56539D01*
X82832Y-56035D02*
X78536Y-56035D01*
X83232Y-56435D02*
X82832Y-56035D01*
X86232Y-57535D02*
X87532Y-57535D01*
X85232Y-57535D02*
X86232Y-57535D01*
X84232Y-57535D02*
X85232Y-57535D01*
X83232Y-57535D02*
X84232Y-57535D01*
X90632Y-62535D02*
X90132Y-62535D01*
X90132Y-62535D02*
X87832Y-60235D01*
X87832Y-60235D02*
X87832Y-57835D01*
X87832Y-57835D02*
X87532Y-57535D01*
X89432Y-61835D02*
X90132Y-62535D01*
X54522Y-57322D02*
X55822Y-56022D01*
X50222Y-57322D02*
X50222Y-56222D01*
X45526Y-55822D02*
X45022Y-56326D01*
X49822Y-55822D02*
X45526Y-55822D01*
X50222Y-56222D02*
X49822Y-55822D01*
X53222Y-57322D02*
X54522Y-57322D01*
X52222Y-57322D02*
X53222Y-57322D01*
X51222Y-57322D02*
X52222Y-57322D01*
X50222Y-57322D02*
X51222Y-57322D01*
X57622Y-62322D02*
X57122Y-62322D01*
X57122Y-62322D02*
X54822Y-60022D01*
X54822Y-60022D02*
X54822Y-57622D01*
X54822Y-57622D02*
X54522Y-57322D01*
X56422Y-61622D02*
X57122Y-62322D01*
X70955Y-57395D02*
X72255Y-56095D01*
X66655Y-57395D02*
X66655Y-56295D01*
X61959Y-55895D02*
X61455Y-56399D01*
X66255Y-55895D02*
X61959Y-55895D01*
X66655Y-56295D02*
X66255Y-55895D01*
X69655Y-57395D02*
X70955Y-57395D01*
X68655Y-57395D02*
X69655Y-57395D01*
X67655Y-57395D02*
X68655Y-57395D01*
X66655Y-57395D02*
X67655Y-57395D01*
X74055Y-62395D02*
X73555Y-62395D01*
X73555Y-62395D02*
X71255Y-60095D01*
X71255Y-60095D02*
X71255Y-57695D01*
X71255Y-57695D02*
X70955Y-57395D01*
X72855Y-61695D02*
X73555Y-62395D01*
X54579Y-27495D02*
X55879Y-26195D01*
X50279Y-27495D02*
X50279Y-26395D01*
X45583Y-25995D02*
X45079Y-26499D01*
X49879Y-25995D02*
X45583Y-25995D01*
X50279Y-26395D02*
X49879Y-25995D01*
X53279Y-27495D02*
X54579Y-27495D01*
X52279Y-27495D02*
X53279Y-27495D01*
X51279Y-27495D02*
X52279Y-27495D01*
X50279Y-27495D02*
X51279Y-27495D01*
X57679Y-32495D02*
X57179Y-32495D01*
X57179Y-32495D02*
X54879Y-30195D01*
X54879Y-30195D02*
X54879Y-27795D01*
X54879Y-27795D02*
X54579Y-27495D01*
X56479Y-31795D02*
X57179Y-32495D01*
X70950Y-27600D02*
X72250Y-26300D01*
X66650Y-27600D02*
X66650Y-26500D01*
X61954Y-26100D02*
X61450Y-26604D01*
X66250Y-26100D02*
X61954Y-26100D01*
X66650Y-26500D02*
X66250Y-26100D01*
X69650Y-27600D02*
X70950Y-27600D01*
X68650Y-27600D02*
X69650Y-27600D01*
X67650Y-27600D02*
X68650Y-27600D01*
X66650Y-27600D02*
X67650Y-27600D01*
X74050Y-32600D02*
X73550Y-32600D01*
X73550Y-32600D02*
X71250Y-30300D01*
X71250Y-30300D02*
X71250Y-27900D01*
X71250Y-27900D02*
X70950Y-27600D01*
X72850Y-31900D02*
X73550Y-32600D01*
X120250Y-57600D02*
X121550Y-56300D01*
X115950Y-57600D02*
X115950Y-56500D01*
X111254Y-56100D02*
X110750Y-56604D01*
X115550Y-56100D02*
X111254Y-56100D01*
X115950Y-56500D02*
X115550Y-56100D01*
X118950Y-57600D02*
X120250Y-57600D01*
X117950Y-57600D02*
X118950Y-57600D01*
X116950Y-57600D02*
X117950Y-57600D01*
X115950Y-57600D02*
X116950Y-57600D01*
X123350Y-62600D02*
X122850Y-62600D01*
X122850Y-62600D02*
X120550Y-60300D01*
X120550Y-60300D02*
X120550Y-57900D01*
X120550Y-57900D02*
X120250Y-57600D01*
X122150Y-61900D02*
X122850Y-62600D01*
X120300Y-27500D02*
X121600Y-26200D01*
X116000Y-27500D02*
X116000Y-26400D01*
X111304Y-26000D02*
X110800Y-26504D01*
X115600Y-26000D02*
X111304Y-26000D01*
X116000Y-26400D02*
X115600Y-26000D01*
X119000Y-27500D02*
X120300Y-27500D01*
X118000Y-27500D02*
X119000Y-27500D01*
X117000Y-27500D02*
X118000Y-27500D01*
X116000Y-27500D02*
X117000Y-27500D01*
X123400Y-32500D02*
X122900Y-32500D01*
X122900Y-32500D02*
X120600Y-30200D01*
X120600Y-30200D02*
X120600Y-27800D01*
X120600Y-27800D02*
X120300Y-27500D01*
X122200Y-31800D02*
X122900Y-32500D01*
G54D19*
X86601Y-31495D02*
X87901Y-31495D01*
X87901Y-31495D02*
X89901Y-33495D01*
X89901Y-33495D02*
X90601Y-33495D01*
X102947Y-31489D02*
X104247Y-31489D01*
X104247Y-31489D02*
X106247Y-33489D01*
X106247Y-33489D02*
X106947Y-33489D01*
X102985Y-61641D02*
X104285Y-61641D01*
X104285Y-61641D02*
X106285Y-63641D01*
X106285Y-63641D02*
X106985Y-63641D01*
X86632Y-61535D02*
X87932Y-61535D01*
X87932Y-61535D02*
X89932Y-63535D01*
X89932Y-63535D02*
X90632Y-63535D01*
X53622Y-61322D02*
X54922Y-61322D01*
X54922Y-61322D02*
X56922Y-63322D01*
X56922Y-63322D02*
X57622Y-63322D01*
X70055Y-61395D02*
X71355Y-61395D01*
X71355Y-61395D02*
X73355Y-63395D01*
X73355Y-63395D02*
X74055Y-63395D01*
X53679Y-31495D02*
X54979Y-31495D01*
X54979Y-31495D02*
X56979Y-33495D01*
X56979Y-33495D02*
X57679Y-33495D01*
X70050Y-31600D02*
X71350Y-31600D01*
X71350Y-31600D02*
X73350Y-33600D01*
X73350Y-33600D02*
X74050Y-33600D01*
X119350Y-61600D02*
X120650Y-61600D01*
X120650Y-61600D02*
X122650Y-63600D01*
X122650Y-63600D02*
X123350Y-63600D01*
X119400Y-31500D02*
X120700Y-31500D01*
X120700Y-31500D02*
X122700Y-33500D01*
X122700Y-33500D02*
X123400Y-33500D01*
X86601Y-35495D02*
X87601Y-35495D01*
X87601Y-35495D02*
X89601Y-37495D01*
X89601Y-37495D02*
X90601Y-37495D01*
X102947Y-35489D02*
X103947Y-35489D01*
X103947Y-35489D02*
X105947Y-37489D01*
X105947Y-37489D02*
X106947Y-37489D01*
X102985Y-65641D02*
X103985Y-65641D01*
X103985Y-65641D02*
X105985Y-67641D01*
X105985Y-67641D02*
X106985Y-67641D01*
X86632Y-65535D02*
X87632Y-65535D01*
X87632Y-65535D02*
X89632Y-67535D01*
X89632Y-67535D02*
X90632Y-67535D01*
X53622Y-65322D02*
X54622Y-65322D01*
X54622Y-65322D02*
X56622Y-67322D01*
X56622Y-67322D02*
X57622Y-67322D01*
X70055Y-65395D02*
X71055Y-65395D01*
X71055Y-65395D02*
X73055Y-67395D01*
X73055Y-67395D02*
X74055Y-67395D01*
X53679Y-35495D02*
X54679Y-35495D01*
X54679Y-35495D02*
X56679Y-37495D01*
X56679Y-37495D02*
X57679Y-37495D01*
X70050Y-35600D02*
X71050Y-35600D01*
X71050Y-35600D02*
X73050Y-37600D01*
X73050Y-37600D02*
X74050Y-37600D01*
X119350Y-65600D02*
X120350Y-65600D01*
X120350Y-65600D02*
X122350Y-67600D01*
X122350Y-67600D02*
X123350Y-67600D01*
X119400Y-35500D02*
X120400Y-35500D01*
X120400Y-35500D02*
X122400Y-37500D01*
X122400Y-37500D02*
X123400Y-37500D01*
X89701Y-40495D02*
X90601Y-40495D01*
X86601Y-38495D02*
X87701Y-38495D01*
X87701Y-38495D02*
X89701Y-40495D01*
X106047Y-40489D02*
X106947Y-40489D01*
X102947Y-38489D02*
X104047Y-38489D01*
X104047Y-38489D02*
X106047Y-40489D01*
X106085Y-70641D02*
X106985Y-70641D01*
X102985Y-68641D02*
X104085Y-68641D01*
X104085Y-68641D02*
X106085Y-70641D01*
X89732Y-70535D02*
X90632Y-70535D01*
X86632Y-68535D02*
X87732Y-68535D01*
X87732Y-68535D02*
X89732Y-70535D01*
X56722Y-70322D02*
X57622Y-70322D01*
X53622Y-68322D02*
X54722Y-68322D01*
X54722Y-68322D02*
X56722Y-70322D01*
X73155Y-70395D02*
X74055Y-70395D01*
X70055Y-68395D02*
X71155Y-68395D01*
X71155Y-68395D02*
X73155Y-70395D01*
X56779Y-40495D02*
X57679Y-40495D01*
X53679Y-38495D02*
X54779Y-38495D01*
X54779Y-38495D02*
X56779Y-40495D01*
X73150Y-40600D02*
X74050Y-40600D01*
X70050Y-38600D02*
X71150Y-38600D01*
X71150Y-38600D02*
X73150Y-40600D01*
X122450Y-70600D02*
X123350Y-70600D01*
X119350Y-68600D02*
X120450Y-68600D01*
X120450Y-68600D02*
X122450Y-70600D01*
X122500Y-40500D02*
X123400Y-40500D01*
X119400Y-38500D02*
X120500Y-38500D01*
X120500Y-38500D02*
X122500Y-40500D01*
X89701Y-39495D02*
X90601Y-39495D01*
X86601Y-37495D02*
X87701Y-37495D01*
X87701Y-37495D02*
X89701Y-39495D01*
X106047Y-39489D02*
X106947Y-39489D01*
X102947Y-37489D02*
X104047Y-37489D01*
X104047Y-37489D02*
X106047Y-39489D01*
X106085Y-69641D02*
X106985Y-69641D01*
X102985Y-67641D02*
X104085Y-67641D01*
X104085Y-67641D02*
X106085Y-69641D01*
X89732Y-69535D02*
X90632Y-69535D01*
X86632Y-67535D02*
X87732Y-67535D01*
X87732Y-67535D02*
X89732Y-69535D01*
X56722Y-69322D02*
X57622Y-69322D01*
X53622Y-67322D02*
X54722Y-67322D01*
X54722Y-67322D02*
X56722Y-69322D01*
X73155Y-69395D02*
X74055Y-69395D01*
X70055Y-67395D02*
X71155Y-67395D01*
X71155Y-67395D02*
X73155Y-69395D01*
X56779Y-39495D02*
X57679Y-39495D01*
X53679Y-37495D02*
X54779Y-37495D01*
X54779Y-37495D02*
X56779Y-39495D01*
X73150Y-39600D02*
X74050Y-39600D01*
X70050Y-37600D02*
X71150Y-37600D01*
X71150Y-37600D02*
X73150Y-39600D01*
X122450Y-69600D02*
X123350Y-69600D01*
X119350Y-67600D02*
X120450Y-67600D01*
X120450Y-67600D02*
X122450Y-69600D01*
X122500Y-39500D02*
X123400Y-39500D01*
X119400Y-37500D02*
X120500Y-37500D01*
X120500Y-37500D02*
X122500Y-39500D01*
X89601Y-38495D02*
X90601Y-38495D01*
X86601Y-36495D02*
X87601Y-36495D01*
X87601Y-36495D02*
X89601Y-38495D01*
X105947Y-38489D02*
X106947Y-38489D01*
X102947Y-36489D02*
X103947Y-36489D01*
X103947Y-36489D02*
X105947Y-38489D01*
X105985Y-68641D02*
X106985Y-68641D01*
X102985Y-66641D02*
X103985Y-66641D01*
X103985Y-66641D02*
X105985Y-68641D01*
X89632Y-68535D02*
X90632Y-68535D01*
X86632Y-66535D02*
X87632Y-66535D01*
X87632Y-66535D02*
X89632Y-68535D01*
X56622Y-68322D02*
X57622Y-68322D01*
X53622Y-66322D02*
X54622Y-66322D01*
X54622Y-66322D02*
X56622Y-68322D01*
X73055Y-68395D02*
X74055Y-68395D01*
X70055Y-66395D02*
X71055Y-66395D01*
X71055Y-66395D02*
X73055Y-68395D01*
X56679Y-38495D02*
X57679Y-38495D01*
X53679Y-36495D02*
X54679Y-36495D01*
X54679Y-36495D02*
X56679Y-38495D01*
X73050Y-38600D02*
X74050Y-38600D01*
X70050Y-36600D02*
X71050Y-36600D01*
X71050Y-36600D02*
X73050Y-38600D01*
X122350Y-68600D02*
X123350Y-68600D01*
X119350Y-66600D02*
X120350Y-66600D01*
X120350Y-66600D02*
X122350Y-68600D01*
X122400Y-38500D02*
X123400Y-38500D01*
X119400Y-36500D02*
X120400Y-36500D01*
X120400Y-36500D02*
X122400Y-38500D01*
X79601Y-46495D02*
X80601Y-46495D01*
X78601Y-45495D02*
X79601Y-46495D01*
X76601Y-45495D02*
X78601Y-45495D01*
X95947Y-46489D02*
X96947Y-46489D01*
X94947Y-45489D02*
X95947Y-46489D01*
X92947Y-45489D02*
X94947Y-45489D01*
X95985Y-76641D02*
X96985Y-76641D01*
X94985Y-75641D02*
X95985Y-76641D01*
X92985Y-75641D02*
X94985Y-75641D01*
X79632Y-76535D02*
X80632Y-76535D01*
X78632Y-75535D02*
X79632Y-76535D01*
X76632Y-75535D02*
X78632Y-75535D01*
X46622Y-76322D02*
X47622Y-76322D01*
X45622Y-75322D02*
X46622Y-76322D01*
X43622Y-75322D02*
X45622Y-75322D01*
X63055Y-76395D02*
X64055Y-76395D01*
X62055Y-75395D02*
X63055Y-76395D01*
X60055Y-75395D02*
X62055Y-75395D01*
X46679Y-46495D02*
X47679Y-46495D01*
X45679Y-45495D02*
X46679Y-46495D01*
X43679Y-45495D02*
X45679Y-45495D01*
X63050Y-46600D02*
X64050Y-46600D01*
X62050Y-45600D02*
X63050Y-46600D01*
X60050Y-45600D02*
X62050Y-45600D01*
X112350Y-76600D02*
X113350Y-76600D01*
X111350Y-75600D02*
X112350Y-76600D01*
X109350Y-75600D02*
X111350Y-75600D01*
X112400Y-46500D02*
X113400Y-46500D01*
X111400Y-45500D02*
X112400Y-46500D01*
X109400Y-45500D02*
X111400Y-45500D01*
X76601Y-48495D02*
X77901Y-48495D01*
X77901Y-48495D02*
X78901Y-49495D01*
X78901Y-49495D02*
X80601Y-49495D01*
X92947Y-48489D02*
X94247Y-48489D01*
X94247Y-48489D02*
X95247Y-49489D01*
X95247Y-49489D02*
X96947Y-49489D01*
X92985Y-78641D02*
X94285Y-78641D01*
X94285Y-78641D02*
X95285Y-79641D01*
X95285Y-79641D02*
X96985Y-79641D01*
X76632Y-78535D02*
X77932Y-78535D01*
X77932Y-78535D02*
X78932Y-79535D01*
X78932Y-79535D02*
X80632Y-79535D01*
X43622Y-78322D02*
X44922Y-78322D01*
X44922Y-78322D02*
X45922Y-79322D01*
X45922Y-79322D02*
X47622Y-79322D01*
X60055Y-78395D02*
X61355Y-78395D01*
X61355Y-78395D02*
X62355Y-79395D01*
X62355Y-79395D02*
X64055Y-79395D01*
X43679Y-48495D02*
X44979Y-48495D01*
X44979Y-48495D02*
X45979Y-49495D01*
X45979Y-49495D02*
X47679Y-49495D01*
X60050Y-48600D02*
X61350Y-48600D01*
X61350Y-48600D02*
X62350Y-49600D01*
X62350Y-49600D02*
X64050Y-49600D01*
X109350Y-78600D02*
X110650Y-78600D01*
X110650Y-78600D02*
X111650Y-79600D01*
X111650Y-79600D02*
X113350Y-79600D01*
X109400Y-48500D02*
X110700Y-48500D01*
X110700Y-48500D02*
X111700Y-49500D01*
X111700Y-49500D02*
X113400Y-49500D01*
X76601Y-47495D02*
X78001Y-47495D01*
X78001Y-47495D02*
X79001Y-48495D01*
X79001Y-48495D02*
X80601Y-48495D01*
X92947Y-47489D02*
X94347Y-47489D01*
X94347Y-47489D02*
X95347Y-48489D01*
X95347Y-48489D02*
X96947Y-48489D01*
X92985Y-77641D02*
X94385Y-77641D01*
X94385Y-77641D02*
X95385Y-78641D01*
X95385Y-78641D02*
X96985Y-78641D01*
X76632Y-77535D02*
X78032Y-77535D01*
X78032Y-77535D02*
X79032Y-78535D01*
X79032Y-78535D02*
X80632Y-78535D01*
X43622Y-77322D02*
X45022Y-77322D01*
X45022Y-77322D02*
X46022Y-78322D01*
X46022Y-78322D02*
X47622Y-78322D01*
X60055Y-77395D02*
X61455Y-77395D01*
X61455Y-77395D02*
X62455Y-78395D01*
X62455Y-78395D02*
X64055Y-78395D01*
X43679Y-47495D02*
X45079Y-47495D01*
X45079Y-47495D02*
X46079Y-48495D01*
X46079Y-48495D02*
X47679Y-48495D01*
X60050Y-47600D02*
X61450Y-47600D01*
X61450Y-47600D02*
X62450Y-48600D01*
X62450Y-48600D02*
X64050Y-48600D01*
X109350Y-77600D02*
X110750Y-77600D01*
X110750Y-77600D02*
X111750Y-78600D01*
X111750Y-78600D02*
X113350Y-78600D01*
X109400Y-47500D02*
X110800Y-47500D01*
X110800Y-47500D02*
X111800Y-48500D01*
X111800Y-48500D02*
X113400Y-48500D01*
X76601Y-46495D02*
X78501Y-46495D01*
X78501Y-46495D02*
X79501Y-47495D01*
X79501Y-47495D02*
X80601Y-47495D01*
X92947Y-46489D02*
X94847Y-46489D01*
X94847Y-46489D02*
X95847Y-47489D01*
X95847Y-47489D02*
X96947Y-47489D01*
X92985Y-76641D02*
X94885Y-76641D01*
X94885Y-76641D02*
X95885Y-77641D01*
X95885Y-77641D02*
X96985Y-77641D01*
X76632Y-76535D02*
X78532Y-76535D01*
X78532Y-76535D02*
X79532Y-77535D01*
X79532Y-77535D02*
X80632Y-77535D01*
X43622Y-76322D02*
X45522Y-76322D01*
X45522Y-76322D02*
X46522Y-77322D01*
X46522Y-77322D02*
X47622Y-77322D01*
X60055Y-76395D02*
X61955Y-76395D01*
X61955Y-76395D02*
X62955Y-77395D01*
X62955Y-77395D02*
X64055Y-77395D01*
X43679Y-46495D02*
X45579Y-46495D01*
X45579Y-46495D02*
X46579Y-47495D01*
X46579Y-47495D02*
X47679Y-47495D01*
X60050Y-46600D02*
X61950Y-46600D01*
X61950Y-46600D02*
X62950Y-47600D01*
X62950Y-47600D02*
X64050Y-47600D01*
X109350Y-76600D02*
X111250Y-76600D01*
X111250Y-76600D02*
X112250Y-77600D01*
X112250Y-77600D02*
X113350Y-77600D01*
X109400Y-46500D02*
X111300Y-46500D01*
X111300Y-46500D02*
X112300Y-47500D01*
X112300Y-47500D02*
X113400Y-47500D01*
X76601Y-49495D02*
X77501Y-49495D01*
X77501Y-49495D02*
X78501Y-50495D01*
X78501Y-50495D02*
X80601Y-50495D01*
X92947Y-49489D02*
X93847Y-49489D01*
X93847Y-49489D02*
X94847Y-50489D01*
X94847Y-50489D02*
X96947Y-50489D01*
X92985Y-79641D02*
X93885Y-79641D01*
X93885Y-79641D02*
X94885Y-80641D01*
X94885Y-80641D02*
X96985Y-80641D01*
X76632Y-79535D02*
X77532Y-79535D01*
X77532Y-79535D02*
X78532Y-80535D01*
X78532Y-80535D02*
X80632Y-80535D01*
X43622Y-79322D02*
X44522Y-79322D01*
X44522Y-79322D02*
X45522Y-80322D01*
X45522Y-80322D02*
X47622Y-80322D01*
X60055Y-79395D02*
X60955Y-79395D01*
X60955Y-79395D02*
X61955Y-80395D01*
X61955Y-80395D02*
X64055Y-80395D01*
X43679Y-49495D02*
X44579Y-49495D01*
X44579Y-49495D02*
X45579Y-50495D01*
X45579Y-50495D02*
X47679Y-50495D01*
X60050Y-49600D02*
X60950Y-49600D01*
X60950Y-49600D02*
X61950Y-50600D01*
X61950Y-50600D02*
X64050Y-50600D01*
X109350Y-79600D02*
X110250Y-79600D01*
X110250Y-79600D02*
X111250Y-80600D01*
X111250Y-80600D02*
X113350Y-80600D01*
X109400Y-49500D02*
X110300Y-49500D01*
X110300Y-49500D02*
X111300Y-50500D01*
X111300Y-50500D02*
X113400Y-50500D01*
X76601Y-50495D02*
X76701Y-50495D01*
X76701Y-50495D02*
X77801Y-51595D01*
X77801Y-51595D02*
X84001Y-51595D01*
X84001Y-51595D02*
X85101Y-50495D01*
X85101Y-50495D02*
X86601Y-50495D01*
G54D20*
X85101Y-50495D02*
X86601Y-50495D01*
X84001Y-51595D02*
X85101Y-50495D01*
X77801Y-51595D02*
X84001Y-51595D01*
X76701Y-50495D02*
X77801Y-51595D01*
G54D19*
X92947Y-50489D02*
X93047Y-50489D01*
X93047Y-50489D02*
X94147Y-51589D01*
X94147Y-51589D02*
X100347Y-51589D01*
X100347Y-51589D02*
X101447Y-50489D01*
X101447Y-50489D02*
X102947Y-50489D01*
G54D20*
X101447Y-50489D02*
X102947Y-50489D01*
X100347Y-51589D02*
X101447Y-50489D01*
X94147Y-51589D02*
X100347Y-51589D01*
X93047Y-50489D02*
X94147Y-51589D01*
G54D19*
X92985Y-80641D02*
X93085Y-80641D01*
X93085Y-80641D02*
X94185Y-81741D01*
X94185Y-81741D02*
X100385Y-81741D01*
X100385Y-81741D02*
X101485Y-80641D01*
X101485Y-80641D02*
X102985Y-80641D01*
G54D20*
X101485Y-80641D02*
X102985Y-80641D01*
X100385Y-81741D02*
X101485Y-80641D01*
X94185Y-81741D02*
X100385Y-81741D01*
X93085Y-80641D02*
X94185Y-81741D01*
G54D19*
X76632Y-80535D02*
X76732Y-80535D01*
X76732Y-80535D02*
X77832Y-81635D01*
X77832Y-81635D02*
X84032Y-81635D01*
X84032Y-81635D02*
X85132Y-80535D01*
X85132Y-80535D02*
X86632Y-80535D01*
G54D20*
X85132Y-80535D02*
X86632Y-80535D01*
X84032Y-81635D02*
X85132Y-80535D01*
X77832Y-81635D02*
X84032Y-81635D01*
X76732Y-80535D02*
X77832Y-81635D01*
G54D19*
X43622Y-80322D02*
X43722Y-80322D01*
X43722Y-80322D02*
X44822Y-81422D01*
X44822Y-81422D02*
X51022Y-81422D01*
X51022Y-81422D02*
X52122Y-80322D01*
X52122Y-80322D02*
X53622Y-80322D01*
G54D20*
X52122Y-80322D02*
X53622Y-80322D01*
X51022Y-81422D02*
X52122Y-80322D01*
X44822Y-81422D02*
X51022Y-81422D01*
X43722Y-80322D02*
X44822Y-81422D01*
G54D19*
X60055Y-80395D02*
X60155Y-80395D01*
X60155Y-80395D02*
X61255Y-81495D01*
X61255Y-81495D02*
X67455Y-81495D01*
X67455Y-81495D02*
X68555Y-80395D01*
X68555Y-80395D02*
X70055Y-80395D01*
G54D20*
X68555Y-80395D02*
X70055Y-80395D01*
X67455Y-81495D02*
X68555Y-80395D01*
X61255Y-81495D02*
X67455Y-81495D01*
X60155Y-80395D02*
X61255Y-81495D01*
G54D19*
X43679Y-50495D02*
X43779Y-50495D01*
X43779Y-50495D02*
X44879Y-51595D01*
X44879Y-51595D02*
X51079Y-51595D01*
X51079Y-51595D02*
X52179Y-50495D01*
X52179Y-50495D02*
X53679Y-50495D01*
G54D20*
X52179Y-50495D02*
X53679Y-50495D01*
X51079Y-51595D02*
X52179Y-50495D01*
X44879Y-51595D02*
X51079Y-51595D01*
X43779Y-50495D02*
X44879Y-51595D01*
G54D19*
X60050Y-50600D02*
X60150Y-50600D01*
X60150Y-50600D02*
X61250Y-51700D01*
X61250Y-51700D02*
X67450Y-51700D01*
X67450Y-51700D02*
X68550Y-50600D01*
X68550Y-50600D02*
X70050Y-50600D01*
G54D20*
X68550Y-50600D02*
X70050Y-50600D01*
X67450Y-51700D02*
X68550Y-50600D01*
X61250Y-51700D02*
X67450Y-51700D01*
X60150Y-50600D02*
X61250Y-51700D01*
G54D19*
X109350Y-80600D02*
X109450Y-80600D01*
X109450Y-80600D02*
X110550Y-81700D01*
X110550Y-81700D02*
X116750Y-81700D01*
X116750Y-81700D02*
X117850Y-80600D01*
X117850Y-80600D02*
X119350Y-80600D01*
G54D20*
X117850Y-80600D02*
X119350Y-80600D01*
X116750Y-81700D02*
X117850Y-80600D01*
X110550Y-81700D02*
X116750Y-81700D01*
X109450Y-80600D02*
X110550Y-81700D01*
G54D19*
X109400Y-50500D02*
X109500Y-50500D01*
X109500Y-50500D02*
X110600Y-51600D01*
X110600Y-51600D02*
X116800Y-51600D01*
X116800Y-51600D02*
X117900Y-50500D01*
X117900Y-50500D02*
X119400Y-50500D01*
G54D20*
X117900Y-50500D02*
X119400Y-50500D01*
X116800Y-51600D02*
X117900Y-50500D01*
X110600Y-51600D02*
X116800Y-51600D01*
X109500Y-50500D02*
X110600Y-51600D01*
G54D19*
X89901Y-34495D02*
X90601Y-34495D01*
X86601Y-32495D02*
X87901Y-32495D01*
X87901Y-32495D02*
X89901Y-34495D01*
X106247Y-34489D02*
X106947Y-34489D01*
X102947Y-32489D02*
X104247Y-32489D01*
X104247Y-32489D02*
X106247Y-34489D01*
X106285Y-64641D02*
X106985Y-64641D01*
X102985Y-62641D02*
X104285Y-62641D01*
X104285Y-62641D02*
X106285Y-64641D01*
X89932Y-64535D02*
X90632Y-64535D01*
X86632Y-62535D02*
X87932Y-62535D01*
X87932Y-62535D02*
X89932Y-64535D01*
X56922Y-64322D02*
X57622Y-64322D01*
X53622Y-62322D02*
X54922Y-62322D01*
X54922Y-62322D02*
X56922Y-64322D01*
X73355Y-64395D02*
X74055Y-64395D01*
X70055Y-62395D02*
X71355Y-62395D01*
X71355Y-62395D02*
X73355Y-64395D01*
X56979Y-34495D02*
X57679Y-34495D01*
X53679Y-32495D02*
X54979Y-32495D01*
X54979Y-32495D02*
X56979Y-34495D01*
X73350Y-34600D02*
X74050Y-34600D01*
X70050Y-32600D02*
X71350Y-32600D01*
X71350Y-32600D02*
X73350Y-34600D01*
X122650Y-64600D02*
X123350Y-64600D01*
X119350Y-62600D02*
X120650Y-62600D01*
X120650Y-62600D02*
X122650Y-64600D01*
X122700Y-34500D02*
X123400Y-34500D01*
X119400Y-32500D02*
X120700Y-32500D01*
X120700Y-32500D02*
X122700Y-34500D01*
X77901Y-37495D02*
X76601Y-37495D01*
X80601Y-35495D02*
X79901Y-35495D01*
X79901Y-35495D02*
X77901Y-37495D01*
X94247Y-37489D02*
X92947Y-37489D01*
X96947Y-35489D02*
X96247Y-35489D01*
X96247Y-35489D02*
X94247Y-37489D01*
X94285Y-67641D02*
X92985Y-67641D01*
X96985Y-65641D02*
X96285Y-65641D01*
X96285Y-65641D02*
X94285Y-67641D01*
X77932Y-67535D02*
X76632Y-67535D01*
X80632Y-65535D02*
X79932Y-65535D01*
X79932Y-65535D02*
X77932Y-67535D01*
X44922Y-67322D02*
X43622Y-67322D01*
X47622Y-65322D02*
X46922Y-65322D01*
X46922Y-65322D02*
X44922Y-67322D01*
X61355Y-67395D02*
X60055Y-67395D01*
X64055Y-65395D02*
X63355Y-65395D01*
X63355Y-65395D02*
X61355Y-67395D01*
X44979Y-37495D02*
X43679Y-37495D01*
X47679Y-35495D02*
X46979Y-35495D01*
X46979Y-35495D02*
X44979Y-37495D01*
X61350Y-37600D02*
X60050Y-37600D01*
X64050Y-35600D02*
X63350Y-35600D01*
X63350Y-35600D02*
X61350Y-37600D01*
X110650Y-67600D02*
X109350Y-67600D01*
X113350Y-65600D02*
X112650Y-65600D01*
X112650Y-65600D02*
X110650Y-67600D01*
X110700Y-37500D02*
X109400Y-37500D01*
X113400Y-35500D02*
X112700Y-35500D01*
X112700Y-35500D02*
X110700Y-37500D01*
X86601Y-48495D02*
X88001Y-48495D01*
X89001Y-49495D02*
X90601Y-49495D01*
X88001Y-48495D02*
X89001Y-49495D01*
X102947Y-48489D02*
X104347Y-48489D01*
X105347Y-49489D02*
X106947Y-49489D01*
X104347Y-48489D02*
X105347Y-49489D01*
X102985Y-78641D02*
X104385Y-78641D01*
X105385Y-79641D02*
X106985Y-79641D01*
X104385Y-78641D02*
X105385Y-79641D01*
X86632Y-78535D02*
X88032Y-78535D01*
X89032Y-79535D02*
X90632Y-79535D01*
X88032Y-78535D02*
X89032Y-79535D01*
X53622Y-78322D02*
X55022Y-78322D01*
X56022Y-79322D02*
X57622Y-79322D01*
X55022Y-78322D02*
X56022Y-79322D01*
X70055Y-78395D02*
X71455Y-78395D01*
X72455Y-79395D02*
X74055Y-79395D01*
X71455Y-78395D02*
X72455Y-79395D01*
X53679Y-48495D02*
X55079Y-48495D01*
X56079Y-49495D02*
X57679Y-49495D01*
X55079Y-48495D02*
X56079Y-49495D01*
X70050Y-48600D02*
X71450Y-48600D01*
X72450Y-49600D02*
X74050Y-49600D01*
X71450Y-48600D02*
X72450Y-49600D01*
X119350Y-78600D02*
X120750Y-78600D01*
X121750Y-79600D02*
X123350Y-79600D01*
X120750Y-78600D02*
X121750Y-79600D01*
X119400Y-48500D02*
X120800Y-48500D01*
X121800Y-49500D02*
X123400Y-49500D01*
X120800Y-48500D02*
X121800Y-49500D01*
X86601Y-49495D02*
X87801Y-49495D01*
X88801Y-50495D02*
X90601Y-50495D01*
X87801Y-49495D02*
X88801Y-50495D01*
X102947Y-49489D02*
X104147Y-49489D01*
X105147Y-50489D02*
X106947Y-50489D01*
X104147Y-49489D02*
X105147Y-50489D01*
X102985Y-79641D02*
X104185Y-79641D01*
X105185Y-80641D02*
X106985Y-80641D01*
X104185Y-79641D02*
X105185Y-80641D01*
X86632Y-79535D02*
X87832Y-79535D01*
X88832Y-80535D02*
X90632Y-80535D01*
X87832Y-79535D02*
X88832Y-80535D01*
X53622Y-79322D02*
X54822Y-79322D01*
X55822Y-80322D02*
X57622Y-80322D01*
X54822Y-79322D02*
X55822Y-80322D01*
X70055Y-79395D02*
X71255Y-79395D01*
X72255Y-80395D02*
X74055Y-80395D01*
X71255Y-79395D02*
X72255Y-80395D01*
X53679Y-49495D02*
X54879Y-49495D01*
X55879Y-50495D02*
X57679Y-50495D01*
X54879Y-49495D02*
X55879Y-50495D01*
X70050Y-49600D02*
X71250Y-49600D01*
X72250Y-50600D02*
X74050Y-50600D01*
X71250Y-49600D02*
X72250Y-50600D01*
X119350Y-79600D02*
X120550Y-79600D01*
X121550Y-80600D02*
X123350Y-80600D01*
X120550Y-79600D02*
X121550Y-80600D01*
X119400Y-49500D02*
X120600Y-49500D01*
X121600Y-50500D02*
X123400Y-50500D01*
X120600Y-49500D02*
X121600Y-50500D01*
X86601Y-47495D02*
X88001Y-47495D01*
X88001Y-47495D02*
X89001Y-48495D01*
X89001Y-48495D02*
X90601Y-48495D01*
X102947Y-47489D02*
X104347Y-47489D01*
X104347Y-47489D02*
X105347Y-48489D01*
X105347Y-48489D02*
X106947Y-48489D01*
X102985Y-77641D02*
X104385Y-77641D01*
X104385Y-77641D02*
X105385Y-78641D01*
X105385Y-78641D02*
X106985Y-78641D01*
X86632Y-77535D02*
X88032Y-77535D01*
X88032Y-77535D02*
X89032Y-78535D01*
X89032Y-78535D02*
X90632Y-78535D01*
X53622Y-77322D02*
X55022Y-77322D01*
X55022Y-77322D02*
X56022Y-78322D01*
X56022Y-78322D02*
X57622Y-78322D01*
X70055Y-77395D02*
X71455Y-77395D01*
X71455Y-77395D02*
X72455Y-78395D01*
X72455Y-78395D02*
X74055Y-78395D01*
X53679Y-47495D02*
X55079Y-47495D01*
X55079Y-47495D02*
X56079Y-48495D01*
X56079Y-48495D02*
X57679Y-48495D01*
X70050Y-47600D02*
X71450Y-47600D01*
X71450Y-47600D02*
X72450Y-48600D01*
X72450Y-48600D02*
X74050Y-48600D01*
X119350Y-77600D02*
X120750Y-77600D01*
X120750Y-77600D02*
X121750Y-78600D01*
X121750Y-78600D02*
X123350Y-78600D01*
X119400Y-47500D02*
X120800Y-47500D01*
X120800Y-47500D02*
X121800Y-48500D01*
X121800Y-48500D02*
X123400Y-48500D01*
X86601Y-46495D02*
X88101Y-46495D01*
X88101Y-46495D02*
X89101Y-47495D01*
X89101Y-47495D02*
X90601Y-47495D01*
X102947Y-46489D02*
X104447Y-46489D01*
X104447Y-46489D02*
X105447Y-47489D01*
X105447Y-47489D02*
X106947Y-47489D01*
X102985Y-76641D02*
X104485Y-76641D01*
X104485Y-76641D02*
X105485Y-77641D01*
X105485Y-77641D02*
X106985Y-77641D01*
X86632Y-76535D02*
X88132Y-76535D01*
X88132Y-76535D02*
X89132Y-77535D01*
X89132Y-77535D02*
X90632Y-77535D01*
X53622Y-76322D02*
X55122Y-76322D01*
X55122Y-76322D02*
X56122Y-77322D01*
X56122Y-77322D02*
X57622Y-77322D01*
X70055Y-76395D02*
X71555Y-76395D01*
X71555Y-76395D02*
X72555Y-77395D01*
X72555Y-77395D02*
X74055Y-77395D01*
X53679Y-46495D02*
X55179Y-46495D01*
X55179Y-46495D02*
X56179Y-47495D01*
X56179Y-47495D02*
X57679Y-47495D01*
X70050Y-46600D02*
X71550Y-46600D01*
X71550Y-46600D02*
X72550Y-47600D01*
X72550Y-47600D02*
X74050Y-47600D01*
X119350Y-76600D02*
X120850Y-76600D01*
X120850Y-76600D02*
X121850Y-77600D01*
X121850Y-77600D02*
X123350Y-77600D01*
X119400Y-46500D02*
X120900Y-46500D01*
X120900Y-46500D02*
X121900Y-47500D01*
X121900Y-47500D02*
X123400Y-47500D01*
X86601Y-45495D02*
X88201Y-45495D01*
X88201Y-45495D02*
X89201Y-46495D01*
X89201Y-46495D02*
X90601Y-46495D01*
X102947Y-45489D02*
X104547Y-45489D01*
X104547Y-45489D02*
X105547Y-46489D01*
X105547Y-46489D02*
X106947Y-46489D01*
X102985Y-75641D02*
X104585Y-75641D01*
X104585Y-75641D02*
X105585Y-76641D01*
X105585Y-76641D02*
X106985Y-76641D01*
X86632Y-75535D02*
X88232Y-75535D01*
X88232Y-75535D02*
X89232Y-76535D01*
X89232Y-76535D02*
X90632Y-76535D01*
X53622Y-75322D02*
X55222Y-75322D01*
X55222Y-75322D02*
X56222Y-76322D01*
X56222Y-76322D02*
X57622Y-76322D01*
X70055Y-75395D02*
X71655Y-75395D01*
X71655Y-75395D02*
X72655Y-76395D01*
X72655Y-76395D02*
X74055Y-76395D01*
X53679Y-45495D02*
X55279Y-45495D01*
X55279Y-45495D02*
X56279Y-46495D01*
X56279Y-46495D02*
X57679Y-46495D01*
X70050Y-45600D02*
X71650Y-45600D01*
X71650Y-45600D02*
X72650Y-46600D01*
X72650Y-46600D02*
X74050Y-46600D01*
X119350Y-75600D02*
X120950Y-75600D01*
X120950Y-75600D02*
X121950Y-76600D01*
X121950Y-76600D02*
X123350Y-76600D01*
X119400Y-45500D02*
X121000Y-45500D01*
X121000Y-45500D02*
X122000Y-46500D01*
X122000Y-46500D02*
X123400Y-46500D01*
X88501Y-44495D02*
X89501Y-45495D01*
X89501Y-45495D02*
X90601Y-45495D01*
X86601Y-44495D02*
X88501Y-44495D01*
X104847Y-44489D02*
X105847Y-45489D01*
X105847Y-45489D02*
X106947Y-45489D01*
X102947Y-44489D02*
X104847Y-44489D01*
X104885Y-74641D02*
X105885Y-75641D01*
X105885Y-75641D02*
X106985Y-75641D01*
X102985Y-74641D02*
X104885Y-74641D01*
X88532Y-74535D02*
X89532Y-75535D01*
X89532Y-75535D02*
X90632Y-75535D01*
X86632Y-74535D02*
X88532Y-74535D01*
X55522Y-74322D02*
X56522Y-75322D01*
X56522Y-75322D02*
X57622Y-75322D01*
X53622Y-74322D02*
X55522Y-74322D01*
X71955Y-74395D02*
X72955Y-75395D01*
X72955Y-75395D02*
X74055Y-75395D01*
X70055Y-74395D02*
X71955Y-74395D01*
X55579Y-44495D02*
X56579Y-45495D01*
X56579Y-45495D02*
X57679Y-45495D01*
X53679Y-44495D02*
X55579Y-44495D01*
X71950Y-44600D02*
X72950Y-45600D01*
X72950Y-45600D02*
X74050Y-45600D01*
X70050Y-44600D02*
X71950Y-44600D01*
X121250Y-74600D02*
X122250Y-75600D01*
X122250Y-75600D02*
X123350Y-75600D01*
X119350Y-74600D02*
X121250Y-74600D01*
X121300Y-44500D02*
X122300Y-45500D01*
X122300Y-45500D02*
X123400Y-45500D01*
X119400Y-44500D02*
X121300Y-44500D01*
X89601Y-44495D02*
X90601Y-44495D01*
X88601Y-43495D02*
X89601Y-44495D01*
X86601Y-43495D02*
X88601Y-43495D01*
X105947Y-44489D02*
X106947Y-44489D01*
X104947Y-43489D02*
X105947Y-44489D01*
X102947Y-43489D02*
X104947Y-43489D01*
X105985Y-74641D02*
X106985Y-74641D01*
X104985Y-73641D02*
X105985Y-74641D01*
X102985Y-73641D02*
X104985Y-73641D01*
X89632Y-74535D02*
X90632Y-74535D01*
X88632Y-73535D02*
X89632Y-74535D01*
X86632Y-73535D02*
X88632Y-73535D01*
X56622Y-74322D02*
X57622Y-74322D01*
X55622Y-73322D02*
X56622Y-74322D01*
X53622Y-73322D02*
X55622Y-73322D01*
X73055Y-74395D02*
X74055Y-74395D01*
X72055Y-73395D02*
X73055Y-74395D01*
X70055Y-73395D02*
X72055Y-73395D01*
X56679Y-44495D02*
X57679Y-44495D01*
X55679Y-43495D02*
X56679Y-44495D01*
X53679Y-43495D02*
X55679Y-43495D01*
X73050Y-44600D02*
X74050Y-44600D01*
X72050Y-43600D02*
X73050Y-44600D01*
X70050Y-43600D02*
X72050Y-43600D01*
X122350Y-74600D02*
X123350Y-74600D01*
X121350Y-73600D02*
X122350Y-74600D01*
X119350Y-73600D02*
X121350Y-73600D01*
X122400Y-44500D02*
X123400Y-44500D01*
X121400Y-43500D02*
X122400Y-44500D01*
X119400Y-43500D02*
X121400Y-43500D01*
X89901Y-43495D02*
X90601Y-43495D01*
X86601Y-42495D02*
X88901Y-42495D01*
X88901Y-42495D02*
X89901Y-43495D01*
X106247Y-43489D02*
X106947Y-43489D01*
X102947Y-42489D02*
X105247Y-42489D01*
X105247Y-42489D02*
X106247Y-43489D01*
X106285Y-73641D02*
X106985Y-73641D01*
X102985Y-72641D02*
X105285Y-72641D01*
X105285Y-72641D02*
X106285Y-73641D01*
X89932Y-73535D02*
X90632Y-73535D01*
X86632Y-72535D02*
X88932Y-72535D01*
X88932Y-72535D02*
X89932Y-73535D01*
X56922Y-73322D02*
X57622Y-73322D01*
X53622Y-72322D02*
X55922Y-72322D01*
X55922Y-72322D02*
X56922Y-73322D01*
X73355Y-73395D02*
X74055Y-73395D01*
X70055Y-72395D02*
X72355Y-72395D01*
X72355Y-72395D02*
X73355Y-73395D01*
X56979Y-43495D02*
X57679Y-43495D01*
X53679Y-42495D02*
X55979Y-42495D01*
X55979Y-42495D02*
X56979Y-43495D01*
X73350Y-43600D02*
X74050Y-43600D01*
X70050Y-42600D02*
X72350Y-42600D01*
X72350Y-42600D02*
X73350Y-43600D01*
X122650Y-73600D02*
X123350Y-73600D01*
X119350Y-72600D02*
X121650Y-72600D01*
X121650Y-72600D02*
X122650Y-73600D01*
X122700Y-43500D02*
X123400Y-43500D01*
X119400Y-42500D02*
X121700Y-42500D01*
X121700Y-42500D02*
X122700Y-43500D01*
X77801Y-36495D02*
X76601Y-36495D01*
X79801Y-34495D02*
X77801Y-36495D01*
X80601Y-34495D02*
X79801Y-34495D01*
X94147Y-36489D02*
X92947Y-36489D01*
X96147Y-34489D02*
X94147Y-36489D01*
X96947Y-34489D02*
X96147Y-34489D01*
X94185Y-66641D02*
X92985Y-66641D01*
X96185Y-64641D02*
X94185Y-66641D01*
X96985Y-64641D02*
X96185Y-64641D01*
X77832Y-66535D02*
X76632Y-66535D01*
X79832Y-64535D02*
X77832Y-66535D01*
X80632Y-64535D02*
X79832Y-64535D01*
X44822Y-66322D02*
X43622Y-66322D01*
X46822Y-64322D02*
X44822Y-66322D01*
X47622Y-64322D02*
X46822Y-64322D01*
X61255Y-66395D02*
X60055Y-66395D01*
X63255Y-64395D02*
X61255Y-66395D01*
X64055Y-64395D02*
X63255Y-64395D01*
X44879Y-36495D02*
X43679Y-36495D01*
X46879Y-34495D02*
X44879Y-36495D01*
X47679Y-34495D02*
X46879Y-34495D01*
X61250Y-36600D02*
X60050Y-36600D01*
X63250Y-34600D02*
X61250Y-36600D01*
X64050Y-34600D02*
X63250Y-34600D01*
X110550Y-66600D02*
X109350Y-66600D01*
X112550Y-64600D02*
X110550Y-66600D01*
X113350Y-64600D02*
X112550Y-64600D01*
X110600Y-36500D02*
X109400Y-36500D01*
X112600Y-34500D02*
X110600Y-36500D01*
X113400Y-34500D02*
X112600Y-34500D01*
G54D20*
X80601Y-43495D02*
X81501Y-43495D01*
X82401Y-45995D02*
X83501Y-47095D01*
X82401Y-44395D02*
X82401Y-45995D01*
X81501Y-43495D02*
X82401Y-44395D01*
X96947Y-43489D02*
X97847Y-43489D01*
X98747Y-45989D02*
X99847Y-47089D01*
X98747Y-44389D02*
X98747Y-45989D01*
X97847Y-43489D02*
X98747Y-44389D01*
X96985Y-73641D02*
X97885Y-73641D01*
X98785Y-76141D02*
X99885Y-77241D01*
X98785Y-74541D02*
X98785Y-76141D01*
X97885Y-73641D02*
X98785Y-74541D01*
X80632Y-73535D02*
X81532Y-73535D01*
X82432Y-76035D02*
X83532Y-77135D01*
X82432Y-74435D02*
X82432Y-76035D01*
X81532Y-73535D02*
X82432Y-74435D01*
X47622Y-73322D02*
X48522Y-73322D01*
X49422Y-75822D02*
X50522Y-76922D01*
X49422Y-74222D02*
X49422Y-75822D01*
X48522Y-73322D02*
X49422Y-74222D01*
X64055Y-73395D02*
X64955Y-73395D01*
X65855Y-75895D02*
X66955Y-76995D01*
X65855Y-74295D02*
X65855Y-75895D01*
X64955Y-73395D02*
X65855Y-74295D01*
X47679Y-43495D02*
X48579Y-43495D01*
X49479Y-45995D02*
X50579Y-47095D01*
X49479Y-44395D02*
X49479Y-45995D01*
X48579Y-43495D02*
X49479Y-44395D01*
X64050Y-43600D02*
X64950Y-43600D01*
X65850Y-46100D02*
X66950Y-47200D01*
X65850Y-44500D02*
X65850Y-46100D01*
X64950Y-43600D02*
X65850Y-44500D01*
X113350Y-73600D02*
X114250Y-73600D01*
X115150Y-76100D02*
X116250Y-77200D01*
X115150Y-74500D02*
X115150Y-76100D01*
X114250Y-73600D02*
X115150Y-74500D01*
X113400Y-43500D02*
X114300Y-43500D01*
X115200Y-46000D02*
X116300Y-47100D01*
X115200Y-44400D02*
X115200Y-46000D01*
X114300Y-43500D02*
X115200Y-44400D01*
X83501Y-45095D02*
X83501Y-44095D01*
X81901Y-42495D02*
X80601Y-42495D01*
X83501Y-44095D02*
X81901Y-42495D01*
X99847Y-45089D02*
X99847Y-44089D01*
X98247Y-42489D02*
X96947Y-42489D01*
X99847Y-44089D02*
X98247Y-42489D01*
X99885Y-75241D02*
X99885Y-74241D01*
X98285Y-72641D02*
X96985Y-72641D01*
X99885Y-74241D02*
X98285Y-72641D01*
X83532Y-75135D02*
X83532Y-74135D01*
X81932Y-72535D02*
X80632Y-72535D01*
X83532Y-74135D02*
X81932Y-72535D01*
X50522Y-74922D02*
X50522Y-73922D01*
X48922Y-72322D02*
X47622Y-72322D01*
X50522Y-73922D02*
X48922Y-72322D01*
X66955Y-74995D02*
X66955Y-73995D01*
X65355Y-72395D02*
X64055Y-72395D01*
X66955Y-73995D02*
X65355Y-72395D01*
X50579Y-45095D02*
X50579Y-44095D01*
X48979Y-42495D02*
X47679Y-42495D01*
X50579Y-44095D02*
X48979Y-42495D01*
X66950Y-45200D02*
X66950Y-44200D01*
X65350Y-42600D02*
X64050Y-42600D01*
X66950Y-44200D02*
X65350Y-42600D01*
X116250Y-75200D02*
X116250Y-74200D01*
X114650Y-72600D02*
X113350Y-72600D01*
X116250Y-74200D02*
X114650Y-72600D01*
X116300Y-45100D02*
X116300Y-44100D01*
X114700Y-42500D02*
X113400Y-42500D01*
X116300Y-44100D02*
X114700Y-42500D01*
G54D19*
X80601Y-33495D02*
X79701Y-33495D01*
X79701Y-33495D02*
X77701Y-35495D01*
X77701Y-35495D02*
X76601Y-35495D01*
X96947Y-33489D02*
X96047Y-33489D01*
X96047Y-33489D02*
X94047Y-35489D01*
X94047Y-35489D02*
X92947Y-35489D01*
X96985Y-63641D02*
X96085Y-63641D01*
X96085Y-63641D02*
X94085Y-65641D01*
X94085Y-65641D02*
X92985Y-65641D01*
X80632Y-63535D02*
X79732Y-63535D01*
X79732Y-63535D02*
X77732Y-65535D01*
X77732Y-65535D02*
X76632Y-65535D01*
X47622Y-63322D02*
X46722Y-63322D01*
X46722Y-63322D02*
X44722Y-65322D01*
X44722Y-65322D02*
X43622Y-65322D01*
X64055Y-63395D02*
X63155Y-63395D01*
X63155Y-63395D02*
X61155Y-65395D01*
X61155Y-65395D02*
X60055Y-65395D01*
X47679Y-33495D02*
X46779Y-33495D01*
X46779Y-33495D02*
X44779Y-35495D01*
X44779Y-35495D02*
X43679Y-35495D01*
X64050Y-33600D02*
X63150Y-33600D01*
X63150Y-33600D02*
X61150Y-35600D01*
X61150Y-35600D02*
X60050Y-35600D01*
X113350Y-63600D02*
X112450Y-63600D01*
X112450Y-63600D02*
X110450Y-65600D01*
X110450Y-65600D02*
X109350Y-65600D01*
X113400Y-33500D02*
X112500Y-33500D01*
X112500Y-33500D02*
X110500Y-35500D01*
X110500Y-35500D02*
X109400Y-35500D01*
X80601Y-32495D02*
X79701Y-32495D01*
X79701Y-32495D02*
X77701Y-34495D01*
X77701Y-34495D02*
X76601Y-34495D01*
X96947Y-32489D02*
X96047Y-32489D01*
X96047Y-32489D02*
X94047Y-34489D01*
X94047Y-34489D02*
X92947Y-34489D01*
X96985Y-62641D02*
X96085Y-62641D01*
X96085Y-62641D02*
X94085Y-64641D01*
X94085Y-64641D02*
X92985Y-64641D01*
X80632Y-62535D02*
X79732Y-62535D01*
X79732Y-62535D02*
X77732Y-64535D01*
X77732Y-64535D02*
X76632Y-64535D01*
X47622Y-62322D02*
X46722Y-62322D01*
X46722Y-62322D02*
X44722Y-64322D01*
X44722Y-64322D02*
X43622Y-64322D01*
X64055Y-62395D02*
X63155Y-62395D01*
X63155Y-62395D02*
X61155Y-64395D01*
X61155Y-64395D02*
X60055Y-64395D01*
X47679Y-32495D02*
X46779Y-32495D01*
X46779Y-32495D02*
X44779Y-34495D01*
X44779Y-34495D02*
X43679Y-34495D01*
X64050Y-32600D02*
X63150Y-32600D01*
X63150Y-32600D02*
X61150Y-34600D01*
X61150Y-34600D02*
X60050Y-34600D01*
X113350Y-62600D02*
X112450Y-62600D01*
X112450Y-62600D02*
X110450Y-64600D01*
X110450Y-64600D02*
X109350Y-64600D01*
X113400Y-32500D02*
X112500Y-32500D01*
X112500Y-32500D02*
X110500Y-34500D01*
X110500Y-34500D02*
X109400Y-34500D01*
X77601Y-33495D02*
X76601Y-33495D01*
X80601Y-31495D02*
X79601Y-31495D01*
X79601Y-31495D02*
X77601Y-33495D01*
X93947Y-33489D02*
X92947Y-33489D01*
X96947Y-31489D02*
X95947Y-31489D01*
X95947Y-31489D02*
X93947Y-33489D01*
X93985Y-63641D02*
X92985Y-63641D01*
X96985Y-61641D02*
X95985Y-61641D01*
X95985Y-61641D02*
X93985Y-63641D01*
X77632Y-63535D02*
X76632Y-63535D01*
X80632Y-61535D02*
X79632Y-61535D01*
X79632Y-61535D02*
X77632Y-63535D01*
X44622Y-63322D02*
X43622Y-63322D01*
X47622Y-61322D02*
X46622Y-61322D01*
X46622Y-61322D02*
X44622Y-63322D01*
X61055Y-63395D02*
X60055Y-63395D01*
X64055Y-61395D02*
X63055Y-61395D01*
X63055Y-61395D02*
X61055Y-63395D01*
X44679Y-33495D02*
X43679Y-33495D01*
X47679Y-31495D02*
X46679Y-31495D01*
X46679Y-31495D02*
X44679Y-33495D01*
X61050Y-33600D02*
X60050Y-33600D01*
X64050Y-31600D02*
X63050Y-31600D01*
X63050Y-31600D02*
X61050Y-33600D01*
X110350Y-63600D02*
X109350Y-63600D01*
X113350Y-61600D02*
X112350Y-61600D01*
X112350Y-61600D02*
X110350Y-63600D01*
X110400Y-33500D02*
X109400Y-33500D01*
X113400Y-31500D02*
X112400Y-31500D01*
X112400Y-31500D02*
X110400Y-33500D01*
X89701Y-35495D02*
X90601Y-35495D01*
X87701Y-33495D02*
X89701Y-35495D01*
X86601Y-33495D02*
X87701Y-33495D01*
X106047Y-35489D02*
X106947Y-35489D01*
X104047Y-33489D02*
X106047Y-35489D01*
X102947Y-33489D02*
X104047Y-33489D01*
X106085Y-65641D02*
X106985Y-65641D01*
X104085Y-63641D02*
X106085Y-65641D01*
X102985Y-63641D02*
X104085Y-63641D01*
X89732Y-65535D02*
X90632Y-65535D01*
X87732Y-63535D02*
X89732Y-65535D01*
X86632Y-63535D02*
X87732Y-63535D01*
X56722Y-65322D02*
X57622Y-65322D01*
X54722Y-63322D02*
X56722Y-65322D01*
X53622Y-63322D02*
X54722Y-63322D01*
X73155Y-65395D02*
X74055Y-65395D01*
X71155Y-63395D02*
X73155Y-65395D01*
X70055Y-63395D02*
X71155Y-63395D01*
X56779Y-35495D02*
X57679Y-35495D01*
X54779Y-33495D02*
X56779Y-35495D01*
X53679Y-33495D02*
X54779Y-33495D01*
X73150Y-35600D02*
X74050Y-35600D01*
X71150Y-33600D02*
X73150Y-35600D01*
X70050Y-33600D02*
X71150Y-33600D01*
X122450Y-65600D02*
X123350Y-65600D01*
X120450Y-63600D02*
X122450Y-65600D01*
X119350Y-63600D02*
X120450Y-63600D01*
X122500Y-35500D02*
X123400Y-35500D01*
X120500Y-33500D02*
X122500Y-35500D01*
X119400Y-33500D02*
X120500Y-33500D01*
X86601Y-34495D02*
X87601Y-34495D01*
X87601Y-34495D02*
X89601Y-36495D01*
X89601Y-36495D02*
X90601Y-36495D01*
X102947Y-34489D02*
X103947Y-34489D01*
X103947Y-34489D02*
X105947Y-36489D01*
X105947Y-36489D02*
X106947Y-36489D01*
X102985Y-64641D02*
X103985Y-64641D01*
X103985Y-64641D02*
X105985Y-66641D01*
X105985Y-66641D02*
X106985Y-66641D01*
X86632Y-64535D02*
X87632Y-64535D01*
X87632Y-64535D02*
X89632Y-66535D01*
X89632Y-66535D02*
X90632Y-66535D01*
X53622Y-64322D02*
X54622Y-64322D01*
X54622Y-64322D02*
X56622Y-66322D01*
X56622Y-66322D02*
X57622Y-66322D01*
X70055Y-64395D02*
X71055Y-64395D01*
X71055Y-64395D02*
X73055Y-66395D01*
X73055Y-66395D02*
X74055Y-66395D01*
X53679Y-34495D02*
X54679Y-34495D01*
X54679Y-34495D02*
X56679Y-36495D01*
X56679Y-36495D02*
X57679Y-36495D01*
X70050Y-34600D02*
X71050Y-34600D01*
X71050Y-34600D02*
X73050Y-36600D01*
X73050Y-36600D02*
X74050Y-36600D01*
X119350Y-64600D02*
X120350Y-64600D01*
X120350Y-64600D02*
X122350Y-66600D01*
X122350Y-66600D02*
X123350Y-66600D01*
X119400Y-34500D02*
X120400Y-34500D01*
X120400Y-34500D02*
X122400Y-36500D01*
X122400Y-36500D02*
X123400Y-36500D01*
M02*
