G04 (created by PCBNEW (2013-07-07 BZR 4022)-stable) date 3/29/2015 8:23:08 PM*
%MOIN*%
G04 Gerber Fmt 3.4, Leading zero omitted, Abs format*
%FSLAX34Y34*%
G01*
G70*
G90*
G04 APERTURE LIST*
%ADD10C,0.00590551*%
%ADD11C,0.011811*%
%ADD12C,0.00393701*%
%ADD13C,0.0669291*%
%ADD14R,0.09X0.062*%
%ADD15O,0.09X0.062*%
%ADD16C,0.056*%
%ADD17C,0.0787402*%
%ADD18R,0.06X0.08*%
%ADD19R,0.08X0.06*%
%ADD20C,0.05*%
%ADD21C,0.045*%
%ADD22C,0.05*%
%ADD23C,0.04*%
%ADD24C,0.035*%
G04 APERTURE END LIST*
G54D10*
G54D11*
X57942Y-25754D02*
X57966Y-25778D01*
X58038Y-25802D01*
X58085Y-25802D01*
X58157Y-25778D01*
X58204Y-25730D01*
X58228Y-25683D01*
X58252Y-25588D01*
X58252Y-25516D01*
X58228Y-25421D01*
X58204Y-25373D01*
X58157Y-25326D01*
X58085Y-25302D01*
X58038Y-25302D01*
X57966Y-25326D01*
X57942Y-25350D01*
X57633Y-25302D02*
X57538Y-25302D01*
X57490Y-25326D01*
X57442Y-25373D01*
X57419Y-25469D01*
X57419Y-25635D01*
X57442Y-25730D01*
X57490Y-25778D01*
X57538Y-25802D01*
X57633Y-25802D01*
X57680Y-25778D01*
X57728Y-25730D01*
X57752Y-25635D01*
X57752Y-25469D01*
X57728Y-25373D01*
X57680Y-25326D01*
X57633Y-25302D01*
X57204Y-25802D02*
X57204Y-25302D01*
X57038Y-25659D01*
X56871Y-25302D01*
X56871Y-25802D01*
X56633Y-25802D02*
X56633Y-25302D01*
X56442Y-25302D01*
X56395Y-25326D01*
X56371Y-25350D01*
X56347Y-25397D01*
X56347Y-25469D01*
X56371Y-25516D01*
X56395Y-25540D01*
X56442Y-25564D01*
X56633Y-25564D01*
G54D12*
X75601Y-24995D02*
X75601Y-27495D01*
X75601Y-24995D02*
X78101Y-24995D01*
X91601Y-24995D02*
X91601Y-27495D01*
X91601Y-24995D02*
X89101Y-24995D01*
X75601Y-54495D02*
X78101Y-54495D01*
X75601Y-54495D02*
X75601Y-51995D01*
X91601Y-54495D02*
X89101Y-54495D01*
X91601Y-54495D02*
X91601Y-51995D01*
X91947Y-24989D02*
X91947Y-27489D01*
X91947Y-24989D02*
X94447Y-24989D01*
X107947Y-24989D02*
X107947Y-27489D01*
X107947Y-24989D02*
X105447Y-24989D01*
X91947Y-54489D02*
X94447Y-54489D01*
X91947Y-54489D02*
X91947Y-51989D01*
X107947Y-54489D02*
X105447Y-54489D01*
X107947Y-54489D02*
X107947Y-51989D01*
X91985Y-55141D02*
X91985Y-57641D01*
X91985Y-55141D02*
X94485Y-55141D01*
X107985Y-55141D02*
X107985Y-57641D01*
X107985Y-55141D02*
X105485Y-55141D01*
X91985Y-84641D02*
X94485Y-84641D01*
X91985Y-84641D02*
X91985Y-82141D01*
X107985Y-84641D02*
X105485Y-84641D01*
X107985Y-84641D02*
X107985Y-82141D01*
X75632Y-55035D02*
X75632Y-57535D01*
X75632Y-55035D02*
X78132Y-55035D01*
X91632Y-55035D02*
X91632Y-57535D01*
X91632Y-55035D02*
X89132Y-55035D01*
X75632Y-84535D02*
X78132Y-84535D01*
X75632Y-84535D02*
X75632Y-82035D01*
X91632Y-84535D02*
X89132Y-84535D01*
X91632Y-84535D02*
X91632Y-82035D01*
X42622Y-54822D02*
X42622Y-57322D01*
X42622Y-54822D02*
X45122Y-54822D01*
X58622Y-54822D02*
X58622Y-57322D01*
X58622Y-54822D02*
X56122Y-54822D01*
X42622Y-84322D02*
X45122Y-84322D01*
X42622Y-84322D02*
X42622Y-81822D01*
X58622Y-84322D02*
X56122Y-84322D01*
X58622Y-84322D02*
X58622Y-81822D01*
X59055Y-54895D02*
X59055Y-57395D01*
X59055Y-54895D02*
X61555Y-54895D01*
X75055Y-54895D02*
X75055Y-57395D01*
X75055Y-54895D02*
X72555Y-54895D01*
X59055Y-84395D02*
X61555Y-84395D01*
X59055Y-84395D02*
X59055Y-81895D01*
X75055Y-84395D02*
X72555Y-84395D01*
X75055Y-84395D02*
X75055Y-81895D01*
X42679Y-24995D02*
X42679Y-27495D01*
X42679Y-24995D02*
X45179Y-24995D01*
X58679Y-24995D02*
X58679Y-27495D01*
X58679Y-24995D02*
X56179Y-24995D01*
X42679Y-54495D02*
X45179Y-54495D01*
X42679Y-54495D02*
X42679Y-51995D01*
X58679Y-54495D02*
X56179Y-54495D01*
X58679Y-54495D02*
X58679Y-51995D01*
X59050Y-25100D02*
X59050Y-27600D01*
X59050Y-25100D02*
X61550Y-25100D01*
X75050Y-25100D02*
X75050Y-27600D01*
X75050Y-25100D02*
X72550Y-25100D01*
X59050Y-54600D02*
X61550Y-54600D01*
X59050Y-54600D02*
X59050Y-52100D01*
X75050Y-54600D02*
X72550Y-54600D01*
X75050Y-54600D02*
X75050Y-52100D01*
X108350Y-55100D02*
X108350Y-57600D01*
X108350Y-55100D02*
X110850Y-55100D01*
X124350Y-55100D02*
X124350Y-57600D01*
X124350Y-55100D02*
X121850Y-55100D01*
X108350Y-84600D02*
X110850Y-84600D01*
X108350Y-84600D02*
X108350Y-82100D01*
X124350Y-84600D02*
X121850Y-84600D01*
X124350Y-84600D02*
X124350Y-82100D01*
X108400Y-25000D02*
X108400Y-27500D01*
X108400Y-25000D02*
X110900Y-25000D01*
X124400Y-25000D02*
X124400Y-27500D01*
X124400Y-25000D02*
X121900Y-25000D01*
X108400Y-54500D02*
X110900Y-54500D01*
X108400Y-54500D02*
X108400Y-52000D01*
X124400Y-54500D02*
X121900Y-54500D01*
X124400Y-54500D02*
X124400Y-52000D01*
G54D13*
X82201Y-28495D03*
X82201Y-27495D03*
X83201Y-28495D03*
X83201Y-27495D03*
X84201Y-28495D03*
X84201Y-27495D03*
X85201Y-28495D03*
X85201Y-27495D03*
X86201Y-28495D03*
X86201Y-27495D03*
G54D14*
X76601Y-31495D03*
G54D15*
X76601Y-32495D03*
X76601Y-33495D03*
X76601Y-34495D03*
X76601Y-35495D03*
X76601Y-36495D03*
X76601Y-37495D03*
X76601Y-38495D03*
X76601Y-39495D03*
X76601Y-40495D03*
G54D14*
X90601Y-31495D03*
G54D15*
X90601Y-32495D03*
X90601Y-33495D03*
X90601Y-34495D03*
X90601Y-35495D03*
X90601Y-36495D03*
X90601Y-37495D03*
X90601Y-38495D03*
X90601Y-39495D03*
X90601Y-40495D03*
G54D16*
X83501Y-47095D03*
X83501Y-45095D03*
G54D14*
X80601Y-31495D03*
G54D15*
X80601Y-32495D03*
X80601Y-33495D03*
X80601Y-34495D03*
X80601Y-35495D03*
X80601Y-36495D03*
X80601Y-37495D03*
X80601Y-38495D03*
X80601Y-39495D03*
X80601Y-40495D03*
X80601Y-41495D03*
X80601Y-42495D03*
X80601Y-43495D03*
X80601Y-44495D03*
X80601Y-45495D03*
X80601Y-46495D03*
X80601Y-47495D03*
X80601Y-48495D03*
X80601Y-49495D03*
X80601Y-50495D03*
X86601Y-50495D03*
X86601Y-49495D03*
X86601Y-48495D03*
X86601Y-47495D03*
X86601Y-46495D03*
X86601Y-45495D03*
X86601Y-44495D03*
X86601Y-43495D03*
X86601Y-42495D03*
X86601Y-41495D03*
X86601Y-40495D03*
X86601Y-39495D03*
X86601Y-38495D03*
X86601Y-37495D03*
X86601Y-36495D03*
X86601Y-35495D03*
X86601Y-34495D03*
X86601Y-33495D03*
X86601Y-32495D03*
X86601Y-31495D03*
G54D17*
X77997Y-29495D03*
X78001Y-26499D03*
G54D14*
X76601Y-41495D03*
G54D15*
X76601Y-42495D03*
X76601Y-43495D03*
X76601Y-44495D03*
X76601Y-45495D03*
X76601Y-46495D03*
X76601Y-47495D03*
X76601Y-48495D03*
X76601Y-49495D03*
X76601Y-50495D03*
G54D14*
X90601Y-50495D03*
G54D15*
X90601Y-49495D03*
X90601Y-48495D03*
X90601Y-47495D03*
X90601Y-46495D03*
X90601Y-45495D03*
X90601Y-44495D03*
X90601Y-43495D03*
X90601Y-42495D03*
X90601Y-41495D03*
G54D18*
X82951Y-32795D03*
X84251Y-32795D03*
X82851Y-49195D03*
X84151Y-49195D03*
X84251Y-36795D03*
X82951Y-36795D03*
X84251Y-35595D03*
X82951Y-35595D03*
X82851Y-42995D03*
X84151Y-42995D03*
X84251Y-34395D03*
X82951Y-34395D03*
X89551Y-29395D03*
X90851Y-29395D03*
G54D19*
X90301Y-27845D03*
X90301Y-26545D03*
G54D18*
X78651Y-52595D03*
X77351Y-52595D03*
X81851Y-52595D03*
X83151Y-52595D03*
X86551Y-52595D03*
X87851Y-52595D03*
G54D13*
X98547Y-28489D03*
X98547Y-27489D03*
X99547Y-28489D03*
X99547Y-27489D03*
X100547Y-28489D03*
X100547Y-27489D03*
X101547Y-28489D03*
X101547Y-27489D03*
X102547Y-28489D03*
X102547Y-27489D03*
G54D14*
X92947Y-31489D03*
G54D15*
X92947Y-32489D03*
X92947Y-33489D03*
X92947Y-34489D03*
X92947Y-35489D03*
X92947Y-36489D03*
X92947Y-37489D03*
X92947Y-38489D03*
X92947Y-39489D03*
X92947Y-40489D03*
G54D14*
X106947Y-31489D03*
G54D15*
X106947Y-32489D03*
X106947Y-33489D03*
X106947Y-34489D03*
X106947Y-35489D03*
X106947Y-36489D03*
X106947Y-37489D03*
X106947Y-38489D03*
X106947Y-39489D03*
X106947Y-40489D03*
G54D16*
X99847Y-47089D03*
X99847Y-45089D03*
G54D14*
X96947Y-31489D03*
G54D15*
X96947Y-32489D03*
X96947Y-33489D03*
X96947Y-34489D03*
X96947Y-35489D03*
X96947Y-36489D03*
X96947Y-37489D03*
X96947Y-38489D03*
X96947Y-39489D03*
X96947Y-40489D03*
X96947Y-41489D03*
X96947Y-42489D03*
X96947Y-43489D03*
X96947Y-44489D03*
X96947Y-45489D03*
X96947Y-46489D03*
X96947Y-47489D03*
X96947Y-48489D03*
X96947Y-49489D03*
X96947Y-50489D03*
X102947Y-50489D03*
X102947Y-49489D03*
X102947Y-48489D03*
X102947Y-47489D03*
X102947Y-46489D03*
X102947Y-45489D03*
X102947Y-44489D03*
X102947Y-43489D03*
X102947Y-42489D03*
X102947Y-41489D03*
X102947Y-40489D03*
X102947Y-39489D03*
X102947Y-38489D03*
X102947Y-37489D03*
X102947Y-36489D03*
X102947Y-35489D03*
X102947Y-34489D03*
X102947Y-33489D03*
X102947Y-32489D03*
X102947Y-31489D03*
G54D17*
X94343Y-29489D03*
X94347Y-26493D03*
G54D14*
X92947Y-41489D03*
G54D15*
X92947Y-42489D03*
X92947Y-43489D03*
X92947Y-44489D03*
X92947Y-45489D03*
X92947Y-46489D03*
X92947Y-47489D03*
X92947Y-48489D03*
X92947Y-49489D03*
X92947Y-50489D03*
G54D14*
X106947Y-50489D03*
G54D15*
X106947Y-49489D03*
X106947Y-48489D03*
X106947Y-47489D03*
X106947Y-46489D03*
X106947Y-45489D03*
X106947Y-44489D03*
X106947Y-43489D03*
X106947Y-42489D03*
X106947Y-41489D03*
G54D18*
X99297Y-32789D03*
X100597Y-32789D03*
X99197Y-49189D03*
X100497Y-49189D03*
X100597Y-36789D03*
X99297Y-36789D03*
X100597Y-35589D03*
X99297Y-35589D03*
X99197Y-42989D03*
X100497Y-42989D03*
X100597Y-34389D03*
X99297Y-34389D03*
X105897Y-29389D03*
X107197Y-29389D03*
G54D19*
X106647Y-27839D03*
X106647Y-26539D03*
G54D18*
X94997Y-52589D03*
X93697Y-52589D03*
X98197Y-52589D03*
X99497Y-52589D03*
X102897Y-52589D03*
X104197Y-52589D03*
G54D13*
X98585Y-58641D03*
X98585Y-57641D03*
X99585Y-58641D03*
X99585Y-57641D03*
X100585Y-58641D03*
X100585Y-57641D03*
X101585Y-58641D03*
X101585Y-57641D03*
X102585Y-58641D03*
X102585Y-57641D03*
G54D14*
X92985Y-61641D03*
G54D15*
X92985Y-62641D03*
X92985Y-63641D03*
X92985Y-64641D03*
X92985Y-65641D03*
X92985Y-66641D03*
X92985Y-67641D03*
X92985Y-68641D03*
X92985Y-69641D03*
X92985Y-70641D03*
G54D14*
X106985Y-61641D03*
G54D15*
X106985Y-62641D03*
X106985Y-63641D03*
X106985Y-64641D03*
X106985Y-65641D03*
X106985Y-66641D03*
X106985Y-67641D03*
X106985Y-68641D03*
X106985Y-69641D03*
X106985Y-70641D03*
G54D16*
X99885Y-77241D03*
X99885Y-75241D03*
G54D14*
X96985Y-61641D03*
G54D15*
X96985Y-62641D03*
X96985Y-63641D03*
X96985Y-64641D03*
X96985Y-65641D03*
X96985Y-66641D03*
X96985Y-67641D03*
X96985Y-68641D03*
X96985Y-69641D03*
X96985Y-70641D03*
X96985Y-71641D03*
X96985Y-72641D03*
X96985Y-73641D03*
X96985Y-74641D03*
X96985Y-75641D03*
X96985Y-76641D03*
X96985Y-77641D03*
X96985Y-78641D03*
X96985Y-79641D03*
X96985Y-80641D03*
X102985Y-80641D03*
X102985Y-79641D03*
X102985Y-78641D03*
X102985Y-77641D03*
X102985Y-76641D03*
X102985Y-75641D03*
X102985Y-74641D03*
X102985Y-73641D03*
X102985Y-72641D03*
X102985Y-71641D03*
X102985Y-70641D03*
X102985Y-69641D03*
X102985Y-68641D03*
X102985Y-67641D03*
X102985Y-66641D03*
X102985Y-65641D03*
X102985Y-64641D03*
X102985Y-63641D03*
X102985Y-62641D03*
X102985Y-61641D03*
G54D17*
X94381Y-59641D03*
X94385Y-56645D03*
G54D14*
X92985Y-71641D03*
G54D15*
X92985Y-72641D03*
X92985Y-73641D03*
X92985Y-74641D03*
X92985Y-75641D03*
X92985Y-76641D03*
X92985Y-77641D03*
X92985Y-78641D03*
X92985Y-79641D03*
X92985Y-80641D03*
G54D14*
X106985Y-80641D03*
G54D15*
X106985Y-79641D03*
X106985Y-78641D03*
X106985Y-77641D03*
X106985Y-76641D03*
X106985Y-75641D03*
X106985Y-74641D03*
X106985Y-73641D03*
X106985Y-72641D03*
X106985Y-71641D03*
G54D18*
X99335Y-62941D03*
X100635Y-62941D03*
X99235Y-79341D03*
X100535Y-79341D03*
X100635Y-66941D03*
X99335Y-66941D03*
X100635Y-65741D03*
X99335Y-65741D03*
X99235Y-73141D03*
X100535Y-73141D03*
X100635Y-64541D03*
X99335Y-64541D03*
X105935Y-59541D03*
X107235Y-59541D03*
G54D19*
X106685Y-57991D03*
X106685Y-56691D03*
G54D18*
X95035Y-82741D03*
X93735Y-82741D03*
X98235Y-82741D03*
X99535Y-82741D03*
X102935Y-82741D03*
X104235Y-82741D03*
G54D13*
X82232Y-58535D03*
X82232Y-57535D03*
X83232Y-58535D03*
X83232Y-57535D03*
X84232Y-58535D03*
X84232Y-57535D03*
X85232Y-58535D03*
X85232Y-57535D03*
X86232Y-58535D03*
X86232Y-57535D03*
G54D14*
X76632Y-61535D03*
G54D15*
X76632Y-62535D03*
X76632Y-63535D03*
X76632Y-64535D03*
X76632Y-65535D03*
X76632Y-66535D03*
X76632Y-67535D03*
X76632Y-68535D03*
X76632Y-69535D03*
X76632Y-70535D03*
G54D14*
X90632Y-61535D03*
G54D15*
X90632Y-62535D03*
X90632Y-63535D03*
X90632Y-64535D03*
X90632Y-65535D03*
X90632Y-66535D03*
X90632Y-67535D03*
X90632Y-68535D03*
X90632Y-69535D03*
X90632Y-70535D03*
G54D16*
X83532Y-77135D03*
X83532Y-75135D03*
G54D14*
X80632Y-61535D03*
G54D15*
X80632Y-62535D03*
X80632Y-63535D03*
X80632Y-64535D03*
X80632Y-65535D03*
X80632Y-66535D03*
X80632Y-67535D03*
X80632Y-68535D03*
X80632Y-69535D03*
X80632Y-70535D03*
X80632Y-71535D03*
X80632Y-72535D03*
X80632Y-73535D03*
X80632Y-74535D03*
X80632Y-75535D03*
X80632Y-76535D03*
X80632Y-77535D03*
X80632Y-78535D03*
X80632Y-79535D03*
X80632Y-80535D03*
X86632Y-80535D03*
X86632Y-79535D03*
X86632Y-78535D03*
X86632Y-77535D03*
X86632Y-76535D03*
X86632Y-75535D03*
X86632Y-74535D03*
X86632Y-73535D03*
X86632Y-72535D03*
X86632Y-71535D03*
X86632Y-70535D03*
X86632Y-69535D03*
X86632Y-68535D03*
X86632Y-67535D03*
X86632Y-66535D03*
X86632Y-65535D03*
X86632Y-64535D03*
X86632Y-63535D03*
X86632Y-62535D03*
X86632Y-61535D03*
G54D17*
X78028Y-59535D03*
X78032Y-56539D03*
G54D14*
X76632Y-71535D03*
G54D15*
X76632Y-72535D03*
X76632Y-73535D03*
X76632Y-74535D03*
X76632Y-75535D03*
X76632Y-76535D03*
X76632Y-77535D03*
X76632Y-78535D03*
X76632Y-79535D03*
X76632Y-80535D03*
G54D14*
X90632Y-80535D03*
G54D15*
X90632Y-79535D03*
X90632Y-78535D03*
X90632Y-77535D03*
X90632Y-76535D03*
X90632Y-75535D03*
X90632Y-74535D03*
X90632Y-73535D03*
X90632Y-72535D03*
X90632Y-71535D03*
G54D18*
X82982Y-62835D03*
X84282Y-62835D03*
X82882Y-79235D03*
X84182Y-79235D03*
X84282Y-66835D03*
X82982Y-66835D03*
X84282Y-65635D03*
X82982Y-65635D03*
X82882Y-73035D03*
X84182Y-73035D03*
X84282Y-64435D03*
X82982Y-64435D03*
X89582Y-59435D03*
X90882Y-59435D03*
G54D19*
X90332Y-57885D03*
X90332Y-56585D03*
G54D18*
X78682Y-82635D03*
X77382Y-82635D03*
X81882Y-82635D03*
X83182Y-82635D03*
X86582Y-82635D03*
X87882Y-82635D03*
G54D13*
X49222Y-58322D03*
X49222Y-57322D03*
X50222Y-58322D03*
X50222Y-57322D03*
X51222Y-58322D03*
X51222Y-57322D03*
X52222Y-58322D03*
X52222Y-57322D03*
X53222Y-58322D03*
X53222Y-57322D03*
G54D14*
X43622Y-61322D03*
G54D15*
X43622Y-62322D03*
X43622Y-63322D03*
X43622Y-64322D03*
X43622Y-65322D03*
X43622Y-66322D03*
X43622Y-67322D03*
X43622Y-68322D03*
X43622Y-69322D03*
X43622Y-70322D03*
G54D14*
X57622Y-61322D03*
G54D15*
X57622Y-62322D03*
X57622Y-63322D03*
X57622Y-64322D03*
X57622Y-65322D03*
X57622Y-66322D03*
X57622Y-67322D03*
X57622Y-68322D03*
X57622Y-69322D03*
X57622Y-70322D03*
G54D16*
X50522Y-76922D03*
X50522Y-74922D03*
G54D14*
X47622Y-61322D03*
G54D15*
X47622Y-62322D03*
X47622Y-63322D03*
X47622Y-64322D03*
X47622Y-65322D03*
X47622Y-66322D03*
X47622Y-67322D03*
X47622Y-68322D03*
X47622Y-69322D03*
X47622Y-70322D03*
X47622Y-71322D03*
X47622Y-72322D03*
X47622Y-73322D03*
X47622Y-74322D03*
X47622Y-75322D03*
X47622Y-76322D03*
X47622Y-77322D03*
X47622Y-78322D03*
X47622Y-79322D03*
X47622Y-80322D03*
X53622Y-80322D03*
X53622Y-79322D03*
X53622Y-78322D03*
X53622Y-77322D03*
X53622Y-76322D03*
X53622Y-75322D03*
X53622Y-74322D03*
X53622Y-73322D03*
X53622Y-72322D03*
X53622Y-71322D03*
X53622Y-70322D03*
X53622Y-69322D03*
X53622Y-68322D03*
X53622Y-67322D03*
X53622Y-66322D03*
X53622Y-65322D03*
X53622Y-64322D03*
X53622Y-63322D03*
X53622Y-62322D03*
X53622Y-61322D03*
G54D17*
X45018Y-59322D03*
X45022Y-56326D03*
G54D14*
X43622Y-71322D03*
G54D15*
X43622Y-72322D03*
X43622Y-73322D03*
X43622Y-74322D03*
X43622Y-75322D03*
X43622Y-76322D03*
X43622Y-77322D03*
X43622Y-78322D03*
X43622Y-79322D03*
X43622Y-80322D03*
G54D14*
X57622Y-80322D03*
G54D15*
X57622Y-79322D03*
X57622Y-78322D03*
X57622Y-77322D03*
X57622Y-76322D03*
X57622Y-75322D03*
X57622Y-74322D03*
X57622Y-73322D03*
X57622Y-72322D03*
X57622Y-71322D03*
G54D18*
X49972Y-62622D03*
X51272Y-62622D03*
X49872Y-79022D03*
X51172Y-79022D03*
X51272Y-66622D03*
X49972Y-66622D03*
X51272Y-65422D03*
X49972Y-65422D03*
X49872Y-72822D03*
X51172Y-72822D03*
X51272Y-64222D03*
X49972Y-64222D03*
X56572Y-59222D03*
X57872Y-59222D03*
G54D19*
X57322Y-57672D03*
X57322Y-56372D03*
G54D18*
X45672Y-82422D03*
X44372Y-82422D03*
X48872Y-82422D03*
X50172Y-82422D03*
X53572Y-82422D03*
X54872Y-82422D03*
G54D13*
X65655Y-58395D03*
X65655Y-57395D03*
X66655Y-58395D03*
X66655Y-57395D03*
X67655Y-58395D03*
X67655Y-57395D03*
X68655Y-58395D03*
X68655Y-57395D03*
X69655Y-58395D03*
X69655Y-57395D03*
G54D14*
X60055Y-61395D03*
G54D15*
X60055Y-62395D03*
X60055Y-63395D03*
X60055Y-64395D03*
X60055Y-65395D03*
X60055Y-66395D03*
X60055Y-67395D03*
X60055Y-68395D03*
X60055Y-69395D03*
X60055Y-70395D03*
G54D14*
X74055Y-61395D03*
G54D15*
X74055Y-62395D03*
X74055Y-63395D03*
X74055Y-64395D03*
X74055Y-65395D03*
X74055Y-66395D03*
X74055Y-67395D03*
X74055Y-68395D03*
X74055Y-69395D03*
X74055Y-70395D03*
G54D16*
X66955Y-76995D03*
X66955Y-74995D03*
G54D14*
X64055Y-61395D03*
G54D15*
X64055Y-62395D03*
X64055Y-63395D03*
X64055Y-64395D03*
X64055Y-65395D03*
X64055Y-66395D03*
X64055Y-67395D03*
X64055Y-68395D03*
X64055Y-69395D03*
X64055Y-70395D03*
X64055Y-71395D03*
X64055Y-72395D03*
X64055Y-73395D03*
X64055Y-74395D03*
X64055Y-75395D03*
X64055Y-76395D03*
X64055Y-77395D03*
X64055Y-78395D03*
X64055Y-79395D03*
X64055Y-80395D03*
X70055Y-80395D03*
X70055Y-79395D03*
X70055Y-78395D03*
X70055Y-77395D03*
X70055Y-76395D03*
X70055Y-75395D03*
X70055Y-74395D03*
X70055Y-73395D03*
X70055Y-72395D03*
X70055Y-71395D03*
X70055Y-70395D03*
X70055Y-69395D03*
X70055Y-68395D03*
X70055Y-67395D03*
X70055Y-66395D03*
X70055Y-65395D03*
X70055Y-64395D03*
X70055Y-63395D03*
X70055Y-62395D03*
X70055Y-61395D03*
G54D17*
X61451Y-59395D03*
X61455Y-56399D03*
G54D14*
X60055Y-71395D03*
G54D15*
X60055Y-72395D03*
X60055Y-73395D03*
X60055Y-74395D03*
X60055Y-75395D03*
X60055Y-76395D03*
X60055Y-77395D03*
X60055Y-78395D03*
X60055Y-79395D03*
X60055Y-80395D03*
G54D14*
X74055Y-80395D03*
G54D15*
X74055Y-79395D03*
X74055Y-78395D03*
X74055Y-77395D03*
X74055Y-76395D03*
X74055Y-75395D03*
X74055Y-74395D03*
X74055Y-73395D03*
X74055Y-72395D03*
X74055Y-71395D03*
G54D18*
X66405Y-62695D03*
X67705Y-62695D03*
X66305Y-79095D03*
X67605Y-79095D03*
X67705Y-66695D03*
X66405Y-66695D03*
X67705Y-65495D03*
X66405Y-65495D03*
X66305Y-72895D03*
X67605Y-72895D03*
X67705Y-64295D03*
X66405Y-64295D03*
X73005Y-59295D03*
X74305Y-59295D03*
G54D19*
X73755Y-57745D03*
X73755Y-56445D03*
G54D18*
X62105Y-82495D03*
X60805Y-82495D03*
X65305Y-82495D03*
X66605Y-82495D03*
X70005Y-82495D03*
X71305Y-82495D03*
G54D13*
X49279Y-28495D03*
X49279Y-27495D03*
X50279Y-28495D03*
X50279Y-27495D03*
X51279Y-28495D03*
X51279Y-27495D03*
X52279Y-28495D03*
X52279Y-27495D03*
X53279Y-28495D03*
X53279Y-27495D03*
G54D14*
X43679Y-31495D03*
G54D15*
X43679Y-32495D03*
X43679Y-33495D03*
X43679Y-34495D03*
X43679Y-35495D03*
X43679Y-36495D03*
X43679Y-37495D03*
X43679Y-38495D03*
X43679Y-39495D03*
X43679Y-40495D03*
G54D14*
X57679Y-31495D03*
G54D15*
X57679Y-32495D03*
X57679Y-33495D03*
X57679Y-34495D03*
X57679Y-35495D03*
X57679Y-36495D03*
X57679Y-37495D03*
X57679Y-38495D03*
X57679Y-39495D03*
X57679Y-40495D03*
G54D16*
X50579Y-47095D03*
X50579Y-45095D03*
G54D14*
X47679Y-31495D03*
G54D15*
X47679Y-32495D03*
X47679Y-33495D03*
X47679Y-34495D03*
X47679Y-35495D03*
X47679Y-36495D03*
X47679Y-37495D03*
X47679Y-38495D03*
X47679Y-39495D03*
X47679Y-40495D03*
X47679Y-41495D03*
X47679Y-42495D03*
X47679Y-43495D03*
X47679Y-44495D03*
X47679Y-45495D03*
X47679Y-46495D03*
X47679Y-47495D03*
X47679Y-48495D03*
X47679Y-49495D03*
X47679Y-50495D03*
X53679Y-50495D03*
X53679Y-49495D03*
X53679Y-48495D03*
X53679Y-47495D03*
X53679Y-46495D03*
X53679Y-45495D03*
X53679Y-44495D03*
X53679Y-43495D03*
X53679Y-42495D03*
X53679Y-41495D03*
X53679Y-40495D03*
X53679Y-39495D03*
X53679Y-38495D03*
X53679Y-37495D03*
X53679Y-36495D03*
X53679Y-35495D03*
X53679Y-34495D03*
X53679Y-33495D03*
X53679Y-32495D03*
X53679Y-31495D03*
G54D17*
X45075Y-29495D03*
X45079Y-26499D03*
G54D14*
X43679Y-41495D03*
G54D15*
X43679Y-42495D03*
X43679Y-43495D03*
X43679Y-44495D03*
X43679Y-45495D03*
X43679Y-46495D03*
X43679Y-47495D03*
X43679Y-48495D03*
X43679Y-49495D03*
X43679Y-50495D03*
G54D14*
X57679Y-50495D03*
G54D15*
X57679Y-49495D03*
X57679Y-48495D03*
X57679Y-47495D03*
X57679Y-46495D03*
X57679Y-45495D03*
X57679Y-44495D03*
X57679Y-43495D03*
X57679Y-42495D03*
X57679Y-41495D03*
G54D18*
X50029Y-32795D03*
X51329Y-32795D03*
X49929Y-49195D03*
X51229Y-49195D03*
X51329Y-36795D03*
X50029Y-36795D03*
X51329Y-35595D03*
X50029Y-35595D03*
X49929Y-42995D03*
X51229Y-42995D03*
X51329Y-34395D03*
X50029Y-34395D03*
X56629Y-29395D03*
X57929Y-29395D03*
G54D19*
X57379Y-27845D03*
X57379Y-26545D03*
G54D18*
X45729Y-52595D03*
X44429Y-52595D03*
X48929Y-52595D03*
X50229Y-52595D03*
X53629Y-52595D03*
X54929Y-52595D03*
G54D13*
X65650Y-28600D03*
X65650Y-27600D03*
X66650Y-28600D03*
X66650Y-27600D03*
X67650Y-28600D03*
X67650Y-27600D03*
X68650Y-28600D03*
X68650Y-27600D03*
X69650Y-28600D03*
X69650Y-27600D03*
G54D14*
X60050Y-31600D03*
G54D15*
X60050Y-32600D03*
X60050Y-33600D03*
X60050Y-34600D03*
X60050Y-35600D03*
X60050Y-36600D03*
X60050Y-37600D03*
X60050Y-38600D03*
X60050Y-39600D03*
X60050Y-40600D03*
G54D14*
X74050Y-31600D03*
G54D15*
X74050Y-32600D03*
X74050Y-33600D03*
X74050Y-34600D03*
X74050Y-35600D03*
X74050Y-36600D03*
X74050Y-37600D03*
X74050Y-38600D03*
X74050Y-39600D03*
X74050Y-40600D03*
G54D16*
X66950Y-47200D03*
X66950Y-45200D03*
G54D14*
X64050Y-31600D03*
G54D15*
X64050Y-32600D03*
X64050Y-33600D03*
X64050Y-34600D03*
X64050Y-35600D03*
X64050Y-36600D03*
X64050Y-37600D03*
X64050Y-38600D03*
X64050Y-39600D03*
X64050Y-40600D03*
X64050Y-41600D03*
X64050Y-42600D03*
X64050Y-43600D03*
X64050Y-44600D03*
X64050Y-45600D03*
X64050Y-46600D03*
X64050Y-47600D03*
X64050Y-48600D03*
X64050Y-49600D03*
X64050Y-50600D03*
X70050Y-50600D03*
X70050Y-49600D03*
X70050Y-48600D03*
X70050Y-47600D03*
X70050Y-46600D03*
X70050Y-45600D03*
X70050Y-44600D03*
X70050Y-43600D03*
X70050Y-42600D03*
X70050Y-41600D03*
X70050Y-40600D03*
X70050Y-39600D03*
X70050Y-38600D03*
X70050Y-37600D03*
X70050Y-36600D03*
X70050Y-35600D03*
X70050Y-34600D03*
X70050Y-33600D03*
X70050Y-32600D03*
X70050Y-31600D03*
G54D17*
X61446Y-29600D03*
X61450Y-26604D03*
G54D14*
X60050Y-41600D03*
G54D15*
X60050Y-42600D03*
X60050Y-43600D03*
X60050Y-44600D03*
X60050Y-45600D03*
X60050Y-46600D03*
X60050Y-47600D03*
X60050Y-48600D03*
X60050Y-49600D03*
X60050Y-50600D03*
G54D14*
X74050Y-50600D03*
G54D15*
X74050Y-49600D03*
X74050Y-48600D03*
X74050Y-47600D03*
X74050Y-46600D03*
X74050Y-45600D03*
X74050Y-44600D03*
X74050Y-43600D03*
X74050Y-42600D03*
X74050Y-41600D03*
G54D18*
X66400Y-32900D03*
X67700Y-32900D03*
X66300Y-49300D03*
X67600Y-49300D03*
X67700Y-36900D03*
X66400Y-36900D03*
X67700Y-35700D03*
X66400Y-35700D03*
X66300Y-43100D03*
X67600Y-43100D03*
X67700Y-34500D03*
X66400Y-34500D03*
X73000Y-29500D03*
X74300Y-29500D03*
G54D19*
X73750Y-27950D03*
X73750Y-26650D03*
G54D18*
X62100Y-52700D03*
X60800Y-52700D03*
X65300Y-52700D03*
X66600Y-52700D03*
X70000Y-52700D03*
X71300Y-52700D03*
G54D13*
X114950Y-58600D03*
X114950Y-57600D03*
X115950Y-58600D03*
X115950Y-57600D03*
X116950Y-58600D03*
X116950Y-57600D03*
X117950Y-58600D03*
X117950Y-57600D03*
X118950Y-58600D03*
X118950Y-57600D03*
G54D14*
X109350Y-61600D03*
G54D15*
X109350Y-62600D03*
X109350Y-63600D03*
X109350Y-64600D03*
X109350Y-65600D03*
X109350Y-66600D03*
X109350Y-67600D03*
X109350Y-68600D03*
X109350Y-69600D03*
X109350Y-70600D03*
G54D14*
X123350Y-61600D03*
G54D15*
X123350Y-62600D03*
X123350Y-63600D03*
X123350Y-64600D03*
X123350Y-65600D03*
X123350Y-66600D03*
X123350Y-67600D03*
X123350Y-68600D03*
X123350Y-69600D03*
X123350Y-70600D03*
G54D16*
X116250Y-77200D03*
X116250Y-75200D03*
G54D14*
X113350Y-61600D03*
G54D15*
X113350Y-62600D03*
X113350Y-63600D03*
X113350Y-64600D03*
X113350Y-65600D03*
X113350Y-66600D03*
X113350Y-67600D03*
X113350Y-68600D03*
X113350Y-69600D03*
X113350Y-70600D03*
X113350Y-71600D03*
X113350Y-72600D03*
X113350Y-73600D03*
X113350Y-74600D03*
X113350Y-75600D03*
X113350Y-76600D03*
X113350Y-77600D03*
X113350Y-78600D03*
X113350Y-79600D03*
X113350Y-80600D03*
X119350Y-80600D03*
X119350Y-79600D03*
X119350Y-78600D03*
X119350Y-77600D03*
X119350Y-76600D03*
X119350Y-75600D03*
X119350Y-74600D03*
X119350Y-73600D03*
X119350Y-72600D03*
X119350Y-71600D03*
X119350Y-70600D03*
X119350Y-69600D03*
X119350Y-68600D03*
X119350Y-67600D03*
X119350Y-66600D03*
X119350Y-65600D03*
X119350Y-64600D03*
X119350Y-63600D03*
X119350Y-62600D03*
X119350Y-61600D03*
G54D17*
X110746Y-59600D03*
X110750Y-56604D03*
G54D14*
X109350Y-71600D03*
G54D15*
X109350Y-72600D03*
X109350Y-73600D03*
X109350Y-74600D03*
X109350Y-75600D03*
X109350Y-76600D03*
X109350Y-77600D03*
X109350Y-78600D03*
X109350Y-79600D03*
X109350Y-80600D03*
G54D14*
X123350Y-80600D03*
G54D15*
X123350Y-79600D03*
X123350Y-78600D03*
X123350Y-77600D03*
X123350Y-76600D03*
X123350Y-75600D03*
X123350Y-74600D03*
X123350Y-73600D03*
X123350Y-72600D03*
X123350Y-71600D03*
G54D18*
X115700Y-62900D03*
X117000Y-62900D03*
X115600Y-79300D03*
X116900Y-79300D03*
X117000Y-66900D03*
X115700Y-66900D03*
X117000Y-65700D03*
X115700Y-65700D03*
X115600Y-73100D03*
X116900Y-73100D03*
X117000Y-64500D03*
X115700Y-64500D03*
X122300Y-59500D03*
X123600Y-59500D03*
G54D19*
X123050Y-57950D03*
X123050Y-56650D03*
G54D18*
X111400Y-82700D03*
X110100Y-82700D03*
X114600Y-82700D03*
X115900Y-82700D03*
X119300Y-82700D03*
X120600Y-82700D03*
G54D13*
X115000Y-28500D03*
X115000Y-27500D03*
X116000Y-28500D03*
X116000Y-27500D03*
X117000Y-28500D03*
X117000Y-27500D03*
X118000Y-28500D03*
X118000Y-27500D03*
X119000Y-28500D03*
X119000Y-27500D03*
G54D14*
X109400Y-31500D03*
G54D15*
X109400Y-32500D03*
X109400Y-33500D03*
X109400Y-34500D03*
X109400Y-35500D03*
X109400Y-36500D03*
X109400Y-37500D03*
X109400Y-38500D03*
X109400Y-39500D03*
X109400Y-40500D03*
G54D14*
X123400Y-31500D03*
G54D15*
X123400Y-32500D03*
X123400Y-33500D03*
X123400Y-34500D03*
X123400Y-35500D03*
X123400Y-36500D03*
X123400Y-37500D03*
X123400Y-38500D03*
X123400Y-39500D03*
X123400Y-40500D03*
G54D16*
X116300Y-47100D03*
X116300Y-45100D03*
G54D14*
X113400Y-31500D03*
G54D15*
X113400Y-32500D03*
X113400Y-33500D03*
X113400Y-34500D03*
X113400Y-35500D03*
X113400Y-36500D03*
X113400Y-37500D03*
X113400Y-38500D03*
X113400Y-39500D03*
X113400Y-40500D03*
X113400Y-41500D03*
X113400Y-42500D03*
X113400Y-43500D03*
X113400Y-44500D03*
X113400Y-45500D03*
X113400Y-46500D03*
X113400Y-47500D03*
X113400Y-48500D03*
X113400Y-49500D03*
X113400Y-50500D03*
X119400Y-50500D03*
X119400Y-49500D03*
X119400Y-48500D03*
X119400Y-47500D03*
X119400Y-46500D03*
X119400Y-45500D03*
X119400Y-44500D03*
X119400Y-43500D03*
X119400Y-42500D03*
X119400Y-41500D03*
X119400Y-40500D03*
X119400Y-39500D03*
X119400Y-38500D03*
X119400Y-37500D03*
X119400Y-36500D03*
X119400Y-35500D03*
X119400Y-34500D03*
X119400Y-33500D03*
X119400Y-32500D03*
X119400Y-31500D03*
G54D17*
X110796Y-29500D03*
X110800Y-26504D03*
G54D14*
X109400Y-41500D03*
G54D15*
X109400Y-42500D03*
X109400Y-43500D03*
X109400Y-44500D03*
X109400Y-45500D03*
X109400Y-46500D03*
X109400Y-47500D03*
X109400Y-48500D03*
X109400Y-49500D03*
X109400Y-50500D03*
G54D14*
X123400Y-50500D03*
G54D15*
X123400Y-49500D03*
X123400Y-48500D03*
X123400Y-47500D03*
X123400Y-46500D03*
X123400Y-45500D03*
X123400Y-44500D03*
X123400Y-43500D03*
X123400Y-42500D03*
X123400Y-41500D03*
G54D18*
X115750Y-32800D03*
X117050Y-32800D03*
X115650Y-49200D03*
X116950Y-49200D03*
X117050Y-36800D03*
X115750Y-36800D03*
X117050Y-35600D03*
X115750Y-35600D03*
X115650Y-43000D03*
X116950Y-43000D03*
X117050Y-34400D03*
X115750Y-34400D03*
X122350Y-29400D03*
X123650Y-29400D03*
G54D19*
X123100Y-27850D03*
X123100Y-26550D03*
G54D18*
X111450Y-52600D03*
X110150Y-52600D03*
X114650Y-52600D03*
X115950Y-52600D03*
X119350Y-52600D03*
X120650Y-52600D03*
G54D20*
X82001Y-36595D03*
X98347Y-36589D03*
X98385Y-66741D03*
X82032Y-66635D03*
X49022Y-66422D03*
X65455Y-66495D03*
X49079Y-36595D03*
X65450Y-36700D03*
X114750Y-66700D03*
X114800Y-36600D03*
X88801Y-26195D03*
X105147Y-26189D03*
X105185Y-56341D03*
X88832Y-56235D03*
X55822Y-56022D03*
X72255Y-56095D03*
X55879Y-26195D03*
X72250Y-26300D03*
X121550Y-56300D03*
X121600Y-26200D03*
G54D21*
X82201Y-27495D02*
X82201Y-26595D01*
X87001Y-26195D02*
X87801Y-26995D01*
X87801Y-26995D02*
X87801Y-29795D01*
X87801Y-29795D02*
X88601Y-30595D01*
X82601Y-26195D02*
X87001Y-26195D01*
X82201Y-26595D02*
X82601Y-26195D01*
X89551Y-29395D02*
X89551Y-30145D01*
X89551Y-30145D02*
X90001Y-30595D01*
G54D22*
X86601Y-39495D02*
X87801Y-39495D01*
X88001Y-41495D02*
X86601Y-41495D01*
X88401Y-41095D02*
X88001Y-41495D01*
X88401Y-40095D02*
X88401Y-41095D01*
X87801Y-39495D02*
X88401Y-40095D01*
X84251Y-32795D02*
X84251Y-31745D01*
X85401Y-30595D02*
X88601Y-30595D01*
X84251Y-31745D02*
X85401Y-30595D01*
G54D21*
X84251Y-34395D02*
X84251Y-32795D01*
X84251Y-35595D02*
X84251Y-34395D01*
X84251Y-36795D02*
X84251Y-35595D01*
X86601Y-39495D02*
X86101Y-39495D01*
X86101Y-39495D02*
X85201Y-38595D01*
X84801Y-36795D02*
X84251Y-36795D01*
X85201Y-37195D02*
X84801Y-36795D01*
X85201Y-38595D02*
X85201Y-37195D01*
G54D22*
X88601Y-30595D02*
X90001Y-30595D01*
G54D23*
X90601Y-31195D02*
X90601Y-31495D01*
G54D22*
X90001Y-30595D02*
X90601Y-31195D01*
G54D21*
X98547Y-27489D02*
X98547Y-26589D01*
X103347Y-26189D02*
X104147Y-26989D01*
X104147Y-26989D02*
X104147Y-29789D01*
X104147Y-29789D02*
X104947Y-30589D01*
X98947Y-26189D02*
X103347Y-26189D01*
X98547Y-26589D02*
X98947Y-26189D01*
X105897Y-29389D02*
X105897Y-30139D01*
X105897Y-30139D02*
X106347Y-30589D01*
G54D22*
X102947Y-39489D02*
X104147Y-39489D01*
X104347Y-41489D02*
X102947Y-41489D01*
X104747Y-41089D02*
X104347Y-41489D01*
X104747Y-40089D02*
X104747Y-41089D01*
X104147Y-39489D02*
X104747Y-40089D01*
X100597Y-32789D02*
X100597Y-31739D01*
X101747Y-30589D02*
X104947Y-30589D01*
X100597Y-31739D02*
X101747Y-30589D01*
G54D21*
X100597Y-34389D02*
X100597Y-32789D01*
X100597Y-35589D02*
X100597Y-34389D01*
X100597Y-36789D02*
X100597Y-35589D01*
X102947Y-39489D02*
X102447Y-39489D01*
X102447Y-39489D02*
X101547Y-38589D01*
X101147Y-36789D02*
X100597Y-36789D01*
X101547Y-37189D02*
X101147Y-36789D01*
X101547Y-38589D02*
X101547Y-37189D01*
G54D22*
X104947Y-30589D02*
X106347Y-30589D01*
G54D23*
X106947Y-31189D02*
X106947Y-31489D01*
G54D22*
X106347Y-30589D02*
X106947Y-31189D01*
G54D21*
X98585Y-57641D02*
X98585Y-56741D01*
X103385Y-56341D02*
X104185Y-57141D01*
X104185Y-57141D02*
X104185Y-59941D01*
X104185Y-59941D02*
X104985Y-60741D01*
X98985Y-56341D02*
X103385Y-56341D01*
X98585Y-56741D02*
X98985Y-56341D01*
X105935Y-59541D02*
X105935Y-60291D01*
X105935Y-60291D02*
X106385Y-60741D01*
G54D22*
X102985Y-69641D02*
X104185Y-69641D01*
X104385Y-71641D02*
X102985Y-71641D01*
X104785Y-71241D02*
X104385Y-71641D01*
X104785Y-70241D02*
X104785Y-71241D01*
X104185Y-69641D02*
X104785Y-70241D01*
X100635Y-62941D02*
X100635Y-61891D01*
X101785Y-60741D02*
X104985Y-60741D01*
X100635Y-61891D02*
X101785Y-60741D01*
G54D21*
X100635Y-64541D02*
X100635Y-62941D01*
X100635Y-65741D02*
X100635Y-64541D01*
X100635Y-66941D02*
X100635Y-65741D01*
X102985Y-69641D02*
X102485Y-69641D01*
X102485Y-69641D02*
X101585Y-68741D01*
X101185Y-66941D02*
X100635Y-66941D01*
X101585Y-67341D02*
X101185Y-66941D01*
X101585Y-68741D02*
X101585Y-67341D01*
G54D22*
X104985Y-60741D02*
X106385Y-60741D01*
G54D23*
X106985Y-61341D02*
X106985Y-61641D01*
G54D22*
X106385Y-60741D02*
X106985Y-61341D01*
G54D21*
X82232Y-57535D02*
X82232Y-56635D01*
X87032Y-56235D02*
X87832Y-57035D01*
X87832Y-57035D02*
X87832Y-59835D01*
X87832Y-59835D02*
X88632Y-60635D01*
X82632Y-56235D02*
X87032Y-56235D01*
X82232Y-56635D02*
X82632Y-56235D01*
X89582Y-59435D02*
X89582Y-60185D01*
X89582Y-60185D02*
X90032Y-60635D01*
G54D22*
X86632Y-69535D02*
X87832Y-69535D01*
X88032Y-71535D02*
X86632Y-71535D01*
X88432Y-71135D02*
X88032Y-71535D01*
X88432Y-70135D02*
X88432Y-71135D01*
X87832Y-69535D02*
X88432Y-70135D01*
X84282Y-62835D02*
X84282Y-61785D01*
X85432Y-60635D02*
X88632Y-60635D01*
X84282Y-61785D02*
X85432Y-60635D01*
G54D21*
X84282Y-64435D02*
X84282Y-62835D01*
X84282Y-65635D02*
X84282Y-64435D01*
X84282Y-66835D02*
X84282Y-65635D01*
X86632Y-69535D02*
X86132Y-69535D01*
X86132Y-69535D02*
X85232Y-68635D01*
X84832Y-66835D02*
X84282Y-66835D01*
X85232Y-67235D02*
X84832Y-66835D01*
X85232Y-68635D02*
X85232Y-67235D01*
G54D22*
X88632Y-60635D02*
X90032Y-60635D01*
G54D23*
X90632Y-61235D02*
X90632Y-61535D01*
G54D22*
X90032Y-60635D02*
X90632Y-61235D01*
G54D21*
X49222Y-57322D02*
X49222Y-56422D01*
X54022Y-56022D02*
X54822Y-56822D01*
X54822Y-56822D02*
X54822Y-59622D01*
X54822Y-59622D02*
X55622Y-60422D01*
X49622Y-56022D02*
X54022Y-56022D01*
X49222Y-56422D02*
X49622Y-56022D01*
X56572Y-59222D02*
X56572Y-59972D01*
X56572Y-59972D02*
X57022Y-60422D01*
G54D22*
X53622Y-69322D02*
X54822Y-69322D01*
X55022Y-71322D02*
X53622Y-71322D01*
X55422Y-70922D02*
X55022Y-71322D01*
X55422Y-69922D02*
X55422Y-70922D01*
X54822Y-69322D02*
X55422Y-69922D01*
X51272Y-62622D02*
X51272Y-61572D01*
X52422Y-60422D02*
X55622Y-60422D01*
X51272Y-61572D02*
X52422Y-60422D01*
G54D21*
X51272Y-64222D02*
X51272Y-62622D01*
X51272Y-65422D02*
X51272Y-64222D01*
X51272Y-66622D02*
X51272Y-65422D01*
X53622Y-69322D02*
X53122Y-69322D01*
X53122Y-69322D02*
X52222Y-68422D01*
X51822Y-66622D02*
X51272Y-66622D01*
X52222Y-67022D02*
X51822Y-66622D01*
X52222Y-68422D02*
X52222Y-67022D01*
G54D22*
X55622Y-60422D02*
X57022Y-60422D01*
G54D23*
X57622Y-61022D02*
X57622Y-61322D01*
G54D22*
X57022Y-60422D02*
X57622Y-61022D01*
G54D21*
X65655Y-57395D02*
X65655Y-56495D01*
X70455Y-56095D02*
X71255Y-56895D01*
X71255Y-56895D02*
X71255Y-59695D01*
X71255Y-59695D02*
X72055Y-60495D01*
X66055Y-56095D02*
X70455Y-56095D01*
X65655Y-56495D02*
X66055Y-56095D01*
X73005Y-59295D02*
X73005Y-60045D01*
X73005Y-60045D02*
X73455Y-60495D01*
G54D22*
X70055Y-69395D02*
X71255Y-69395D01*
X71455Y-71395D02*
X70055Y-71395D01*
X71855Y-70995D02*
X71455Y-71395D01*
X71855Y-69995D02*
X71855Y-70995D01*
X71255Y-69395D02*
X71855Y-69995D01*
X67705Y-62695D02*
X67705Y-61645D01*
X68855Y-60495D02*
X72055Y-60495D01*
X67705Y-61645D02*
X68855Y-60495D01*
G54D21*
X67705Y-64295D02*
X67705Y-62695D01*
X67705Y-65495D02*
X67705Y-64295D01*
X67705Y-66695D02*
X67705Y-65495D01*
X70055Y-69395D02*
X69555Y-69395D01*
X69555Y-69395D02*
X68655Y-68495D01*
X68255Y-66695D02*
X67705Y-66695D01*
X68655Y-67095D02*
X68255Y-66695D01*
X68655Y-68495D02*
X68655Y-67095D01*
G54D22*
X72055Y-60495D02*
X73455Y-60495D01*
G54D23*
X74055Y-61095D02*
X74055Y-61395D01*
G54D22*
X73455Y-60495D02*
X74055Y-61095D01*
G54D21*
X49279Y-27495D02*
X49279Y-26595D01*
X54079Y-26195D02*
X54879Y-26995D01*
X54879Y-26995D02*
X54879Y-29795D01*
X54879Y-29795D02*
X55679Y-30595D01*
X49679Y-26195D02*
X54079Y-26195D01*
X49279Y-26595D02*
X49679Y-26195D01*
X56629Y-29395D02*
X56629Y-30145D01*
X56629Y-30145D02*
X57079Y-30595D01*
G54D22*
X53679Y-39495D02*
X54879Y-39495D01*
X55079Y-41495D02*
X53679Y-41495D01*
X55479Y-41095D02*
X55079Y-41495D01*
X55479Y-40095D02*
X55479Y-41095D01*
X54879Y-39495D02*
X55479Y-40095D01*
X51329Y-32795D02*
X51329Y-31745D01*
X52479Y-30595D02*
X55679Y-30595D01*
X51329Y-31745D02*
X52479Y-30595D01*
G54D21*
X51329Y-34395D02*
X51329Y-32795D01*
X51329Y-35595D02*
X51329Y-34395D01*
X51329Y-36795D02*
X51329Y-35595D01*
X53679Y-39495D02*
X53179Y-39495D01*
X53179Y-39495D02*
X52279Y-38595D01*
X51879Y-36795D02*
X51329Y-36795D01*
X52279Y-37195D02*
X51879Y-36795D01*
X52279Y-38595D02*
X52279Y-37195D01*
G54D22*
X55679Y-30595D02*
X57079Y-30595D01*
G54D23*
X57679Y-31195D02*
X57679Y-31495D01*
G54D22*
X57079Y-30595D02*
X57679Y-31195D01*
G54D21*
X65650Y-27600D02*
X65650Y-26700D01*
X70450Y-26300D02*
X71250Y-27100D01*
X71250Y-27100D02*
X71250Y-29900D01*
X71250Y-29900D02*
X72050Y-30700D01*
X66050Y-26300D02*
X70450Y-26300D01*
X65650Y-26700D02*
X66050Y-26300D01*
X73000Y-29500D02*
X73000Y-30250D01*
X73000Y-30250D02*
X73450Y-30700D01*
G54D22*
X70050Y-39600D02*
X71250Y-39600D01*
X71450Y-41600D02*
X70050Y-41600D01*
X71850Y-41200D02*
X71450Y-41600D01*
X71850Y-40200D02*
X71850Y-41200D01*
X71250Y-39600D02*
X71850Y-40200D01*
X67700Y-32900D02*
X67700Y-31850D01*
X68850Y-30700D02*
X72050Y-30700D01*
X67700Y-31850D02*
X68850Y-30700D01*
G54D21*
X67700Y-34500D02*
X67700Y-32900D01*
X67700Y-35700D02*
X67700Y-34500D01*
X67700Y-36900D02*
X67700Y-35700D01*
X70050Y-39600D02*
X69550Y-39600D01*
X69550Y-39600D02*
X68650Y-38700D01*
X68250Y-36900D02*
X67700Y-36900D01*
X68650Y-37300D02*
X68250Y-36900D01*
X68650Y-38700D02*
X68650Y-37300D01*
G54D22*
X72050Y-30700D02*
X73450Y-30700D01*
G54D23*
X74050Y-31300D02*
X74050Y-31600D01*
G54D22*
X73450Y-30700D02*
X74050Y-31300D01*
G54D21*
X114950Y-57600D02*
X114950Y-56700D01*
X119750Y-56300D02*
X120550Y-57100D01*
X120550Y-57100D02*
X120550Y-59900D01*
X120550Y-59900D02*
X121350Y-60700D01*
X115350Y-56300D02*
X119750Y-56300D01*
X114950Y-56700D02*
X115350Y-56300D01*
X122300Y-59500D02*
X122300Y-60250D01*
X122300Y-60250D02*
X122750Y-60700D01*
G54D22*
X119350Y-69600D02*
X120550Y-69600D01*
X120750Y-71600D02*
X119350Y-71600D01*
X121150Y-71200D02*
X120750Y-71600D01*
X121150Y-70200D02*
X121150Y-71200D01*
X120550Y-69600D02*
X121150Y-70200D01*
X117000Y-62900D02*
X117000Y-61850D01*
X118150Y-60700D02*
X121350Y-60700D01*
X117000Y-61850D02*
X118150Y-60700D01*
G54D21*
X117000Y-64500D02*
X117000Y-62900D01*
X117000Y-65700D02*
X117000Y-64500D01*
X117000Y-66900D02*
X117000Y-65700D01*
X119350Y-69600D02*
X118850Y-69600D01*
X118850Y-69600D02*
X117950Y-68700D01*
X117550Y-66900D02*
X117000Y-66900D01*
X117950Y-67300D02*
X117550Y-66900D01*
X117950Y-68700D02*
X117950Y-67300D01*
G54D22*
X121350Y-60700D02*
X122750Y-60700D01*
G54D23*
X123350Y-61300D02*
X123350Y-61600D01*
G54D22*
X122750Y-60700D02*
X123350Y-61300D01*
G54D21*
X115000Y-27500D02*
X115000Y-26600D01*
X119800Y-26200D02*
X120600Y-27000D01*
X120600Y-27000D02*
X120600Y-29800D01*
X120600Y-29800D02*
X121400Y-30600D01*
X115400Y-26200D02*
X119800Y-26200D01*
X115000Y-26600D02*
X115400Y-26200D01*
X122350Y-29400D02*
X122350Y-30150D01*
X122350Y-30150D02*
X122800Y-30600D01*
G54D22*
X119400Y-39500D02*
X120600Y-39500D01*
X120800Y-41500D02*
X119400Y-41500D01*
X121200Y-41100D02*
X120800Y-41500D01*
X121200Y-40100D02*
X121200Y-41100D01*
X120600Y-39500D02*
X121200Y-40100D01*
X117050Y-32800D02*
X117050Y-31750D01*
X118200Y-30600D02*
X121400Y-30600D01*
X117050Y-31750D02*
X118200Y-30600D01*
G54D21*
X117050Y-34400D02*
X117050Y-32800D01*
X117050Y-35600D02*
X117050Y-34400D01*
X117050Y-36800D02*
X117050Y-35600D01*
X119400Y-39500D02*
X118900Y-39500D01*
X118900Y-39500D02*
X118000Y-38600D01*
X117600Y-36800D02*
X117050Y-36800D01*
X118000Y-37200D02*
X117600Y-36800D01*
X118000Y-38600D02*
X118000Y-37200D01*
G54D22*
X121400Y-30600D02*
X122800Y-30600D01*
G54D23*
X123400Y-31200D02*
X123400Y-31500D01*
G54D22*
X122800Y-30600D02*
X123400Y-31200D01*
G54D24*
X80601Y-44495D02*
X79701Y-44495D01*
X78651Y-45545D02*
X78651Y-52595D01*
X79701Y-44495D02*
X78651Y-45545D01*
G54D23*
X80101Y-44495D02*
X80601Y-44495D01*
X78401Y-42795D02*
X80101Y-44495D01*
X78401Y-31995D02*
X78401Y-42795D01*
X77901Y-31495D02*
X78401Y-31995D01*
G54D22*
X76601Y-31495D02*
X77901Y-31495D01*
G54D24*
X96947Y-44489D02*
X96047Y-44489D01*
X94997Y-45539D02*
X94997Y-52589D01*
X96047Y-44489D02*
X94997Y-45539D01*
G54D23*
X96447Y-44489D02*
X96947Y-44489D01*
X94747Y-42789D02*
X96447Y-44489D01*
X94747Y-31989D02*
X94747Y-42789D01*
X94247Y-31489D02*
X94747Y-31989D01*
G54D22*
X92947Y-31489D02*
X94247Y-31489D01*
G54D24*
X96985Y-74641D02*
X96085Y-74641D01*
X95035Y-75691D02*
X95035Y-82741D01*
X96085Y-74641D02*
X95035Y-75691D01*
G54D23*
X96485Y-74641D02*
X96985Y-74641D01*
X94785Y-72941D02*
X96485Y-74641D01*
X94785Y-62141D02*
X94785Y-72941D01*
X94285Y-61641D02*
X94785Y-62141D01*
G54D22*
X92985Y-61641D02*
X94285Y-61641D01*
G54D24*
X80632Y-74535D02*
X79732Y-74535D01*
X78682Y-75585D02*
X78682Y-82635D01*
X79732Y-74535D02*
X78682Y-75585D01*
G54D23*
X80132Y-74535D02*
X80632Y-74535D01*
X78432Y-72835D02*
X80132Y-74535D01*
X78432Y-62035D02*
X78432Y-72835D01*
X77932Y-61535D02*
X78432Y-62035D01*
G54D22*
X76632Y-61535D02*
X77932Y-61535D01*
G54D24*
X47622Y-74322D02*
X46722Y-74322D01*
X45672Y-75372D02*
X45672Y-82422D01*
X46722Y-74322D02*
X45672Y-75372D01*
G54D23*
X47122Y-74322D02*
X47622Y-74322D01*
X45422Y-72622D02*
X47122Y-74322D01*
X45422Y-61822D02*
X45422Y-72622D01*
X44922Y-61322D02*
X45422Y-61822D01*
G54D22*
X43622Y-61322D02*
X44922Y-61322D01*
G54D24*
X64055Y-74395D02*
X63155Y-74395D01*
X62105Y-75445D02*
X62105Y-82495D01*
X63155Y-74395D02*
X62105Y-75445D01*
G54D23*
X63555Y-74395D02*
X64055Y-74395D01*
X61855Y-72695D02*
X63555Y-74395D01*
X61855Y-61895D02*
X61855Y-72695D01*
X61355Y-61395D02*
X61855Y-61895D01*
G54D22*
X60055Y-61395D02*
X61355Y-61395D01*
G54D24*
X47679Y-44495D02*
X46779Y-44495D01*
X45729Y-45545D02*
X45729Y-52595D01*
X46779Y-44495D02*
X45729Y-45545D01*
G54D23*
X47179Y-44495D02*
X47679Y-44495D01*
X45479Y-42795D02*
X47179Y-44495D01*
X45479Y-31995D02*
X45479Y-42795D01*
X44979Y-31495D02*
X45479Y-31995D01*
G54D22*
X43679Y-31495D02*
X44979Y-31495D01*
G54D24*
X64050Y-44600D02*
X63150Y-44600D01*
X62100Y-45650D02*
X62100Y-52700D01*
X63150Y-44600D02*
X62100Y-45650D01*
G54D23*
X63550Y-44600D02*
X64050Y-44600D01*
X61850Y-42900D02*
X63550Y-44600D01*
X61850Y-32100D02*
X61850Y-42900D01*
X61350Y-31600D02*
X61850Y-32100D01*
G54D22*
X60050Y-31600D02*
X61350Y-31600D01*
G54D24*
X113350Y-74600D02*
X112450Y-74600D01*
X111400Y-75650D02*
X111400Y-82700D01*
X112450Y-74600D02*
X111400Y-75650D01*
G54D23*
X112850Y-74600D02*
X113350Y-74600D01*
X111150Y-72900D02*
X112850Y-74600D01*
X111150Y-62100D02*
X111150Y-72900D01*
X110650Y-61600D02*
X111150Y-62100D01*
G54D22*
X109350Y-61600D02*
X110650Y-61600D01*
G54D24*
X113400Y-44500D02*
X112500Y-44500D01*
X111450Y-45550D02*
X111450Y-52600D01*
X112500Y-44500D02*
X111450Y-45550D01*
G54D23*
X112900Y-44500D02*
X113400Y-44500D01*
X111200Y-42800D02*
X112900Y-44500D01*
X111200Y-32000D02*
X111200Y-42800D01*
X110700Y-31500D02*
X111200Y-32000D01*
G54D22*
X109400Y-31500D02*
X110700Y-31500D01*
X81501Y-38495D02*
X80601Y-38495D01*
X81801Y-38195D02*
X81501Y-38495D01*
X81801Y-36795D02*
X81801Y-38195D01*
X82001Y-36595D02*
X81801Y-36795D01*
X97847Y-38489D02*
X96947Y-38489D01*
X98147Y-38189D02*
X97847Y-38489D01*
X98147Y-36789D02*
X98147Y-38189D01*
X98347Y-36589D02*
X98147Y-36789D01*
X97885Y-68641D02*
X96985Y-68641D01*
X98185Y-68341D02*
X97885Y-68641D01*
X98185Y-66941D02*
X98185Y-68341D01*
X98385Y-66741D02*
X98185Y-66941D01*
X81532Y-68535D02*
X80632Y-68535D01*
X81832Y-68235D02*
X81532Y-68535D01*
X81832Y-66835D02*
X81832Y-68235D01*
X82032Y-66635D02*
X81832Y-66835D01*
X48522Y-68322D02*
X47622Y-68322D01*
X48822Y-68022D02*
X48522Y-68322D01*
X48822Y-66622D02*
X48822Y-68022D01*
X49022Y-66422D02*
X48822Y-66622D01*
X64955Y-68395D02*
X64055Y-68395D01*
X65255Y-68095D02*
X64955Y-68395D01*
X65255Y-66695D02*
X65255Y-68095D01*
X65455Y-66495D02*
X65255Y-66695D01*
X48579Y-38495D02*
X47679Y-38495D01*
X48879Y-38195D02*
X48579Y-38495D01*
X48879Y-36795D02*
X48879Y-38195D01*
X49079Y-36595D02*
X48879Y-36795D01*
X64950Y-38600D02*
X64050Y-38600D01*
X65250Y-38300D02*
X64950Y-38600D01*
X65250Y-36900D02*
X65250Y-38300D01*
X65450Y-36700D02*
X65250Y-36900D01*
X114250Y-68600D02*
X113350Y-68600D01*
X114550Y-68300D02*
X114250Y-68600D01*
X114550Y-66900D02*
X114550Y-68300D01*
X114750Y-66700D02*
X114550Y-66900D01*
X114300Y-38500D02*
X113400Y-38500D01*
X114600Y-38200D02*
X114300Y-38500D01*
X114600Y-36800D02*
X114600Y-38200D01*
X114800Y-36600D02*
X114600Y-36800D01*
G54D24*
X80601Y-45495D02*
X79901Y-45495D01*
X80801Y-52595D02*
X81851Y-52595D01*
X79501Y-51295D02*
X80801Y-52595D01*
X79501Y-45895D02*
X79501Y-51295D01*
X79901Y-45495D02*
X79501Y-45895D01*
G54D22*
X76601Y-32495D02*
X77101Y-32495D01*
G54D23*
X77101Y-32495D02*
X77601Y-32995D01*
X77601Y-32995D02*
X77601Y-43995D01*
X77601Y-43995D02*
X77101Y-44495D01*
X77101Y-44495D02*
X76601Y-44495D01*
G54D24*
X96947Y-45489D02*
X96247Y-45489D01*
X97147Y-52589D02*
X98197Y-52589D01*
X95847Y-51289D02*
X97147Y-52589D01*
X95847Y-45889D02*
X95847Y-51289D01*
X96247Y-45489D02*
X95847Y-45889D01*
G54D22*
X92947Y-32489D02*
X93447Y-32489D01*
G54D23*
X93447Y-32489D02*
X93947Y-32989D01*
X93947Y-32989D02*
X93947Y-43989D01*
X93947Y-43989D02*
X93447Y-44489D01*
X93447Y-44489D02*
X92947Y-44489D01*
G54D24*
X96985Y-75641D02*
X96285Y-75641D01*
X97185Y-82741D02*
X98235Y-82741D01*
X95885Y-81441D02*
X97185Y-82741D01*
X95885Y-76041D02*
X95885Y-81441D01*
X96285Y-75641D02*
X95885Y-76041D01*
G54D22*
X92985Y-62641D02*
X93485Y-62641D01*
G54D23*
X93485Y-62641D02*
X93985Y-63141D01*
X93985Y-63141D02*
X93985Y-74141D01*
X93985Y-74141D02*
X93485Y-74641D01*
X93485Y-74641D02*
X92985Y-74641D01*
G54D24*
X80632Y-75535D02*
X79932Y-75535D01*
X80832Y-82635D02*
X81882Y-82635D01*
X79532Y-81335D02*
X80832Y-82635D01*
X79532Y-75935D02*
X79532Y-81335D01*
X79932Y-75535D02*
X79532Y-75935D01*
G54D22*
X76632Y-62535D02*
X77132Y-62535D01*
G54D23*
X77132Y-62535D02*
X77632Y-63035D01*
X77632Y-63035D02*
X77632Y-74035D01*
X77632Y-74035D02*
X77132Y-74535D01*
X77132Y-74535D02*
X76632Y-74535D01*
G54D24*
X47622Y-75322D02*
X46922Y-75322D01*
X47822Y-82422D02*
X48872Y-82422D01*
X46522Y-81122D02*
X47822Y-82422D01*
X46522Y-75722D02*
X46522Y-81122D01*
X46922Y-75322D02*
X46522Y-75722D01*
G54D22*
X43622Y-62322D02*
X44122Y-62322D01*
G54D23*
X44122Y-62322D02*
X44622Y-62822D01*
X44622Y-62822D02*
X44622Y-73822D01*
X44622Y-73822D02*
X44122Y-74322D01*
X44122Y-74322D02*
X43622Y-74322D01*
G54D24*
X64055Y-75395D02*
X63355Y-75395D01*
X64255Y-82495D02*
X65305Y-82495D01*
X62955Y-81195D02*
X64255Y-82495D01*
X62955Y-75795D02*
X62955Y-81195D01*
X63355Y-75395D02*
X62955Y-75795D01*
G54D22*
X60055Y-62395D02*
X60555Y-62395D01*
G54D23*
X60555Y-62395D02*
X61055Y-62895D01*
X61055Y-62895D02*
X61055Y-73895D01*
X61055Y-73895D02*
X60555Y-74395D01*
X60555Y-74395D02*
X60055Y-74395D01*
G54D24*
X47679Y-45495D02*
X46979Y-45495D01*
X47879Y-52595D02*
X48929Y-52595D01*
X46579Y-51295D02*
X47879Y-52595D01*
X46579Y-45895D02*
X46579Y-51295D01*
X46979Y-45495D02*
X46579Y-45895D01*
G54D22*
X43679Y-32495D02*
X44179Y-32495D01*
G54D23*
X44179Y-32495D02*
X44679Y-32995D01*
X44679Y-32995D02*
X44679Y-43995D01*
X44679Y-43995D02*
X44179Y-44495D01*
X44179Y-44495D02*
X43679Y-44495D01*
G54D24*
X64050Y-45600D02*
X63350Y-45600D01*
X64250Y-52700D02*
X65300Y-52700D01*
X62950Y-51400D02*
X64250Y-52700D01*
X62950Y-46000D02*
X62950Y-51400D01*
X63350Y-45600D02*
X62950Y-46000D01*
G54D22*
X60050Y-32600D02*
X60550Y-32600D01*
G54D23*
X60550Y-32600D02*
X61050Y-33100D01*
X61050Y-33100D02*
X61050Y-44100D01*
X61050Y-44100D02*
X60550Y-44600D01*
X60550Y-44600D02*
X60050Y-44600D01*
G54D24*
X113350Y-75600D02*
X112650Y-75600D01*
X113550Y-82700D02*
X114600Y-82700D01*
X112250Y-81400D02*
X113550Y-82700D01*
X112250Y-76000D02*
X112250Y-81400D01*
X112650Y-75600D02*
X112250Y-76000D01*
G54D22*
X109350Y-62600D02*
X109850Y-62600D01*
G54D23*
X109850Y-62600D02*
X110350Y-63100D01*
X110350Y-63100D02*
X110350Y-74100D01*
X110350Y-74100D02*
X109850Y-74600D01*
X109850Y-74600D02*
X109350Y-74600D01*
G54D24*
X113400Y-45500D02*
X112700Y-45500D01*
X113600Y-52600D02*
X114650Y-52600D01*
X112300Y-51300D02*
X113600Y-52600D01*
X112300Y-45900D02*
X112300Y-51300D01*
X112700Y-45500D02*
X112300Y-45900D01*
G54D22*
X109400Y-32500D02*
X109900Y-32500D01*
G54D23*
X109900Y-32500D02*
X110400Y-33000D01*
X110400Y-33000D02*
X110400Y-44000D01*
X110400Y-44000D02*
X109900Y-44500D01*
X109900Y-44500D02*
X109400Y-44500D01*
G54D21*
X84201Y-28495D02*
X84201Y-29595D01*
X83401Y-30395D02*
X79601Y-30395D01*
X84201Y-29595D02*
X83401Y-30395D01*
G54D23*
X80401Y-30395D02*
X79601Y-30395D01*
X79601Y-30795D02*
X79601Y-30395D01*
G54D21*
X78701Y-29495D02*
X77997Y-29495D01*
X79601Y-30395D02*
X78701Y-29495D01*
G54D23*
X81601Y-30395D02*
X80401Y-30395D01*
X80401Y-30395D02*
X80001Y-30395D01*
X79601Y-30795D02*
X79601Y-30895D01*
X80001Y-30395D02*
X79601Y-30795D01*
X79601Y-38995D02*
X79601Y-30895D01*
X80601Y-39495D02*
X80101Y-39495D01*
X80101Y-39495D02*
X79601Y-38995D01*
X79601Y-30895D02*
X79601Y-30499D01*
X81601Y-30395D02*
X81001Y-30395D01*
G54D22*
X82951Y-32795D02*
X82951Y-31745D01*
X82951Y-31745D02*
X81601Y-30395D01*
G54D21*
X100547Y-28489D02*
X100547Y-29589D01*
X99747Y-30389D02*
X95947Y-30389D01*
X100547Y-29589D02*
X99747Y-30389D01*
G54D23*
X96747Y-30389D02*
X95947Y-30389D01*
X95947Y-30789D02*
X95947Y-30389D01*
G54D21*
X95047Y-29489D02*
X94343Y-29489D01*
X95947Y-30389D02*
X95047Y-29489D01*
G54D23*
X97947Y-30389D02*
X96747Y-30389D01*
X96747Y-30389D02*
X96347Y-30389D01*
X95947Y-30789D02*
X95947Y-30889D01*
X96347Y-30389D02*
X95947Y-30789D01*
X95947Y-38989D02*
X95947Y-30889D01*
X96947Y-39489D02*
X96447Y-39489D01*
X96447Y-39489D02*
X95947Y-38989D01*
X95947Y-30889D02*
X95947Y-30493D01*
X97947Y-30389D02*
X97347Y-30389D01*
G54D22*
X99297Y-32789D02*
X99297Y-31739D01*
X99297Y-31739D02*
X97947Y-30389D01*
G54D21*
X100585Y-58641D02*
X100585Y-59741D01*
X99785Y-60541D02*
X95985Y-60541D01*
X100585Y-59741D02*
X99785Y-60541D01*
G54D23*
X96785Y-60541D02*
X95985Y-60541D01*
X95985Y-60941D02*
X95985Y-60541D01*
G54D21*
X95085Y-59641D02*
X94381Y-59641D01*
X95985Y-60541D02*
X95085Y-59641D01*
G54D23*
X97985Y-60541D02*
X96785Y-60541D01*
X96785Y-60541D02*
X96385Y-60541D01*
X95985Y-60941D02*
X95985Y-61041D01*
X96385Y-60541D02*
X95985Y-60941D01*
X95985Y-69141D02*
X95985Y-61041D01*
X96985Y-69641D02*
X96485Y-69641D01*
X96485Y-69641D02*
X95985Y-69141D01*
X95985Y-61041D02*
X95985Y-60645D01*
X97985Y-60541D02*
X97385Y-60541D01*
G54D22*
X99335Y-62941D02*
X99335Y-61891D01*
X99335Y-61891D02*
X97985Y-60541D01*
G54D21*
X84232Y-58535D02*
X84232Y-59635D01*
X83432Y-60435D02*
X79632Y-60435D01*
X84232Y-59635D02*
X83432Y-60435D01*
G54D23*
X80432Y-60435D02*
X79632Y-60435D01*
X79632Y-60835D02*
X79632Y-60435D01*
G54D21*
X78732Y-59535D02*
X78028Y-59535D01*
X79632Y-60435D02*
X78732Y-59535D01*
G54D23*
X81632Y-60435D02*
X80432Y-60435D01*
X80432Y-60435D02*
X80032Y-60435D01*
X79632Y-60835D02*
X79632Y-60935D01*
X80032Y-60435D02*
X79632Y-60835D01*
X79632Y-69035D02*
X79632Y-60935D01*
X80632Y-69535D02*
X80132Y-69535D01*
X80132Y-69535D02*
X79632Y-69035D01*
X79632Y-60935D02*
X79632Y-60539D01*
X81632Y-60435D02*
X81032Y-60435D01*
G54D22*
X82982Y-62835D02*
X82982Y-61785D01*
X82982Y-61785D02*
X81632Y-60435D01*
G54D21*
X51222Y-58322D02*
X51222Y-59422D01*
X50422Y-60222D02*
X46622Y-60222D01*
X51222Y-59422D02*
X50422Y-60222D01*
G54D23*
X47422Y-60222D02*
X46622Y-60222D01*
X46622Y-60622D02*
X46622Y-60222D01*
G54D21*
X45722Y-59322D02*
X45018Y-59322D01*
X46622Y-60222D02*
X45722Y-59322D01*
G54D23*
X48622Y-60222D02*
X47422Y-60222D01*
X47422Y-60222D02*
X47022Y-60222D01*
X46622Y-60622D02*
X46622Y-60722D01*
X47022Y-60222D02*
X46622Y-60622D01*
X46622Y-68822D02*
X46622Y-60722D01*
X47622Y-69322D02*
X47122Y-69322D01*
X47122Y-69322D02*
X46622Y-68822D01*
X46622Y-60722D02*
X46622Y-60326D01*
X48622Y-60222D02*
X48022Y-60222D01*
G54D22*
X49972Y-62622D02*
X49972Y-61572D01*
X49972Y-61572D02*
X48622Y-60222D01*
G54D21*
X67655Y-58395D02*
X67655Y-59495D01*
X66855Y-60295D02*
X63055Y-60295D01*
X67655Y-59495D02*
X66855Y-60295D01*
G54D23*
X63855Y-60295D02*
X63055Y-60295D01*
X63055Y-60695D02*
X63055Y-60295D01*
G54D21*
X62155Y-59395D02*
X61451Y-59395D01*
X63055Y-60295D02*
X62155Y-59395D01*
G54D23*
X65055Y-60295D02*
X63855Y-60295D01*
X63855Y-60295D02*
X63455Y-60295D01*
X63055Y-60695D02*
X63055Y-60795D01*
X63455Y-60295D02*
X63055Y-60695D01*
X63055Y-68895D02*
X63055Y-60795D01*
X64055Y-69395D02*
X63555Y-69395D01*
X63555Y-69395D02*
X63055Y-68895D01*
X63055Y-60795D02*
X63055Y-60399D01*
X65055Y-60295D02*
X64455Y-60295D01*
G54D22*
X66405Y-62695D02*
X66405Y-61645D01*
X66405Y-61645D02*
X65055Y-60295D01*
G54D21*
X51279Y-28495D02*
X51279Y-29595D01*
X50479Y-30395D02*
X46679Y-30395D01*
X51279Y-29595D02*
X50479Y-30395D01*
G54D23*
X47479Y-30395D02*
X46679Y-30395D01*
X46679Y-30795D02*
X46679Y-30395D01*
G54D21*
X45779Y-29495D02*
X45075Y-29495D01*
X46679Y-30395D02*
X45779Y-29495D01*
G54D23*
X48679Y-30395D02*
X47479Y-30395D01*
X47479Y-30395D02*
X47079Y-30395D01*
X46679Y-30795D02*
X46679Y-30895D01*
X47079Y-30395D02*
X46679Y-30795D01*
X46679Y-38995D02*
X46679Y-30895D01*
X47679Y-39495D02*
X47179Y-39495D01*
X47179Y-39495D02*
X46679Y-38995D01*
X46679Y-30895D02*
X46679Y-30499D01*
X48679Y-30395D02*
X48079Y-30395D01*
G54D22*
X50029Y-32795D02*
X50029Y-31745D01*
X50029Y-31745D02*
X48679Y-30395D01*
G54D21*
X67650Y-28600D02*
X67650Y-29700D01*
X66850Y-30500D02*
X63050Y-30500D01*
X67650Y-29700D02*
X66850Y-30500D01*
G54D23*
X63850Y-30500D02*
X63050Y-30500D01*
X63050Y-30900D02*
X63050Y-30500D01*
G54D21*
X62150Y-29600D02*
X61446Y-29600D01*
X63050Y-30500D02*
X62150Y-29600D01*
G54D23*
X65050Y-30500D02*
X63850Y-30500D01*
X63850Y-30500D02*
X63450Y-30500D01*
X63050Y-30900D02*
X63050Y-31000D01*
X63450Y-30500D02*
X63050Y-30900D01*
X63050Y-39100D02*
X63050Y-31000D01*
X64050Y-39600D02*
X63550Y-39600D01*
X63550Y-39600D02*
X63050Y-39100D01*
X63050Y-31000D02*
X63050Y-30604D01*
X65050Y-30500D02*
X64450Y-30500D01*
G54D22*
X66400Y-32900D02*
X66400Y-31850D01*
X66400Y-31850D02*
X65050Y-30500D01*
G54D21*
X116950Y-58600D02*
X116950Y-59700D01*
X116150Y-60500D02*
X112350Y-60500D01*
X116950Y-59700D02*
X116150Y-60500D01*
G54D23*
X113150Y-60500D02*
X112350Y-60500D01*
X112350Y-60900D02*
X112350Y-60500D01*
G54D21*
X111450Y-59600D02*
X110746Y-59600D01*
X112350Y-60500D02*
X111450Y-59600D01*
G54D23*
X114350Y-60500D02*
X113150Y-60500D01*
X113150Y-60500D02*
X112750Y-60500D01*
X112350Y-60900D02*
X112350Y-61000D01*
X112750Y-60500D02*
X112350Y-60900D01*
X112350Y-69100D02*
X112350Y-61000D01*
X113350Y-69600D02*
X112850Y-69600D01*
X112850Y-69600D02*
X112350Y-69100D01*
X112350Y-61000D02*
X112350Y-60604D01*
X114350Y-60500D02*
X113750Y-60500D01*
G54D22*
X115700Y-62900D02*
X115700Y-61850D01*
X115700Y-61850D02*
X114350Y-60500D01*
G54D21*
X117000Y-28500D02*
X117000Y-29600D01*
X116200Y-30400D02*
X112400Y-30400D01*
X117000Y-29600D02*
X116200Y-30400D01*
G54D23*
X113200Y-30400D02*
X112400Y-30400D01*
X112400Y-30800D02*
X112400Y-30400D01*
G54D21*
X111500Y-29500D02*
X110796Y-29500D01*
X112400Y-30400D02*
X111500Y-29500D01*
G54D23*
X114400Y-30400D02*
X113200Y-30400D01*
X113200Y-30400D02*
X112800Y-30400D01*
X112400Y-30800D02*
X112400Y-30900D01*
X112800Y-30400D02*
X112400Y-30800D01*
X112400Y-39000D02*
X112400Y-30900D01*
X113400Y-39500D02*
X112900Y-39500D01*
X112900Y-39500D02*
X112400Y-39000D01*
X112400Y-30900D02*
X112400Y-30504D01*
X114400Y-30400D02*
X113800Y-30400D01*
G54D22*
X115750Y-32800D02*
X115750Y-31750D01*
X115750Y-31750D02*
X114400Y-30400D01*
G54D23*
X88801Y-26195D02*
X89951Y-26195D01*
X89951Y-26195D02*
X90301Y-26545D01*
G54D24*
X85401Y-48895D02*
X85401Y-50795D01*
X87851Y-51745D02*
X87851Y-52595D01*
X87601Y-51495D02*
X87851Y-51745D01*
X86101Y-51495D02*
X87601Y-51495D01*
X85401Y-50795D02*
X86101Y-51495D01*
G54D21*
X86601Y-40495D02*
X84301Y-40495D01*
X82951Y-39145D02*
X82951Y-36795D01*
X84301Y-40495D02*
X82951Y-39145D01*
G54D23*
X79001Y-31595D02*
X79001Y-31395D01*
X79001Y-31395D02*
X78201Y-30595D01*
X78201Y-30595D02*
X77401Y-30595D01*
X77401Y-30595D02*
X76601Y-29795D01*
X76601Y-29795D02*
X76601Y-27395D01*
X76601Y-27395D02*
X77497Y-26499D01*
X77497Y-26499D02*
X78001Y-26499D01*
G54D21*
X85401Y-47395D02*
X85401Y-48895D01*
X85401Y-48895D02*
X85401Y-49995D01*
G54D23*
X85901Y-40495D02*
X85401Y-40995D01*
X85401Y-40995D02*
X85401Y-47395D01*
X86601Y-40495D02*
X85901Y-40495D01*
G54D21*
X82851Y-50445D02*
X82851Y-49195D01*
X83201Y-50795D02*
X82851Y-50445D01*
X84601Y-50795D02*
X83201Y-50795D01*
X85401Y-49995D02*
X84601Y-50795D01*
X82851Y-42995D02*
X82851Y-38245D01*
G54D22*
X82951Y-38145D02*
X82951Y-36795D01*
G54D21*
X82851Y-38245D02*
X82951Y-38145D01*
X82851Y-42995D02*
X82851Y-42245D01*
X82101Y-41495D02*
X80601Y-41495D01*
X82851Y-42245D02*
X82101Y-41495D01*
G54D23*
X79301Y-41495D02*
X80601Y-41495D01*
X79001Y-41195D02*
X79301Y-41495D01*
X79001Y-31295D02*
X79001Y-31595D01*
X79001Y-31595D02*
X79001Y-41195D01*
G54D21*
X82951Y-35595D02*
X82951Y-34395D01*
X82951Y-36795D02*
X82951Y-35595D01*
G54D23*
X105147Y-26189D02*
X106297Y-26189D01*
X106297Y-26189D02*
X106647Y-26539D01*
G54D24*
X101747Y-48889D02*
X101747Y-50789D01*
X104197Y-51739D02*
X104197Y-52589D01*
X103947Y-51489D02*
X104197Y-51739D01*
X102447Y-51489D02*
X103947Y-51489D01*
X101747Y-50789D02*
X102447Y-51489D01*
G54D21*
X102947Y-40489D02*
X100647Y-40489D01*
X99297Y-39139D02*
X99297Y-36789D01*
X100647Y-40489D02*
X99297Y-39139D01*
G54D23*
X95347Y-31589D02*
X95347Y-31389D01*
X95347Y-31389D02*
X94547Y-30589D01*
X94547Y-30589D02*
X93747Y-30589D01*
X93747Y-30589D02*
X92947Y-29789D01*
X92947Y-29789D02*
X92947Y-27389D01*
X92947Y-27389D02*
X93843Y-26493D01*
X93843Y-26493D02*
X94347Y-26493D01*
G54D21*
X101747Y-47389D02*
X101747Y-48889D01*
X101747Y-48889D02*
X101747Y-49989D01*
G54D23*
X102247Y-40489D02*
X101747Y-40989D01*
X101747Y-40989D02*
X101747Y-47389D01*
X102947Y-40489D02*
X102247Y-40489D01*
G54D21*
X99197Y-50439D02*
X99197Y-49189D01*
X99547Y-50789D02*
X99197Y-50439D01*
X100947Y-50789D02*
X99547Y-50789D01*
X101747Y-49989D02*
X100947Y-50789D01*
X99197Y-42989D02*
X99197Y-38239D01*
G54D22*
X99297Y-38139D02*
X99297Y-36789D01*
G54D21*
X99197Y-38239D02*
X99297Y-38139D01*
X99197Y-42989D02*
X99197Y-42239D01*
X98447Y-41489D02*
X96947Y-41489D01*
X99197Y-42239D02*
X98447Y-41489D01*
G54D23*
X95647Y-41489D02*
X96947Y-41489D01*
X95347Y-41189D02*
X95647Y-41489D01*
X95347Y-31289D02*
X95347Y-31589D01*
X95347Y-31589D02*
X95347Y-41189D01*
G54D21*
X99297Y-35589D02*
X99297Y-34389D01*
X99297Y-36789D02*
X99297Y-35589D01*
G54D23*
X105185Y-56341D02*
X106335Y-56341D01*
X106335Y-56341D02*
X106685Y-56691D01*
G54D24*
X101785Y-79041D02*
X101785Y-80941D01*
X104235Y-81891D02*
X104235Y-82741D01*
X103985Y-81641D02*
X104235Y-81891D01*
X102485Y-81641D02*
X103985Y-81641D01*
X101785Y-80941D02*
X102485Y-81641D01*
G54D21*
X102985Y-70641D02*
X100685Y-70641D01*
X99335Y-69291D02*
X99335Y-66941D01*
X100685Y-70641D02*
X99335Y-69291D01*
G54D23*
X95385Y-61741D02*
X95385Y-61541D01*
X95385Y-61541D02*
X94585Y-60741D01*
X94585Y-60741D02*
X93785Y-60741D01*
X93785Y-60741D02*
X92985Y-59941D01*
X92985Y-59941D02*
X92985Y-57541D01*
X92985Y-57541D02*
X93881Y-56645D01*
X93881Y-56645D02*
X94385Y-56645D01*
G54D21*
X101785Y-77541D02*
X101785Y-79041D01*
X101785Y-79041D02*
X101785Y-80141D01*
G54D23*
X102285Y-70641D02*
X101785Y-71141D01*
X101785Y-71141D02*
X101785Y-77541D01*
X102985Y-70641D02*
X102285Y-70641D01*
G54D21*
X99235Y-80591D02*
X99235Y-79341D01*
X99585Y-80941D02*
X99235Y-80591D01*
X100985Y-80941D02*
X99585Y-80941D01*
X101785Y-80141D02*
X100985Y-80941D01*
X99235Y-73141D02*
X99235Y-68391D01*
G54D22*
X99335Y-68291D02*
X99335Y-66941D01*
G54D21*
X99235Y-68391D02*
X99335Y-68291D01*
X99235Y-73141D02*
X99235Y-72391D01*
X98485Y-71641D02*
X96985Y-71641D01*
X99235Y-72391D02*
X98485Y-71641D01*
G54D23*
X95685Y-71641D02*
X96985Y-71641D01*
X95385Y-71341D02*
X95685Y-71641D01*
X95385Y-61441D02*
X95385Y-61741D01*
X95385Y-61741D02*
X95385Y-71341D01*
G54D21*
X99335Y-65741D02*
X99335Y-64541D01*
X99335Y-66941D02*
X99335Y-65741D01*
G54D23*
X88832Y-56235D02*
X89982Y-56235D01*
X89982Y-56235D02*
X90332Y-56585D01*
G54D24*
X85432Y-78935D02*
X85432Y-80835D01*
X87882Y-81785D02*
X87882Y-82635D01*
X87632Y-81535D02*
X87882Y-81785D01*
X86132Y-81535D02*
X87632Y-81535D01*
X85432Y-80835D02*
X86132Y-81535D01*
G54D21*
X86632Y-70535D02*
X84332Y-70535D01*
X82982Y-69185D02*
X82982Y-66835D01*
X84332Y-70535D02*
X82982Y-69185D01*
G54D23*
X79032Y-61635D02*
X79032Y-61435D01*
X79032Y-61435D02*
X78232Y-60635D01*
X78232Y-60635D02*
X77432Y-60635D01*
X77432Y-60635D02*
X76632Y-59835D01*
X76632Y-59835D02*
X76632Y-57435D01*
X76632Y-57435D02*
X77528Y-56539D01*
X77528Y-56539D02*
X78032Y-56539D01*
G54D21*
X85432Y-77435D02*
X85432Y-78935D01*
X85432Y-78935D02*
X85432Y-80035D01*
G54D23*
X85932Y-70535D02*
X85432Y-71035D01*
X85432Y-71035D02*
X85432Y-77435D01*
X86632Y-70535D02*
X85932Y-70535D01*
G54D21*
X82882Y-80485D02*
X82882Y-79235D01*
X83232Y-80835D02*
X82882Y-80485D01*
X84632Y-80835D02*
X83232Y-80835D01*
X85432Y-80035D02*
X84632Y-80835D01*
X82882Y-73035D02*
X82882Y-68285D01*
G54D22*
X82982Y-68185D02*
X82982Y-66835D01*
G54D21*
X82882Y-68285D02*
X82982Y-68185D01*
X82882Y-73035D02*
X82882Y-72285D01*
X82132Y-71535D02*
X80632Y-71535D01*
X82882Y-72285D02*
X82132Y-71535D01*
G54D23*
X79332Y-71535D02*
X80632Y-71535D01*
X79032Y-71235D02*
X79332Y-71535D01*
X79032Y-61335D02*
X79032Y-61635D01*
X79032Y-61635D02*
X79032Y-71235D01*
G54D21*
X82982Y-65635D02*
X82982Y-64435D01*
X82982Y-66835D02*
X82982Y-65635D01*
G54D23*
X55822Y-56022D02*
X56972Y-56022D01*
X56972Y-56022D02*
X57322Y-56372D01*
G54D24*
X52422Y-78722D02*
X52422Y-80622D01*
X54872Y-81572D02*
X54872Y-82422D01*
X54622Y-81322D02*
X54872Y-81572D01*
X53122Y-81322D02*
X54622Y-81322D01*
X52422Y-80622D02*
X53122Y-81322D01*
G54D21*
X53622Y-70322D02*
X51322Y-70322D01*
X49972Y-68972D02*
X49972Y-66622D01*
X51322Y-70322D02*
X49972Y-68972D01*
G54D23*
X46022Y-61422D02*
X46022Y-61222D01*
X46022Y-61222D02*
X45222Y-60422D01*
X45222Y-60422D02*
X44422Y-60422D01*
X44422Y-60422D02*
X43622Y-59622D01*
X43622Y-59622D02*
X43622Y-57222D01*
X43622Y-57222D02*
X44518Y-56326D01*
X44518Y-56326D02*
X45022Y-56326D01*
G54D21*
X52422Y-77222D02*
X52422Y-78722D01*
X52422Y-78722D02*
X52422Y-79822D01*
G54D23*
X52922Y-70322D02*
X52422Y-70822D01*
X52422Y-70822D02*
X52422Y-77222D01*
X53622Y-70322D02*
X52922Y-70322D01*
G54D21*
X49872Y-80272D02*
X49872Y-79022D01*
X50222Y-80622D02*
X49872Y-80272D01*
X51622Y-80622D02*
X50222Y-80622D01*
X52422Y-79822D02*
X51622Y-80622D01*
X49872Y-72822D02*
X49872Y-68072D01*
G54D22*
X49972Y-67972D02*
X49972Y-66622D01*
G54D21*
X49872Y-68072D02*
X49972Y-67972D01*
X49872Y-72822D02*
X49872Y-72072D01*
X49122Y-71322D02*
X47622Y-71322D01*
X49872Y-72072D02*
X49122Y-71322D01*
G54D23*
X46322Y-71322D02*
X47622Y-71322D01*
X46022Y-71022D02*
X46322Y-71322D01*
X46022Y-61122D02*
X46022Y-61422D01*
X46022Y-61422D02*
X46022Y-71022D01*
G54D21*
X49972Y-65422D02*
X49972Y-64222D01*
X49972Y-66622D02*
X49972Y-65422D01*
G54D23*
X72255Y-56095D02*
X73405Y-56095D01*
X73405Y-56095D02*
X73755Y-56445D01*
G54D24*
X68855Y-78795D02*
X68855Y-80695D01*
X71305Y-81645D02*
X71305Y-82495D01*
X71055Y-81395D02*
X71305Y-81645D01*
X69555Y-81395D02*
X71055Y-81395D01*
X68855Y-80695D02*
X69555Y-81395D01*
G54D21*
X70055Y-70395D02*
X67755Y-70395D01*
X66405Y-69045D02*
X66405Y-66695D01*
X67755Y-70395D02*
X66405Y-69045D01*
G54D23*
X62455Y-61495D02*
X62455Y-61295D01*
X62455Y-61295D02*
X61655Y-60495D01*
X61655Y-60495D02*
X60855Y-60495D01*
X60855Y-60495D02*
X60055Y-59695D01*
X60055Y-59695D02*
X60055Y-57295D01*
X60055Y-57295D02*
X60951Y-56399D01*
X60951Y-56399D02*
X61455Y-56399D01*
G54D21*
X68855Y-77295D02*
X68855Y-78795D01*
X68855Y-78795D02*
X68855Y-79895D01*
G54D23*
X69355Y-70395D02*
X68855Y-70895D01*
X68855Y-70895D02*
X68855Y-77295D01*
X70055Y-70395D02*
X69355Y-70395D01*
G54D21*
X66305Y-80345D02*
X66305Y-79095D01*
X66655Y-80695D02*
X66305Y-80345D01*
X68055Y-80695D02*
X66655Y-80695D01*
X68855Y-79895D02*
X68055Y-80695D01*
X66305Y-72895D02*
X66305Y-68145D01*
G54D22*
X66405Y-68045D02*
X66405Y-66695D01*
G54D21*
X66305Y-68145D02*
X66405Y-68045D01*
X66305Y-72895D02*
X66305Y-72145D01*
X65555Y-71395D02*
X64055Y-71395D01*
X66305Y-72145D02*
X65555Y-71395D01*
G54D23*
X62755Y-71395D02*
X64055Y-71395D01*
X62455Y-71095D02*
X62755Y-71395D01*
X62455Y-61195D02*
X62455Y-61495D01*
X62455Y-61495D02*
X62455Y-71095D01*
G54D21*
X66405Y-65495D02*
X66405Y-64295D01*
X66405Y-66695D02*
X66405Y-65495D01*
G54D23*
X55879Y-26195D02*
X57029Y-26195D01*
X57029Y-26195D02*
X57379Y-26545D01*
G54D24*
X52479Y-48895D02*
X52479Y-50795D01*
X54929Y-51745D02*
X54929Y-52595D01*
X54679Y-51495D02*
X54929Y-51745D01*
X53179Y-51495D02*
X54679Y-51495D01*
X52479Y-50795D02*
X53179Y-51495D01*
G54D21*
X53679Y-40495D02*
X51379Y-40495D01*
X50029Y-39145D02*
X50029Y-36795D01*
X51379Y-40495D02*
X50029Y-39145D01*
G54D23*
X46079Y-31595D02*
X46079Y-31395D01*
X46079Y-31395D02*
X45279Y-30595D01*
X45279Y-30595D02*
X44479Y-30595D01*
X44479Y-30595D02*
X43679Y-29795D01*
X43679Y-29795D02*
X43679Y-27395D01*
X43679Y-27395D02*
X44575Y-26499D01*
X44575Y-26499D02*
X45079Y-26499D01*
G54D21*
X52479Y-47395D02*
X52479Y-48895D01*
X52479Y-48895D02*
X52479Y-49995D01*
G54D23*
X52979Y-40495D02*
X52479Y-40995D01*
X52479Y-40995D02*
X52479Y-47395D01*
X53679Y-40495D02*
X52979Y-40495D01*
G54D21*
X49929Y-50445D02*
X49929Y-49195D01*
X50279Y-50795D02*
X49929Y-50445D01*
X51679Y-50795D02*
X50279Y-50795D01*
X52479Y-49995D02*
X51679Y-50795D01*
X49929Y-42995D02*
X49929Y-38245D01*
G54D22*
X50029Y-38145D02*
X50029Y-36795D01*
G54D21*
X49929Y-38245D02*
X50029Y-38145D01*
X49929Y-42995D02*
X49929Y-42245D01*
X49179Y-41495D02*
X47679Y-41495D01*
X49929Y-42245D02*
X49179Y-41495D01*
G54D23*
X46379Y-41495D02*
X47679Y-41495D01*
X46079Y-41195D02*
X46379Y-41495D01*
X46079Y-31295D02*
X46079Y-31595D01*
X46079Y-31595D02*
X46079Y-41195D01*
G54D21*
X50029Y-35595D02*
X50029Y-34395D01*
X50029Y-36795D02*
X50029Y-35595D01*
G54D23*
X72250Y-26300D02*
X73400Y-26300D01*
X73400Y-26300D02*
X73750Y-26650D01*
G54D24*
X68850Y-49000D02*
X68850Y-50900D01*
X71300Y-51850D02*
X71300Y-52700D01*
X71050Y-51600D02*
X71300Y-51850D01*
X69550Y-51600D02*
X71050Y-51600D01*
X68850Y-50900D02*
X69550Y-51600D01*
G54D21*
X70050Y-40600D02*
X67750Y-40600D01*
X66400Y-39250D02*
X66400Y-36900D01*
X67750Y-40600D02*
X66400Y-39250D01*
G54D23*
X62450Y-31700D02*
X62450Y-31500D01*
X62450Y-31500D02*
X61650Y-30700D01*
X61650Y-30700D02*
X60850Y-30700D01*
X60850Y-30700D02*
X60050Y-29900D01*
X60050Y-29900D02*
X60050Y-27500D01*
X60050Y-27500D02*
X60946Y-26604D01*
X60946Y-26604D02*
X61450Y-26604D01*
G54D21*
X68850Y-47500D02*
X68850Y-49000D01*
X68850Y-49000D02*
X68850Y-50100D01*
G54D23*
X69350Y-40600D02*
X68850Y-41100D01*
X68850Y-41100D02*
X68850Y-47500D01*
X70050Y-40600D02*
X69350Y-40600D01*
G54D21*
X66300Y-50550D02*
X66300Y-49300D01*
X66650Y-50900D02*
X66300Y-50550D01*
X68050Y-50900D02*
X66650Y-50900D01*
X68850Y-50100D02*
X68050Y-50900D01*
X66300Y-43100D02*
X66300Y-38350D01*
G54D22*
X66400Y-38250D02*
X66400Y-36900D01*
G54D21*
X66300Y-38350D02*
X66400Y-38250D01*
X66300Y-43100D02*
X66300Y-42350D01*
X65550Y-41600D02*
X64050Y-41600D01*
X66300Y-42350D02*
X65550Y-41600D01*
G54D23*
X62750Y-41600D02*
X64050Y-41600D01*
X62450Y-41300D02*
X62750Y-41600D01*
X62450Y-31400D02*
X62450Y-31700D01*
X62450Y-31700D02*
X62450Y-41300D01*
G54D21*
X66400Y-35700D02*
X66400Y-34500D01*
X66400Y-36900D02*
X66400Y-35700D01*
G54D23*
X121550Y-56300D02*
X122700Y-56300D01*
X122700Y-56300D02*
X123050Y-56650D01*
G54D24*
X118150Y-79000D02*
X118150Y-80900D01*
X120600Y-81850D02*
X120600Y-82700D01*
X120350Y-81600D02*
X120600Y-81850D01*
X118850Y-81600D02*
X120350Y-81600D01*
X118150Y-80900D02*
X118850Y-81600D01*
G54D21*
X119350Y-70600D02*
X117050Y-70600D01*
X115700Y-69250D02*
X115700Y-66900D01*
X117050Y-70600D02*
X115700Y-69250D01*
G54D23*
X111750Y-61700D02*
X111750Y-61500D01*
X111750Y-61500D02*
X110950Y-60700D01*
X110950Y-60700D02*
X110150Y-60700D01*
X110150Y-60700D02*
X109350Y-59900D01*
X109350Y-59900D02*
X109350Y-57500D01*
X109350Y-57500D02*
X110246Y-56604D01*
X110246Y-56604D02*
X110750Y-56604D01*
G54D21*
X118150Y-77500D02*
X118150Y-79000D01*
X118150Y-79000D02*
X118150Y-80100D01*
G54D23*
X118650Y-70600D02*
X118150Y-71100D01*
X118150Y-71100D02*
X118150Y-77500D01*
X119350Y-70600D02*
X118650Y-70600D01*
G54D21*
X115600Y-80550D02*
X115600Y-79300D01*
X115950Y-80900D02*
X115600Y-80550D01*
X117350Y-80900D02*
X115950Y-80900D01*
X118150Y-80100D02*
X117350Y-80900D01*
X115600Y-73100D02*
X115600Y-68350D01*
G54D22*
X115700Y-68250D02*
X115700Y-66900D01*
G54D21*
X115600Y-68350D02*
X115700Y-68250D01*
X115600Y-73100D02*
X115600Y-72350D01*
X114850Y-71600D02*
X113350Y-71600D01*
X115600Y-72350D02*
X114850Y-71600D01*
G54D23*
X112050Y-71600D02*
X113350Y-71600D01*
X111750Y-71300D02*
X112050Y-71600D01*
X111750Y-61400D02*
X111750Y-61700D01*
X111750Y-61700D02*
X111750Y-71300D01*
G54D21*
X115700Y-65700D02*
X115700Y-64500D01*
X115700Y-66900D02*
X115700Y-65700D01*
G54D23*
X121600Y-26200D02*
X122750Y-26200D01*
X122750Y-26200D02*
X123100Y-26550D01*
G54D24*
X118200Y-48900D02*
X118200Y-50800D01*
X120650Y-51750D02*
X120650Y-52600D01*
X120400Y-51500D02*
X120650Y-51750D01*
X118900Y-51500D02*
X120400Y-51500D01*
X118200Y-50800D02*
X118900Y-51500D01*
G54D21*
X119400Y-40500D02*
X117100Y-40500D01*
X115750Y-39150D02*
X115750Y-36800D01*
X117100Y-40500D02*
X115750Y-39150D01*
G54D23*
X111800Y-31600D02*
X111800Y-31400D01*
X111800Y-31400D02*
X111000Y-30600D01*
X111000Y-30600D02*
X110200Y-30600D01*
X110200Y-30600D02*
X109400Y-29800D01*
X109400Y-29800D02*
X109400Y-27400D01*
X109400Y-27400D02*
X110296Y-26504D01*
X110296Y-26504D02*
X110800Y-26504D01*
G54D21*
X118200Y-47400D02*
X118200Y-48900D01*
X118200Y-48900D02*
X118200Y-50000D01*
G54D23*
X118700Y-40500D02*
X118200Y-41000D01*
X118200Y-41000D02*
X118200Y-47400D01*
X119400Y-40500D02*
X118700Y-40500D01*
G54D21*
X115650Y-50450D02*
X115650Y-49200D01*
X116000Y-50800D02*
X115650Y-50450D01*
X117400Y-50800D02*
X116000Y-50800D01*
X118200Y-50000D02*
X117400Y-50800D01*
X115650Y-43000D02*
X115650Y-38250D01*
G54D22*
X115750Y-38150D02*
X115750Y-36800D01*
G54D21*
X115650Y-38250D02*
X115750Y-38150D01*
X115650Y-43000D02*
X115650Y-42250D01*
X114900Y-41500D02*
X113400Y-41500D01*
X115650Y-42250D02*
X114900Y-41500D01*
G54D23*
X112100Y-41500D02*
X113400Y-41500D01*
X111800Y-41200D02*
X112100Y-41500D01*
X111800Y-31300D02*
X111800Y-31600D01*
X111800Y-31600D02*
X111800Y-41200D01*
G54D21*
X115750Y-35600D02*
X115750Y-34400D01*
X115750Y-36800D02*
X115750Y-35600D01*
G54D23*
X90851Y-29395D02*
X90851Y-28395D01*
X90851Y-28395D02*
X90301Y-27845D01*
X107197Y-29389D02*
X107197Y-28389D01*
X107197Y-28389D02*
X106647Y-27839D01*
X107235Y-59541D02*
X107235Y-58541D01*
X107235Y-58541D02*
X106685Y-57991D01*
X90882Y-59435D02*
X90882Y-58435D01*
X90882Y-58435D02*
X90332Y-57885D01*
X57872Y-59222D02*
X57872Y-58222D01*
X57872Y-58222D02*
X57322Y-57672D01*
X74305Y-59295D02*
X74305Y-58295D01*
X74305Y-58295D02*
X73755Y-57745D01*
X57929Y-29395D02*
X57929Y-28395D01*
X57929Y-28395D02*
X57379Y-27845D01*
X74300Y-29500D02*
X74300Y-28500D01*
X74300Y-28500D02*
X73750Y-27950D01*
X123600Y-59500D02*
X123600Y-58500D01*
X123600Y-58500D02*
X123050Y-57950D01*
X123650Y-29400D02*
X123650Y-28400D01*
X123650Y-28400D02*
X123100Y-27850D01*
G54D24*
X83151Y-52595D02*
X83151Y-53345D01*
X77351Y-53445D02*
X77351Y-52595D01*
X77601Y-53695D02*
X77351Y-53445D01*
X82801Y-53695D02*
X77601Y-53695D01*
X83151Y-53345D02*
X82801Y-53695D01*
X86551Y-52595D02*
X83151Y-52595D01*
X99497Y-52589D02*
X99497Y-53339D01*
X93697Y-53439D02*
X93697Y-52589D01*
X93947Y-53689D02*
X93697Y-53439D01*
X99147Y-53689D02*
X93947Y-53689D01*
X99497Y-53339D02*
X99147Y-53689D01*
X102897Y-52589D02*
X99497Y-52589D01*
X99535Y-82741D02*
X99535Y-83491D01*
X93735Y-83591D02*
X93735Y-82741D01*
X93985Y-83841D02*
X93735Y-83591D01*
X99185Y-83841D02*
X93985Y-83841D01*
X99535Y-83491D02*
X99185Y-83841D01*
X102935Y-82741D02*
X99535Y-82741D01*
X83182Y-82635D02*
X83182Y-83385D01*
X77382Y-83485D02*
X77382Y-82635D01*
X77632Y-83735D02*
X77382Y-83485D01*
X82832Y-83735D02*
X77632Y-83735D01*
X83182Y-83385D02*
X82832Y-83735D01*
X86582Y-82635D02*
X83182Y-82635D01*
X50172Y-82422D02*
X50172Y-83172D01*
X44372Y-83272D02*
X44372Y-82422D01*
X44622Y-83522D02*
X44372Y-83272D01*
X49822Y-83522D02*
X44622Y-83522D01*
X50172Y-83172D02*
X49822Y-83522D01*
X53572Y-82422D02*
X50172Y-82422D01*
X66605Y-82495D02*
X66605Y-83245D01*
X60805Y-83345D02*
X60805Y-82495D01*
X61055Y-83595D02*
X60805Y-83345D01*
X66255Y-83595D02*
X61055Y-83595D01*
X66605Y-83245D02*
X66255Y-83595D01*
X70005Y-82495D02*
X66605Y-82495D01*
X50229Y-52595D02*
X50229Y-53345D01*
X44429Y-53445D02*
X44429Y-52595D01*
X44679Y-53695D02*
X44429Y-53445D01*
X49879Y-53695D02*
X44679Y-53695D01*
X50229Y-53345D02*
X49879Y-53695D01*
X53629Y-52595D02*
X50229Y-52595D01*
X66600Y-52700D02*
X66600Y-53450D01*
X60800Y-53550D02*
X60800Y-52700D01*
X61050Y-53800D02*
X60800Y-53550D01*
X66250Y-53800D02*
X61050Y-53800D01*
X66600Y-53450D02*
X66250Y-53800D01*
X70000Y-52700D02*
X66600Y-52700D01*
X115900Y-82700D02*
X115900Y-83450D01*
X110100Y-83550D02*
X110100Y-82700D01*
X110350Y-83800D02*
X110100Y-83550D01*
X115550Y-83800D02*
X110350Y-83800D01*
X115900Y-83450D02*
X115550Y-83800D01*
X119300Y-82700D02*
X115900Y-82700D01*
X115950Y-52600D02*
X115950Y-53350D01*
X110150Y-53450D02*
X110150Y-52600D01*
X110400Y-53700D02*
X110150Y-53450D01*
X115600Y-53700D02*
X110400Y-53700D01*
X115950Y-53350D02*
X115600Y-53700D01*
X119350Y-52600D02*
X115950Y-52600D01*
G54D21*
X84151Y-49195D02*
X84151Y-47745D01*
X84151Y-47745D02*
X83501Y-47095D01*
X100497Y-49189D02*
X100497Y-47739D01*
X100497Y-47739D02*
X99847Y-47089D01*
X100535Y-79341D02*
X100535Y-77891D01*
X100535Y-77891D02*
X99885Y-77241D01*
X84182Y-79235D02*
X84182Y-77785D01*
X84182Y-77785D02*
X83532Y-77135D01*
X51172Y-79022D02*
X51172Y-77572D01*
X51172Y-77572D02*
X50522Y-76922D01*
X67605Y-79095D02*
X67605Y-77645D01*
X67605Y-77645D02*
X66955Y-76995D01*
X51229Y-49195D02*
X51229Y-47745D01*
X51229Y-47745D02*
X50579Y-47095D01*
X67600Y-49300D02*
X67600Y-47850D01*
X67600Y-47850D02*
X66950Y-47200D01*
X116900Y-79300D02*
X116900Y-77850D01*
X116900Y-77850D02*
X116250Y-77200D01*
X116950Y-49200D02*
X116950Y-47750D01*
X116950Y-47750D02*
X116300Y-47100D01*
X84151Y-42995D02*
X84151Y-44445D01*
X84151Y-44445D02*
X83501Y-45095D01*
X100497Y-42989D02*
X100497Y-44439D01*
X100497Y-44439D02*
X99847Y-45089D01*
X100535Y-73141D02*
X100535Y-74591D01*
X100535Y-74591D02*
X99885Y-75241D01*
X84182Y-73035D02*
X84182Y-74485D01*
X84182Y-74485D02*
X83532Y-75135D01*
X51172Y-72822D02*
X51172Y-74272D01*
X51172Y-74272D02*
X50522Y-74922D01*
X67605Y-72895D02*
X67605Y-74345D01*
X67605Y-74345D02*
X66955Y-74995D01*
X51229Y-42995D02*
X51229Y-44445D01*
X51229Y-44445D02*
X50579Y-45095D01*
X67600Y-43100D02*
X67600Y-44550D01*
X67600Y-44550D02*
X66950Y-45200D01*
X116900Y-73100D02*
X116900Y-74550D01*
X116900Y-74550D02*
X116250Y-75200D01*
X116950Y-43000D02*
X116950Y-44450D01*
X116950Y-44450D02*
X116300Y-45100D01*
M02*
